<svg width="24" height="24" viewBox="0 0 24 24" fill="currentcolor" xmlns="http://www.w3.org/2000/svg">
<g id="icon-shield">
<path id="Vector" d="M19 8.21759C19 7.33625 18.9842 7.16077 18.9346 7.03046L18.9346 7.03031C18.8768 6.87855 18.783 6.74316 18.6612 6.6358L18.6611 6.63571C18.5631 6.54929 18.4174 6.47675 17.7196 6.21301L17.5725 6.15767L12.2107 4.147C12.0992 4.10521 12.0439 4.08466 12.003 4.07127C12.002 4.07092 12.001 4.07061 12 4.0703C11.999 4.07061 11.998 4.07093 11.997 4.07127C11.9562 4.08466 11.9008 4.10518 11.7893 4.14697L11.7893 4.147L6.42752 6.15764L6.42755 6.15767C5.62812 6.45746 5.45408 6.53854 5.34884 6.62715L5.33885 6.63577C5.22081 6.73979 5.12905 6.87013 5.07093 7.01616L5.06539 7.03034C5.01578 7.1607 5 7.33624 5 8.21759V12C5 13.8142 6.11892 15.4895 7.64815 16.911C9.10898 18.2689 10.7973 19.2564 11.7326 19.75L11.8207 19.7962L11.8208 19.7962L11.8904 19.8324C11.9107 19.8429 11.9286 19.8521 11.9451 19.8604C11.971 19.8734 11.9883 19.8816 12 19.8869C12.0117 19.8816 12.029 19.8735 12.0549 19.8604C12.088 19.8437 12.1262 19.8239 12.1792 19.7962L12.1793 19.7962L12.2674 19.75C13.2027 19.2564 14.891 18.2689 16.3518 16.911C17.8811 15.4895 19 13.8142 19 12V8.21759ZM14.2929 9.29288C14.6834 8.90236 15.3166 8.90236 15.7071 9.29288C16.0976 9.6834 16.0976 10.3166 15.7071 10.7071L11.7071 14.7071C11.5196 14.8946 11.2652 15 11 15C10.7348 15 10.4804 14.8946 10.2929 14.7071L8.29291 12.7071L8.27489 12.6886C7.90248 12.2968 7.90849 11.6773 8.29291 11.2929C8.67733 10.9085 9.29688 10.9025 9.68864 11.2749L9.70713 11.2929L11 12.5858L14.2929 9.29288ZM21 12C21 14.6469 19.3889 16.8185 17.7135 18.3758C16.0169 19.953 14.0879 21.0568 13.1036 21.5698L13.1036 21.5698C12.9269 21.6619 12.6928 21.7923 12.382 21.8528L12.382 21.8528C12.1449 21.8989 11.8551 21.8989 11.618 21.8528C11.3072 21.7923 11.0732 21.6619 10.8964 21.5698C9.91205 21.0569 7.98311 19.953 6.28649 18.3758C4.61108 16.8185 3.00002 14.6469 3.00002 12V8.21759C3.00002 7.49993 2.98425 6.87596 3.19616 6.31907C3.36943 5.8637 3.65099 5.45739 4.0165 5.13527L4.03757 5.11696C4.48199 4.73494 5.06381 4.53307 5.72527 4.28502L11.0871 2.27434L11.1524 2.24973C11.3102 2.19022 11.5051 2.11872 11.714 2.08854L11.7496 2.08374C11.9277 2.06125 12.1082 2.06285 12.286 2.08854L12.286 2.08857C12.5247 2.12306 12.7453 2.21148 12.9129 2.27434L18.5227 4.37774C19.0919 4.59103 19.5923 4.79054 19.9834 5.13524L20.0175 5.16571C20.3665 5.48284 20.636 5.87793 20.8038 6.31907C21.0158 6.87599 21 7.49999 21 8.21759V12Z" fill="black"/>
</g>
</svg>
