<svg width="24" height="24" viewBox="0 0 24 24" fill="currentcolor" xmlns="http://www.w3.org/2000/svg">
<g id="icon-external link">
<path id="Vector" d="M4 15.8002V8.2002C4 7.65663 3.99921 7.18872 4.03056 6.80496C4.06285 6.40961 4.13417 6.01626 4.32698 5.63783C4.61459 5.07334 5.07329 4.61459 5.63779 4.32697L5.67332 4.30925C6.04082 4.12973 6.42196 4.06183 6.80497 4.03055C7.18873 3.9992 7.65662 3.99999 8.20018 3.99999H10.0002C10.5525 4 11.0002 4.44771 11.0002 4.99998C11.0002 5.55226 10.5525 5.99999 10.0002 6H8.20018C7.62365 6 7.25126 6.00076 6.9678 6.02391C6.69596 6.04611 6.59516 6.08382 6.54578 6.10898C6.35763 6.20485 6.20486 6.35762 6.109 6.54577C6.08383 6.59515 6.04612 6.69595 6.02392 6.96779C6.00077 7.25125 5.99998 7.62365 5.99998 8.2002V15.8002C5.99998 16.3767 6.00077 16.7489 6.02392 17.0322C6.04611 17.3038 6.08377 17.4044 6.10897 17.4539L6.11817 17.4715C6.21164 17.6463 6.35447 17.7891 6.52821 17.882L6.5457 17.8911L6.54584 17.8912L6.55569 17.8961C6.60826 17.9209 6.71252 17.9553 6.96687 17.9761C7.2498 17.9992 7.62145 18 8.1969 18H15.8031C16.3786 18 16.75 17.9992 17.0327 17.9761C17.3036 17.9539 17.404 17.9164 17.4534 17.8912L17.4535 17.8912L17.471 17.882C17.6513 17.7856 17.7984 17.6357 17.8911 17.4537L17.8912 17.4536L17.8961 17.4437C17.921 17.391 17.9553 17.2869 17.9761 17.0328C17.9992 16.75 18 16.3785 18 15.8031V14C18 13.4477 18.4477 13 19 13C19.5523 13 20 13.4477 20 14V15.8031C20 16.3455 20.0008 16.8126 19.9694 17.1958C19.9372 17.5906 19.8659 17.9834 19.6732 18.3615L19.6732 18.3615C19.3856 18.9262 18.9256 19.3858 18.3613 19.6732L18.3613 19.6732C17.9833 19.8658 17.5905 19.9371 17.1957 19.9694C16.8126 20.0008 16.3455 20 15.8031 20H8.1969C7.65443 20 7.18724 20.0008 6.80395 19.9695C6.40903 19.9372 6.01595 19.8659 5.63776 19.6732C5.0815 19.3898 4.62862 18.94 4.34058 18.3882L4.32698 18.3619C4.1342 17.9836 4.06286 17.5904 4.03056 17.1951C3.99921 16.8115 4 16.3437 4 15.8002ZM21 9C21 9.55228 20.5523 9.99999 20 9.99999C19.4477 9.99999 19 9.55228 19 9V6.4142L13.7071 11.7071C13.3166 12.0976 12.6834 12.0976 12.2929 11.7071C11.9024 11.3166 11.9024 10.6834 12.2929 10.2929L17.5858 4.99998H15C14.4477 4.99998 14 4.55227 14 3.99999C14 3.44771 14.4477 3 15 3H20L20.0258 3.00032C20.5662 3.01401 21 3.45634 21 3.99999V9Z" fill="black"/>
</g>
</svg>
