<svg width="24" height="24" viewBox="0 0 24 24" fill="currentcolor" xmlns="http://www.w3.org/2000/svg">
<g id="icon-goal">
<g id="Vector">
<path d="M12.4325 2.0047C12.9365 2.05606 13.3299 2.48225 13.33 2.99982C13.33 3.51747 12.9366 3.94357 12.4325 3.99493L12.33 3.99982H11.9999C10.4177 3.99983 8.87112 4.46943 7.55555 5.34845C6.24008 6.22743 5.21478 7.47664 4.60927 8.93829C4.00382 10.4 3.84465 12.0087 4.15321 13.5604C4.46188 15.1122 5.22391 16.5382 6.34266 17.657C7.46146 18.7758 8.88753 19.5378 10.4393 19.8465C11.9911 20.1551 13.5997 19.9959 15.0614 19.3904C16.5231 18.7849 17.7723 17.7597 18.6513 16.4442C19.5303 15.1286 19.9999 13.582 19.9999 11.9998V11.6697C20 11.1176 20.4477 10.6698 20.9999 10.6697C21.5521 10.6697 21.9997 11.1176 21.9999 11.6697V11.9998C21.9999 13.9776 21.4131 15.911 20.3143 17.5555C19.2156 19.1999 17.6542 20.4822 15.827 21.2391C13.9998 21.996 11.9885 22.1933 10.0487 21.8074C8.10906 21.4215 6.32703 20.4695 4.9286 19.0711C3.53022 17.6727 2.57815 15.8906 2.19227 13.951C1.80647 12.0112 2.00378 9.99987 2.76063 8.17267C3.51751 6.34555 4.79985 4.78412 6.44423 3.68536C8.08869 2.58658 10.0221 1.99983 11.9999 1.99982H12.33L12.4325 2.0047Z" fill="black"/>
<path d="M10.9003 6.10529C11.4047 6.05434 11.8757 6.39284 11.9794 6.90021C12.0829 7.40743 11.7825 7.90346 11.2987 8.0545L11.2001 8.0799C10.4923 8.22464 9.83599 8.55845 9.30262 9.04572C8.76938 9.53302 8.37768 10.1566 8.16981 10.8484C7.96213 11.5402 7.94554 12.276 8.12196 12.9764C8.2985 13.6769 8.66193 14.3171 9.17274 14.8279C9.68355 15.3386 10.3239 15.7013 11.0243 15.8777C11.7247 16.0541 12.4605 16.0377 13.1522 15.8299C13.8439 15.622 14.4668 15.2303 14.954 14.6971C15.4412 14.1638 15.775 13.5082 15.9198 12.8006L15.9452 12.701C16.0963 12.2174 16.5924 11.917 17.0995 12.0203C17.6406 12.1309 17.9904 12.6599 17.8798 13.201L17.785 13.5945C17.5338 14.505 17.0702 15.3456 16.4306 16.0457C15.6996 16.8457 14.7652 17.4331 13.7274 17.7449C12.6895 18.0567 11.5859 18.0819 10.535 17.8172C9.4844 17.5525 8.52489 17.0081 7.75868 16.242C6.99235 15.4757 6.44727 14.5156 6.18251 13.4647C5.91781 12.4138 5.94301 11.3101 6.25477 10.2723C6.56664 9.23455 7.15406 8.30007 7.95399 7.56915C8.75406 6.83827 9.73801 6.33799 10.7997 6.12091L10.9003 6.10529Z" fill="black"/>
<path fill-rule="evenodd" clip-rule="evenodd" d="M17.4061 2.19513C17.6852 1.98919 18.0557 1.94058 18.3827 2.07599C18.7562 2.23077 18.9998 2.59549 18.9999 2.99982V4.99982H20.9999C21.4042 4.99982 21.7689 5.24351 21.9237 5.617C22.0785 5.99063 21.9928 6.42085 21.7069 6.70685L18.7069 9.70685C18.5194 9.89438 18.2651 9.99982 17.9999 9.99982H15.414L13.2069 12.2068C12.8164 12.5974 12.1834 12.5974 11.7929 12.2068C11.4025 11.8163 11.4024 11.1833 11.7929 10.7928L13.9999 8.58575V5.99982L14.0048 5.90118C14.0275 5.67227 14.1288 5.45688 14.2929 5.29279L17.2929 2.29279L17.4061 2.19513ZM15.9999 6.41388V7.99982H17.5858L18.5858 6.99982H17.9999C17.4476 6.99981 16.9999 6.5521 16.9999 5.99982V5.41388L15.9999 6.41388Z" fill="black"/>
</g>
</g>
</svg>
