<svg width="24" height="24" viewBox="0 0 24 24" fill="currentcolor" xmlns="http://www.w3.org/2000/svg">
<g id="icon-institute">
<path id="Vector" d="M14 14.3682C14 13.793 13.9922 13.6783 13.968 13.584C13.9401 13.4754 13.8942 13.3724 13.8323 13.2793L13.8218 13.264C13.7742 13.1971 13.6962 13.1169 13.4152 12.8622L13.2704 12.7316L10.9704 10.6653C10.5809 10.3154 10.3306 10.0916 10.1263 9.93492C9.93178 9.78582 9.84027 9.74697 9.78851 9.73137C9.60625 9.67642 9.41189 9.67468 9.22879 9.72621L9.21109 9.73137C9.15964 9.74688 9.0684 9.78555 8.87418 9.93448C8.69562 10.0714 8.48208 10.2596 8.17091 10.5386L5.7298 12.7316C5.30133 13.1165 5.22111 13.1986 5.16745 13.2792C5.10536 13.3725 5.0594 13.4755 5.03151 13.5839C5.00738 13.6778 4.99999 13.7914 4.99999 14.3682V19H14V14.3682ZM16 19H19V7.1969C19 6.62145 18.9992 6.2498 18.9761 5.96687C18.9553 5.71252 18.9209 5.60826 18.8961 5.55569L18.8912 5.54584C18.796 5.35887 18.6426 5.20544 18.4534 5.109C18.4039 5.08376 18.3032 5.0461 18.0319 5.02392C17.7488 5.00077 17.3767 4.99998 16.8002 4.99998H10.2002C9.62364 4.99998 9.25124 5.00077 8.96778 5.02392C8.71291 5.04474 8.60841 5.07918 8.55566 5.10413L8.54579 5.109C8.36352 5.20186 8.21444 5.34812 8.11814 5.52823L8.109 5.54575C8.08384 5.59513 8.04613 5.69596 8.02393 5.9678C8.00077 6.25126 7.99999 6.62365 7.99999 7.20018V8.1082C8.19344 7.98819 8.40129 7.88657 8.63386 7.81647L8.66037 7.80862C9.21733 7.64631 9.80984 7.64892 10.3657 7.81647C10.7413 7.92968 11.0526 8.12497 11.343 8.34759C11.6236 8.56267 11.9405 8.84821 12.307 9.17748L14.7375 11.3609C15.0262 11.6204 15.2802 11.856 15.4756 12.1394L15.4971 12.171L15.5145 12.1975C15.6921 12.4705 15.8239 12.7705 15.905 13.0859L15.9142 13.1231C16.0063 13.5074 16 13.9074 16 14.3682V19ZM21 19H22C22.5523 19 23 19.4477 23 20C23 20.5523 22.5523 21 22 21H1.99999C1.44771 21 1 20.5523 1 20C1 19.4477 1.44771 19 1.99999 19H2.99998V14.3682C2.99998 13.8942 2.99263 13.4821 3.09449 13.0859C3.17827 12.7601 3.31619 12.4509 3.50254 12.171C3.72905 11.8307 4.04097 11.5602 4.39319 11.2438L5.99998 9.80028V7.20018C5.99998 6.65662 5.99922 6.18873 6.03057 5.80497C6.06185 5.42196 6.12975 5.04083 6.30927 4.67332L6.32696 4.63778C6.61458 4.07329 7.07332 3.61457 7.63782 3.32695C8.01626 3.13413 8.40962 3.06285 8.80498 3.03056C9.18874 2.99921 9.65663 3 10.2002 3H16.8002C17.3437 3 17.8114 2.99921 18.1949 3.03056C18.5902 3.06288 18.9831 3.13423 19.3614 3.32698C19.9247 3.614 20.385 4.07214 20.6731 4.63776C20.8659 5.01595 20.9372 5.40903 20.9695 5.80395C21.0008 6.18724 21 6.65443 21 7.1969V19Z" fill="black"/>
</g>
</svg>
