<svg width="24" height="24" viewBox="0 0 24 24" fill="currentcolor" xmlns="http://www.w3.org/2000/svg">
<g id="icon-search">
<path id="Vector" d="M17 10.5C17 6.91014 14.0898 3.99998 10.5 3.99998C6.91014 3.99998 3.99998 6.91014 3.99998 10.5C3.99998 14.0898 6.91014 17 10.5 17C14.0898 17 17 14.0898 17 10.5ZM19 10.5C19 12.4903 18.3159 14.3208 17.17 15.7693L21.706 20.2918L21.7241 20.3103C22.0971 20.7015 22.092 21.321 21.7082 21.706C21.3243 22.091 20.7048 22.098 20.3125 21.7261L20.2939 21.7082L15.7542 17.182C14.3081 18.3207 12.4834 19 10.5 19C5.80556 19 2 15.1944 2 10.5C2 5.80557 5.80557 2 10.5 2C15.1944 2 19 5.80556 19 10.5Z" fill="black"/>
</g>
</svg>
