<svg width="24" height="24" viewBox="0 0 24 24" fill="currentcolor" xmlns="http://www.w3.org/2000/svg">
<g id="icon-crown">
<path id="Vector" d="M19 19L19.0258 19.0003C19.5662 19.014 20 19.4563 20 20C20 20.5436 19.5662 20.986 19.0258 20.9997L19 21H4.99999C4.44771 21 4 20.5523 4 20C4 19.4477 4.44771 19 4.99999 19H19ZM12 4C12.3038 4 12.5911 4.13808 12.7809 4.37529L16.1754 8.61842L19.4 6.19999C19.719 5.96072 20.1497 5.93388 20.496 6.13167C20.8423 6.32946 21.0379 6.71408 20.9939 7.11042L19.9939 16.1104C19.9376 16.6169 19.5096 17 19 17H4.99999C4.49841 17 4.07578 16.6287 4.00903 16.1341L4.00613 16.1104L3.00611 7.11042C2.96207 6.71408 3.15774 6.32946 3.50401 6.13167C3.85028 5.93388 4.28098 5.96072 4.6 6.19999L7.82459 8.61845L11.2191 4.37529L11.2372 4.35335C11.4269 4.12959 11.7057 4 12 4ZM8.78087 10.6247C8.44873 11.0399 7.85114 11.1216 7.42039 10.8149L7.39999 10.8L5.24914 9.18684L5.89504 15H18.105L18.7509 9.18681L16.6 10.8C16.1679 11.1241 15.5565 11.0465 15.2191 10.6247L12 6.60077L8.78087 10.6247Z" fill="black"/>
</g>
</svg>
