<svg width="24" height="24" viewBox="0 0 24 24" fill="currentcolor" xmlns="http://www.w3.org/2000/svg">
<g id="icon-info">
<path id="Vector" d="M12 2C17.5228 2 22 6.47715 22 12C22 17.5228 17.5228 22 12 22C6.47715 22 2 17.5228 2 12C2 6.47715 6.47715 2 12 2ZM12 4C7.58172 4 4 7.58172 4 12C4 16.4183 7.58172 20 12 20C16.4183 20 20 16.4183 20 12C20 7.58172 16.4183 4 12 4ZM12 11C12.5523 11 13 11.4477 13 12V16C13 16.5523 12.5523 17 12 17C11.4477 17 11 16.5523 11 16V12C11 11.4477 11.4477 11 12 11ZM12.0293 6.5C12.8488 6.51038 13.5098 7.17804 13.5098 8V8.0293C13.4995 8.84234 12.8423 9.49947 12.0293 9.50977H12C11.1716 9.50977 10.5 8.83819 10.5 8.00977V7.98047C10.5105 7.16104 11.1781 6.5 12 6.5H12.0293Z" fill="black"/>
</g>
</svg>
