<svg width="186" height="174" viewBox="0 0 186 174" fill="none" xmlns="http://www.w3.org/2000/svg">
<path d="M162.667 122.92C162.83 122.819 163.045 122.87 163.146 123.033L162.85 123.216C163.12 123.048 163.144 123.034 163.146 123.033L163.147 123.034C163.147 123.034 163.147 123.035 163.148 123.036C163.149 123.037 163.15 123.04 163.152 123.044C163.156 123.05 163.162 123.06 163.17 123.072C163.185 123.097 163.208 123.135 163.238 123.184C163.297 123.283 163.383 123.43 163.492 123.621C163.711 124.004 164.023 124.568 164.399 125.295C165.15 126.749 166.156 128.856 167.177 131.473C169.219 136.705 171.325 143.984 171.573 152.161C171.579 152.352 171.428 152.513 171.236 152.518C171.044 152.524 170.884 152.374 170.878 152.182C170.633 144.108 168.551 136.909 166.529 131.725C165.518 129.135 164.522 127.05 163.78 125.614C163.409 124.896 163.101 124.341 162.887 123.965C162.78 123.778 162.697 123.636 162.64 123.54C162.611 123.493 162.59 123.457 162.575 123.433C162.568 123.421 162.563 123.413 162.559 123.407C162.558 123.404 162.556 123.402 162.555 123.401L162.554 123.399C162.453 123.236 162.503 123.021 162.667 122.92Z" fill="#5647C1"/>
<path d="M170.444 126.423C170.609 126.388 170.771 126.475 170.836 126.624L170.857 126.69V126.691C170.857 126.691 170.858 126.692 170.858 126.693C170.858 126.695 170.858 126.697 170.859 126.7C170.86 126.706 170.862 126.715 170.865 126.727C170.87 126.751 170.877 126.786 170.887 126.833C170.906 126.926 170.933 127.064 170.968 127.244C171.037 127.603 171.135 128.131 171.25 128.805C171.479 130.154 171.775 132.09 172.044 134.442C172.58 139.145 173.006 145.52 172.559 152.194C172.547 152.386 172.38 152.531 172.189 152.518C171.997 152.505 171.852 152.339 171.865 152.148L171.904 151.528C172.281 145.135 171.869 139.052 171.352 134.521C171.086 132.183 170.791 130.259 170.564 128.921C170.45 128.252 170.353 127.73 170.284 127.375C170.25 127.198 170.223 127.062 170.204 126.972C170.195 126.926 170.188 126.892 170.183 126.869C170.181 126.857 170.179 126.849 170.178 126.843C170.178 126.84 170.177 126.838 170.177 126.837L170.176 126.836V126.835L170.169 126.765C170.168 126.603 170.28 126.458 170.444 126.423Z" fill="#5647C1"/>
<path d="M161.631 135.266C161.721 135.096 161.931 135.031 162.101 135.12C162.101 135.12 162.102 135.121 162.103 135.121C162.104 135.122 162.106 135.122 162.108 135.124C162.112 135.126 162.118 135.129 162.126 135.133C162.141 135.142 162.164 135.154 162.194 135.17C162.252 135.203 162.337 135.25 162.445 135.313C162.662 135.438 162.972 135.624 163.346 135.866C164.093 136.35 165.1 137.061 166.141 137.974C168.213 139.789 170.464 142.441 170.997 145.708C171.028 145.898 170.899 146.077 170.71 146.108C170.52 146.139 170.341 146.01 170.31 145.82C169.816 142.791 167.711 140.274 165.682 138.496C164.672 137.611 163.693 136.919 162.967 136.449C162.604 136.214 162.305 136.034 162.097 135.914C161.993 135.854 161.912 135.809 161.858 135.779C161.83 135.764 161.81 135.753 161.796 135.745C161.789 135.742 161.784 135.739 161.781 135.737L161.777 135.735L161.718 135.696C161.593 135.594 161.553 135.414 161.631 135.266Z" fill="#5647C1"/>
<path d="M172.662 142.579C172.63 142.768 172.45 142.896 172.26 142.864C172.071 142.832 171.943 142.652 171.975 142.463L172.662 142.579ZM174.34 130.583C174.53 130.615 174.658 130.795 174.625 130.984L172.662 142.579L172.318 142.521L171.975 142.463L173.939 130.868C173.972 130.679 174.151 130.551 174.34 130.583Z" fill="#5647C1"/>
<path d="M178.762 138.628C178.953 138.612 179.122 138.754 179.138 138.945C179.154 139.136 179.013 139.304 178.822 139.321C177.261 139.455 175.826 140.838 174.712 142.64C173.611 144.424 172.899 146.5 172.734 147.81L172.718 147.879C172.666 148.032 172.512 148.132 172.345 148.112C172.155 148.088 172.019 147.914 172.043 147.724L172.084 147.448C172.318 146.03 173.046 144.014 174.12 142.276C175.254 140.44 176.848 138.793 178.762 138.628Z" fill="#5647C1"/>
<path d="M165.003 137.482C164.819 135.022 162.308 133.878 158.794 134.138C161.084 135.691 162.524 138.168 165.003 137.482Z" fill="#5647C1"/>
<path d="M167.36 140.008C165.418 137.817 162.529 139.124 160.266 139.665C162.657 141.24 166.276 139.59 167.36 140.008Z" fill="#5647C1"/>
<path d="M172.833 138.956C173.102 136.039 176.202 135.387 178.351 134.485C177.355 137.17 173.458 137.979 172.833 138.956Z" fill="#5647C1"/>
<path d="M167.033 131.462C165.695 128.857 167.963 126.644 169.293 124.729C169.891 127.528 167.038 130.301 167.033 131.462Z" fill="#5647C1"/>
<path d="M168.32 136.289C166.624 132.003 162.925 131.29 162.186 129.887C162.507 132.892 166.25 136.633 168.32 136.289Z" fill="#5647C1"/>
<path d="M164.418 126.103C164.524 123.278 164.083 122.208 161.459 121.544C159.416 121.025 156.21 122.459 154.18 122.208C157.984 125.161 162.872 122.767 164.422 126.103H164.418Z" fill="#5647C1"/>
<path d="M171.644 132.176C170.543 130.794 170.697 129.003 171.996 127.793C173.445 126.442 173.617 124.968 173.617 124.968C174.299 127.225 173.582 128.215 172.776 129.359C171.97 130.504 171.503 131.282 171.644 132.176Z" fill="#5647C1"/>
<path d="M171.622 136.119C171.054 134.763 169.456 133.584 168.566 132.818C169.381 136.585 171.622 136.119 171.622 136.119Z" fill="#5647C1"/>
<path d="M170.244 142.125C170.244 142.125 169.883 139.555 170.882 137.892C171.596 139.863 170.244 142.125 170.244 142.125Z" fill="#5647C1"/>
<path d="M176.885 139.701C177.792 138.719 178.237 136.906 178.792 136.871C179.382 137.131 179.197 137.602 179.197 137.602C179.197 137.602 180.231 137.87 179.897 138.961C180.302 139.828 180.152 140.356 176.88 139.705L176.885 139.701Z" fill="#5647C1"/>
<path d="M173.912 133.1C174.577 132.233 175.907 130.921 175.907 130.921C175.907 130.921 175.63 130.292 175.075 130.534C174.74 129.795 173.983 129.87 173.763 130.314C173.173 129.87 172.829 130.406 172.829 130.406L173.912 133.1Z" fill="#5647C1"/>
<path d="M170.847 128.153C171.208 127.124 172.058 125.46 172.058 125.46C172.058 125.46 171.6 124.95 171.147 125.35C170.601 124.752 169.905 125.06 169.83 125.548C169.13 125.311 168.971 125.927 168.971 125.927L170.843 128.149L170.847 128.153Z" fill="#5647C1"/>
<path d="M170.693 146.032C169.703 144.866 168.298 142.657 168.298 142.657C168.298 142.657 167.355 142.851 167.523 143.683C166.413 143.92 166.29 144.981 166.831 145.412C166.048 146.09 166.682 146.719 166.682 146.719L170.698 146.032H170.693Z" fill="#5647C1"/>
<path d="M173.216 155.141L174.361 149.812H171.539H171.503H168.676L169.821 155.141L165.818 163.929L167.439 173.113H171.503H171.539H175.603L177.224 163.929L173.216 155.141Z" fill="#5647C1"/>
<path d="M33.8905 173.195H29.9272L33.8861 115.021H40.6543L33.8905 173.195Z" fill="#5647C1"/>
<path d="M76.1604 173.195H80.1236L76.1648 115.021H69.3965L76.1604 173.195Z" fill="#5647C1"/>
<path d="M85.9144 114.188H24.1323V146.602H85.9144V114.188Z" fill="#FFB24E"/>
<path d="M90.0887 110.162H19.9619V115.02H90.0887V110.162Z" fill="#FFB24E"/>
<path d="M22.4149 173.195H18.4517L22.4061 115.021H29.1788L22.4149 173.195Z" fill="#FFB24E"/>
<path d="M87.6364 173.195H91.5997L87.6452 115.021H80.8726L87.6364 173.195Z" fill="#FFB24E"/>
<path d="M86.1608 114.803C86.2738 114.803 86.3658 114.894 86.3658 115.007C86.3658 115.12 86.2738 115.211 86.1608 115.211H23.89C23.777 115.211 23.6855 115.12 23.6855 115.007C23.6855 114.894 23.777 114.803 23.89 114.803H86.1608Z" fill="#5647C1"/>
<path d="M80.8387 114.73C80.9791 114.713 81.1076 114.799 81.15 114.929L81.1631 114.986L84.8353 146.573C84.8539 146.733 84.7392 146.878 84.5789 146.897C84.4184 146.916 84.273 146.8 84.2544 146.64L80.5816 115.054L80.5811 114.994C80.5929 114.859 80.6984 114.746 80.8387 114.73Z" fill="#5647C1"/>
<path d="M29.2022 114.817C29.3144 114.83 29.395 114.931 29.3821 115.043L25.7093 146.63C25.6963 146.742 25.5948 146.823 25.4826 146.81C25.3703 146.797 25.2897 146.695 25.3026 146.583L28.9754 114.997C28.9885 114.884 29.0899 114.804 29.2022 114.817Z" fill="#5647C1"/>
<path d="M80.2471 127.635L80.2882 127.639C80.3815 127.658 80.4516 127.74 80.4516 127.839C80.4516 127.938 80.3815 128.02 80.2882 128.039L80.2471 128.043H29.8041C29.691 128.043 29.5996 127.952 29.5996 127.839C29.5996 127.726 29.691 127.635 29.8041 127.635H80.2471Z" fill="#5647C1"/>
<path d="M82.1846 140.449C82.2976 140.449 82.3896 140.54 82.3896 140.653C82.3896 140.766 82.2976 140.857 82.1846 140.857H27.8666C27.7535 140.857 27.6621 140.766 27.6621 140.653C27.6621 140.54 27.7535 140.449 27.8666 140.449H82.1846Z" fill="#5647C1"/>
<path d="M56.6767 120.886C56.6766 119.974 55.9361 119.234 55.023 119.234C54.1101 119.234 53.3695 119.974 53.3694 120.886C53.3694 121.799 54.11 122.539 55.023 122.539C55.9362 122.539 56.6767 121.799 56.6767 120.886ZM57.0862 120.886C57.0862 122.025 56.1625 122.948 55.023 122.948C53.8836 122.948 52.9604 122.025 52.9604 120.886C52.9605 119.748 53.8837 118.825 55.023 118.825C56.1625 118.825 57.0861 119.748 57.0862 120.886Z" fill="#5647C1"/>
<path d="M56.6767 134.862C56.6766 133.949 55.9361 133.209 55.023 133.209C54.1101 133.209 53.3695 133.949 53.3694 134.862C53.3694 135.775 54.11 136.514 55.023 136.514C55.9362 136.514 56.6767 135.775 56.6767 134.862ZM57.0862 134.862C57.0862 136 56.1625 136.923 55.023 136.923C53.8836 136.923 52.9604 136 52.9604 134.862C52.9605 133.724 53.8837 132.801 55.023 132.801C56.1625 132.801 57.0861 133.724 57.0862 134.862Z" fill="#5647C1"/>
<path d="M124.347 173.194H119.672L114.997 145.107H119.672L124.347 173.194Z" fill="#5647C1"/>
<path d="M159.56 173.194H154.89L150.215 145.107H154.89L159.56 173.194Z" fill="#5647C1"/>
<path d="M95.4888 173.194H100.164L104.839 145.107H100.164L95.4888 173.194Z" fill="#5647C1"/>
<path d="M60.2754 173.194H64.9457L69.6207 145.107H64.9457L60.2754 173.194Z" fill="#5647C1"/>
<path d="M97.1908 148.825H64.1647C61.3475 148.825 59.0476 146.573 58.9818 143.763L58.4785 121.217C58.3327 114.6 63.6615 109.152 70.2836 109.152H105.299L97.1861 148.825H97.1908Z" fill="#F9E0B2"/>
<path d="M102.477 148.825H69.4513C66.6341 148.825 64.3342 146.573 64.2684 143.763L63.7651 121.217C63.6193 114.6 68.9481 109.152 75.5702 109.152H110.586L102.473 148.825H102.477Z" fill="#FFB24E"/>
<path d="M165.257 118.929H103.617L112.219 82.6221C112.181 77.3112 113.258 72.4045 115.685 67.9959C115.85 62.8824 116.899 57.9804 119.151 53.3697C119.142 48.4113 120.257 43.5327 122.618 38.7435L123.53 34.8848C125.078 28.3519 131.032 22.6274 138.148 20.7615C152.041 17.1238 165.074 17.1238 177.246 20.7615C183.478 22.6274 186.718 28.3519 185.171 34.8848L165.253 118.934L165.257 118.929Z" fill="#F9E0B2"/>
<path d="M150.272 148.824H72.88C69.0328 148.824 66.0698 145.436 66.5871 141.629L67.2926 136.426C68.6518 126.41 77.2117 118.938 87.3284 118.938H157.322L150.267 148.829L150.272 148.824Z" fill="#F9E0B2"/>
<path d="M114.24 123.478L107.081 122.524C107.081 122.524 106.959 126.533 105.257 128.991C105.007 133.696 101.898 139.049 101.898 139.049C101.898 139.049 101.964 145.854 99.1235 148.468L101.108 119.723H109.663L114.244 123.483L114.24 123.478Z" fill="#FFB24E"/>
<path d="M75.1795 126.951C72.2024 129.663 72.4658 132.713 74.4505 133.879C77.6252 135.74 84.7694 128.535 84.7694 128.535L75.1795 126.951Z" fill="#FFB24E"/>
<path d="M174.306 38.4424L174.366 38.4481C174.503 38.4761 174.607 38.5976 174.607 38.7429C174.607 38.8882 174.503 39.0096 174.366 39.0377L174.306 39.0434H124.569C124.402 39.0434 124.268 38.909 124.268 38.7429C124.268 38.5768 124.402 38.4424 124.569 38.4424H174.306Z" fill="#FFB24E"/>
<path d="M171.789 53.0732C171.955 53.0732 172.091 53.2077 172.091 53.3737C172.091 53.5398 171.955 53.6742 171.789 53.6742H121.131C120.964 53.6742 120.83 53.5398 120.83 53.3737C120.83 53.2077 120.964 53.0732 121.131 53.0732H171.789Z" fill="#FFB24E"/>
<path d="M168.483 67.6992L168.543 67.7049C168.68 67.7329 168.784 67.8544 168.784 67.9997C168.784 68.1451 168.68 68.2665 168.543 68.2945L168.483 68.3002H118.219C118.053 68.3002 117.918 68.1658 117.918 67.9997C117.918 67.8336 118.053 67.6992 118.219 67.6992H168.483Z" fill="#FFB24E"/>
<path d="M164.25 82.3262C164.416 82.3262 164.551 82.4606 164.551 82.6267C164.551 82.7927 164.416 82.9272 164.25 82.9272H114.645C114.478 82.9272 114.344 82.7927 114.344 82.6267C114.344 82.4606 114.478 82.3262 114.645 82.3262H164.25Z" fill="#FFB24E"/>
<path d="M92.4971 108.419C86.0913 109.453 72.7529 111.737 72.6165 110.266C72.466 108.579 85.5504 107.733 92.3089 106.643L92.4971 108.419Z" fill="#5647C1"/>
<path d="M76.6615 106.643L78.2935 117.218C78.2935 117.218 77.1036 119.474 74.3193 122.501C71.535 125.527 70.2416 129.315 72.612 131.144C75.1188 133.08 79.4411 130.284 82.1078 127.623C83.7445 125.988 86.5524 122.402 88.4713 119.887C89.7741 118.177 90.2585 115.977 89.7882 113.876L87.7658 104.819L76.6568 106.648L76.6615 106.643Z" fill="#4DA276"/>
<path d="M81.3696 105.872L76.6616 106.648L77.2025 110.158C80.2878 108.894 87.0087 107.362 87.0087 107.362L81.3649 105.877L81.3696 105.872Z" fill="#5647C1"/>
<g style="mix-blend-mode:overlay" opacity="0.46">
<path d="M79.5115 119.169C79.4833 119.169 79.4551 119.164 79.4268 119.155C79.3046 119.108 79.2434 118.971 79.2904 118.849L79.6902 117.806C79.9113 117.228 79.9771 116.598 79.8736 115.982L78.7167 109.05C78.6931 108.923 78.7825 108.801 78.9095 108.777C79.0365 108.754 79.1588 108.843 79.1823 108.97L80.3393 115.902C80.4568 116.598 80.3816 117.312 80.1276 117.97L79.7278 119.014C79.6902 119.108 79.6009 119.164 79.5068 119.164L79.5115 119.169Z" fill="white"/>
</g>
<g style="mix-blend-mode:overlay" opacity="0.46">
<path d="M82.0794 118.539C82.0512 118.539 82.0229 118.534 81.9947 118.525C81.8724 118.478 81.8113 118.342 81.8583 118.219L82.2581 117.181C82.4791 116.603 82.545 115.973 82.4415 115.357L81.2845 108.425C81.261 108.298 81.3504 108.176 81.4774 108.152C81.6043 108.129 81.7266 108.218 81.7501 108.345L82.9071 115.277C83.0247 115.973 82.9495 116.687 82.7002 117.345L82.3004 118.384C82.2628 118.478 82.1734 118.534 82.0794 118.534V118.539Z" fill="white"/>
</g>
<g style="mix-blend-mode:overlay" opacity="0.46">
<path d="M84.6428 117.904C84.6146 117.904 84.5864 117.9 84.5582 117.89C84.4359 117.843 84.3748 117.707 84.4218 117.585L84.8216 116.546C85.0426 115.968 85.1085 115.338 85.005 114.722L83.848 107.79C83.8245 107.663 83.9138 107.541 84.0408 107.517C84.1678 107.494 84.2901 107.583 84.3136 107.71L85.4706 114.643C85.5882 115.338 85.513 116.053 85.2637 116.711L84.8639 117.749C84.8263 117.843 84.7369 117.9 84.6428 117.9V117.904Z" fill="white"/>
</g>
<g style="mix-blend-mode:overlay">
<path d="M78.9521 130.19C80.1044 129.443 81.205 128.526 82.108 127.619C83.7447 125.984 86.5526 122.398 88.4715 119.883C89.7743 118.172 90.2587 115.973 89.7884 113.872L88.0294 105.99L85.8048 105.384C85.8048 105.384 80.9886 122.195 78.9521 130.185V130.19Z" fill="#5647C1"/>
</g>
<g style="mix-blend-mode:overlay" opacity="0.46">
<path d="M73.0069 124.15C71.2008 126.796 70.66 129.635 72.6165 131.144C74.2767 132.427 76.7365 131.633 78.98 130.176C78.9235 126.712 77.0752 124.16 73.0116 124.15H73.0069Z" fill="white"/>
</g>
<path d="M98.0466 155.785V155.8C98.023 155.926 97.9995 156.044 97.976 156.152C97.3834 157.553 93.0282 156.932 90.3145 156.396L90.5261 155.358C94.7449 155.113 98.0136 154.864 98.0466 155.785Z" fill="#5647C1"/>
<path d="M92.8169 151.978L91.0344 162.487C90.8086 163.822 91.0297 165.195 91.6505 166.398C91.7869 166.666 91.9327 166.957 92.0785 167.263C93.1509 169.528 91.4812 172.136 88.9744 172.136H66.6529C64.9879 172.136 64.3201 169.988 65.6981 169.048C68.8493 166.901 73.576 163.958 79.2011 161.345C80.3816 160.8 81.2423 159.738 81.5245 158.469L83.0342 151.696L92.8216 151.974L92.8169 151.978Z" fill="#4DA276"/>
<g style="mix-blend-mode:overlay" opacity="0.46">
<path d="M92.0739 167.262C91.9281 166.957 91.7823 166.666 91.6459 166.398C91.5565 166.228 91.4813 166.055 91.406 165.876C88.57 166.29 86.3877 168.719 86.3877 171.671C86.3877 171.831 86.3971 171.986 86.4112 172.141H88.9651C91.4719 172.141 93.1415 169.533 92.0692 167.267L92.0739 167.262Z" fill="white"/>
</g>
<path d="M82.5638 153.802L81.8301 157.101C86.585 157.562 89.9573 155.395 92.2618 155.259L82.5638 153.802Z" fill="#5647C1"/>
<g style="mix-blend-mode:overlay" opacity="0.46">
<path d="M89.266 161.661C89.266 161.661 89.2284 161.661 89.2096 161.656C89.0779 161.623 88.9979 161.492 89.0308 161.365L90.5171 155.316C90.55 155.184 90.6817 155.104 90.8087 155.137C90.9404 155.17 91.0203 155.302 90.9874 155.429L89.5012 161.477C89.4729 161.59 89.3742 161.661 89.266 161.661Z" fill="white"/>
<path d="M86.19 163.259C86.143 163.259 86.096 163.245 86.0536 163.216C85.9408 163.141 85.9125 162.991 85.9878 162.878L86.2606 162.478C86.6039 161.971 86.8532 161.416 86.999 160.824L88.3535 155.311C88.3864 155.179 88.5181 155.099 88.6451 155.132C88.7768 155.165 88.8568 155.297 88.8238 155.424L87.4693 160.937C87.3094 161.585 87.0366 162.196 86.6651 162.751L86.3923 163.151C86.3452 163.221 86.27 163.259 86.19 163.259Z" fill="white"/>
<path d="M83.4668 163.324C83.4057 163.324 83.3445 163.301 83.3022 163.259C83.2034 163.165 83.1987 163.014 83.2928 162.916L83.5938 162.601C84.3087 161.844 84.8214 160.909 85.0706 159.898L86.1947 155.311C86.2276 155.179 86.3593 155.099 86.4863 155.132C86.618 155.165 86.6979 155.297 86.665 155.424L85.5409 160.011C85.2729 161.106 84.7226 162.112 83.9466 162.93L83.6455 163.245C83.5985 163.296 83.5327 163.32 83.4668 163.32V163.324Z" fill="white"/>
<path d="M81.0211 162.817C80.9506 162.817 80.8801 162.789 80.833 162.728C80.7484 162.624 80.7625 162.469 80.8659 162.384L81.3222 162.008C82.1828 161.299 82.8037 160.307 83.0718 159.226L84.0312 155.311C84.0641 155.179 84.1958 155.099 84.3228 155.132C84.4545 155.165 84.5345 155.297 84.5015 155.424L83.5421 159.339C83.2505 160.523 82.5732 161.604 81.6326 162.38L81.1764 162.756C81.1293 162.793 81.0776 162.812 81.0211 162.812V162.817Z" fill="white"/>
</g>
<path d="M74.0793 170.144H47.9153C47.0711 170.144 46.3867 170.827 46.3867 171.671C46.3867 172.515 47.0711 173.199 47.9153 173.199H74.0793C74.9235 173.199 75.6079 172.515 75.6079 171.671C75.6079 170.827 74.9235 170.144 74.0793 170.144Z" fill="#FFB24E"/>
<path d="M65.9615 173.194C65.9615 173.194 68.8728 165.58 61.3006 162.713C59.5651 162.055 57.6414 162.13 55.9248 162.84L45.7611 167.051C44.6088 167.53 43.8422 168.635 43.7951 169.88C43.7293 171.69 45.1779 173.189 46.9839 173.189H65.9615V173.194Z" fill="#F9E0B2"/>
<path d="M124.856 57.0625C122.955 59.591 123.651 63.0975 127.578 64.2961C135.466 66.7118 139.412 63.0785 139.398 59.5865C156.309 64.5065 161.396 90.2847 158.853 94.2786C154.008 92.3398 147.282 96.6916 145.277 100.702C144.339 102.579 137.331 106.176 137.461 108.913L139.164 109.806L90.8511 95.7153L101.598 72.892C105.704 64.1737 114.033 58.0591 123.633 57.1473C124.037 57.1097 124.442 57.0813 124.856 57.0625Z" fill="#E45B49"/>
<path d="M139.402 59.5828C139.416 63.0748 135.47 66.7079 127.583 64.2921C123.656 63.0936 122.96 59.5875 124.86 57.0589H124.865C125.683 57.0166 126.516 57.0119 127.357 57.0589C125.716 58.5535 126.135 60.974 129.041 61.787C134.21 63.2393 137.413 60.9834 137.135 58.8496C137.907 59.0752 138.664 59.3196 139.402 59.5828Z" fill="#FFB24E"/>
<path d="M127.108 60.7105C126.996 60.593 126.892 60.4708 126.807 60.3486L124.564 62.2474C124.653 62.3743 124.743 62.5012 124.851 62.6234L127.108 60.7152V60.7105Z" fill="#F9E0B2"/>
<path d="M129.258 64.7293L130.001 62.0222C129.851 61.994 129.695 61.947 129.545 61.9141L128.802 64.6259C128.957 64.6635 129.107 64.6964 129.263 64.7293H129.258Z" fill="#F9E0B2"/>
<path d="M128.407 61.5664C128.256 61.5053 128.115 61.4348 127.979 61.3643L126.516 63.8693C126.657 63.9398 126.794 64.0056 126.944 64.0667L128.402 61.5664H128.407Z" fill="#F9E0B2"/>
<path d="M126.836 57.665L124.357 57.8858C124.277 58.0456 124.207 58.21 124.146 58.3744L126.586 58.1583C126.652 57.9892 126.737 57.8248 126.84 57.665H126.836Z" fill="#F9E0B2"/>
<path d="M126.403 58.9901L123.849 60.1415C123.859 60.306 123.877 60.4705 123.906 60.6303L126.45 59.4788C126.417 59.3143 126.398 59.1498 126.403 58.9854V58.9901Z" fill="#F9E0B2"/>
<path d="M139.177 61.0347C139.224 60.8796 139.271 60.7292 139.304 60.5741L137.107 59.5166C137.074 59.6717 137.032 59.8221 136.966 59.9725L139.182 61.0347H139.177Z" fill="#F9E0B2"/>
<path d="M131.685 62.2337C131.529 62.2243 131.37 62.2102 131.214 62.1914L131.313 65.0302C131.473 65.0443 131.628 65.0537 131.783 65.0584L131.685 62.2337Z" fill="#F9E0B2"/>
<path d="M136.445 60.7432C136.336 60.856 136.219 60.9641 136.092 61.0722L138.326 62.6231C138.425 62.5009 138.514 62.3693 138.599 62.2424L136.445 60.7432Z" fill="#F9E0B2"/>
<path d="M134.695 61.8386L136.633 64.0569C136.774 63.977 136.91 63.8924 137.037 63.8078L135.156 61.6553C135.01 61.7211 134.855 61.7822 134.695 61.8433V61.8386Z" fill="#F9E0B2"/>
<path d="M133.383 62.1582C133.227 62.1817 133.063 62.1958 132.903 62.2099L133.9 64.9641C134.06 64.9406 134.215 64.9124 134.37 64.8842L133.387 62.1629L133.383 62.1582Z" fill="#F9E0B2"/>
<path d="M129.042 61.7867C126.135 60.9736 125.716 58.5532 127.358 57.0586C127.885 57.0868 128.421 57.1338 128.952 57.1996C131.595 57.5286 134.427 58.0597 137.136 58.8493C137.413 60.983 134.21 63.239 129.042 61.7867Z" fill="#FFA187"/>
<path d="M137.789 52.4902L137.225 54.5441L135.823 59.6388L128.11 58.4686L129.168 54.6287C132.696 55.705 135.762 54.389 137.789 52.4902Z" fill="#FFA187"/>
<path d="M136.035 53.8953C136.115 53.8201 136.185 53.7402 136.261 53.665C134.351 54.8588 131.896 55.4651 129.168 54.6285L128.703 56.3252C131.684 56.7717 134.262 55.5591 136.035 53.8953Z" fill="#CF553B"/>
<path d="M140.776 45.2898C140.404 46.164 140.221 47.1698 140.136 47.8466C139.13 48.5798 138.659 49.6937 139.064 50.5538C139.111 50.6477 139.163 50.737 139.224 50.8169L138.824 51.3668C138.518 51.7522 138.17 52.1329 137.789 52.4901C135.762 54.3889 132.696 55.7049 129.168 54.6286C129.037 54.5863 128.9 54.544 128.768 54.497C124.404 52.9554 124.183 48.5469 127.094 44.9796L129.065 37.5537H129.069C128.905 39.9695 132.112 39.3726 134.986 37.5537C134.229 40.1998 136.411 41.0928 140.113 40.1998C139.586 41.685 139.718 42.6108 140.776 45.2898Z" fill="#FFA187"/>
<path opacity="0.6" d="M135.452 50.7185C136.182 50.7185 136.774 50.1272 136.774 49.3978C136.774 48.6684 136.182 48.0771 135.452 48.0771C134.722 48.0771 134.13 48.6684 134.13 49.3978C134.13 50.1272 134.722 50.7185 135.452 50.7185Z" fill="#FC4C4C"/>
<path opacity="0.6" d="M128.161 49.3181C128.891 49.3181 129.483 48.7268 129.483 47.9974C129.483 47.268 128.891 46.6768 128.161 46.6768C127.432 46.6768 126.84 47.268 126.84 47.9974C126.84 48.7268 127.432 49.3181 128.161 49.3181Z" fill="#FC4C4C"/>
<path d="M142.144 51.3673C141.265 53.0734 139.746 54.7606 137.225 54.5444L137.789 52.4906C138.17 52.1334 138.518 51.7527 138.824 51.3673L139.223 50.8174C139.774 51.5459 140.959 51.7668 142.144 51.3673Z" fill="#3D3B59"/>
<path d="M143.871 47.5317C143.17 46.9677 141.952 46.9066 140.804 47.4424C140.56 47.5552 140.339 47.6915 140.136 47.8466C140.221 47.1698 140.404 46.1641 140.776 45.2899C139.718 42.6109 139.586 41.685 140.113 40.1998C136.411 41.0928 134.229 40.1998 134.986 37.5538C132.113 39.3726 128.905 39.9695 129.07 37.5538H129.065C127.174 38.9073 121.234 36.5903 124.272 32.6C127.315 28.6004 133.27 28.0693 134.361 32.0031C138.561 30.0856 144.049 30.8798 142.991 35.1098C148.216 35.9041 146.363 39.3726 145.568 40.6933C148.155 41.403 146.533 45.0831 143.871 47.5317Z" fill="#3D3B59"/>
<path d="M132.153 44.2321C132.153 42.759 130.957 41.5647 129.483 41.5647C128.01 41.5647 126.814 42.759 126.814 44.2321C126.814 45.7053 128.01 46.8996 129.483 46.8996C130.957 46.8996 132.153 45.7053 132.153 44.2321ZM132.562 44.2321C132.562 45.9309 131.184 47.308 129.483 47.308C127.783 47.308 126.405 45.9309 126.405 44.2321C126.405 42.5334 127.783 41.1562 129.483 41.1562C131.184 41.1563 132.562 42.5334 132.562 44.2321Z" fill="#3D3B59"/>
<path d="M138.549 45.7126C138.549 44.2394 137.354 43.0452 135.88 43.0452C134.406 43.0452 133.211 44.2394 133.211 45.7126C133.211 47.1858 134.406 48.3801 135.88 48.3801C137.354 48.3801 138.549 47.1858 138.549 45.7126ZM138.958 45.7126C138.958 47.4114 137.58 48.7885 135.88 48.7885C134.18 48.7885 132.802 47.4114 132.802 45.7126C132.802 44.0138 134.18 42.6367 135.88 42.6367C137.58 42.6367 138.958 44.0138 138.958 45.7126Z" fill="#3D3B59"/>
<path d="M133.592 44.0216C133.675 44.0983 133.68 44.2274 133.603 44.3101C133.526 44.3928 133.397 44.3977 133.314 44.321L133.592 44.0216ZM132.279 43.7171C132.768 43.5689 133.219 43.6769 133.592 44.0216L133.452 44.171L133.314 44.321C133.046 44.0738 132.745 44.0028 132.397 44.1083C132.289 44.141 132.175 44.08 132.142 43.972C132.109 43.8641 132.171 43.7499 132.279 43.7171Z" fill="#3D3B59"/>
<path d="M129.175 45.3203C129.29 44.8222 129.113 44.3557 128.779 44.2783C128.445 44.201 128.081 44.5422 127.965 45.0404C127.85 45.5386 128.027 46.0051 128.361 46.0824C128.695 46.1597 129.06 45.8185 129.175 45.3203Z" fill="#5647C1"/>
<path d="M127.99 44.9489C128.127 44.5012 128.466 44.2059 128.779 44.2784L128.84 44.2971C129.134 44.4138 129.283 44.8533 129.175 45.3203L128.605 45.1885C128.626 45.1004 128.627 45.0226 128.621 44.9597C128.588 45.0136 128.556 45.0841 128.535 45.1722C128.515 45.2606 128.513 45.3386 128.519 45.4016C128.552 45.3477 128.585 45.2768 128.605 45.1885L129.175 45.3203L129.15 45.4118C129.014 45.8595 128.674 46.1548 128.361 46.0824C128.027 46.0051 127.85 45.5385 127.965 45.0404L127.99 44.9489Z" fill="#3D3B59"/>
<path d="M135.57 46.8008C135.686 46.3026 135.508 45.8361 135.174 45.7588C134.84 45.6815 134.476 46.0227 134.36 46.5208C134.245 47.019 134.422 47.4855 134.756 47.5628C135.09 47.6401 135.455 47.299 135.57 46.8008Z" fill="#5647C1"/>
<path d="M134.36 46.5208C134.476 46.0227 134.84 45.6815 135.174 45.7588L135.235 45.7775C135.529 45.8943 135.678 46.3337 135.57 46.8008L135 46.6689C135.021 46.5808 135.022 46.503 135.016 46.4402C134.983 46.494 134.951 46.5646 134.93 46.6527C134.91 46.7411 134.908 46.8191 134.914 46.882C134.947 46.8281 134.98 46.7573 135 46.6689L135.57 46.8008L135.545 46.8923C135.409 47.3399 135.069 47.6353 134.756 47.5628C134.422 47.4855 134.245 47.019 134.36 46.5208Z" fill="#3D3B59"/>
<path d="M138.73 46.1629L138.769 46.1778L141.779 47.6627L141.814 47.6849C141.889 47.7432 141.916 47.8479 141.872 47.9365C141.828 48.0251 141.729 48.0679 141.636 48.0437L141.598 48.0295L138.587 46.544L138.553 46.5223C138.477 46.464 138.451 46.3588 138.495 46.2702C138.539 46.1817 138.638 46.1387 138.73 46.1629Z" fill="#3D3B59"/>
<path d="M132.145 46.3992C132.282 46.2018 132.399 45.9997 132.489 45.7553C132.512 45.6848 132.479 45.6049 132.404 45.5767C132.329 45.5485 132.253 45.5861 132.23 45.6613V45.6707C132.159 45.8587 132.042 46.0608 131.92 46.2394C131.793 46.4227 131.651 46.5919 131.496 46.7517C131.181 47.0666 130.824 47.3392 130.433 47.5648C130.4 47.5836 130.377 47.6118 130.367 47.6541C130.353 47.7246 130.396 47.7904 130.466 47.8045H130.48L132.15 48.157C132.159 48.157 132.169 48.157 132.178 48.157C132.31 48.1664 132.423 48.0724 132.432 47.9408C132.442 47.8092 132.348 47.6964 132.216 47.687L130.88 47.5742C131.167 47.3862 131.44 47.1747 131.684 46.935C131.849 46.7658 132.004 46.5825 132.141 46.3898L132.145 46.3992Z" fill="#CF553B"/>
<path d="M129.99 40.3114C130.622 40.3292 131.452 40.485 132.21 41.0458C132.301 41.113 132.321 41.2413 132.253 41.332C132.194 41.4113 132.089 41.436 132.003 41.3959L131.967 41.3742L131.84 41.2853C131.204 40.861 130.52 40.7349 129.978 40.7196C129.69 40.7115 129.444 40.7348 129.27 40.7601C129.184 40.7728 129.116 40.7858 129.071 40.7955C129.048 40.8003 129.031 40.8048 129.02 40.8075C129.014 40.8088 129.01 40.8097 129.008 40.8103C129.007 40.8106 129.005 40.8108 129.005 40.8109C128.896 40.8401 128.784 40.7755 128.754 40.6666C128.725 40.5577 128.79 40.4457 128.899 40.4163H128.899C128.9 40.4162 128.9 40.4159 128.901 40.4157C128.902 40.4154 128.904 40.4151 128.906 40.4146C128.91 40.4135 128.916 40.4118 128.923 40.41C128.938 40.4065 128.959 40.4014 128.985 40.3958C129.039 40.3844 129.115 40.3698 129.211 40.3559C129.403 40.3279 129.673 40.3025 129.99 40.3114Z" fill="#3D3B59"/>
<path d="M136.171 41.7451C136.363 41.7524 136.63 41.7832 136.936 41.8775C137.551 42.0672 138.312 42.5104 138.928 43.505C138.987 43.601 138.957 43.7269 138.861 43.7862C138.765 43.8454 138.639 43.8159 138.579 43.72C138.019 42.8158 137.343 42.431 136.815 42.2682C136.55 42.1862 136.319 42.1598 136.156 42.1536C136.074 42.1505 136.01 42.1527 135.968 42.1553C135.946 42.1566 135.93 42.1577 135.92 42.1587C135.915 42.1592 135.912 42.1596 135.91 42.1598H135.908V42.1604H135.909C135.797 42.1764 135.693 42.0987 135.677 41.987C135.661 41.8752 135.739 41.7715 135.851 41.7554H135.852C135.852 41.7553 135.853 41.7549 135.853 41.7548C135.855 41.7546 135.857 41.7545 135.859 41.7542C135.864 41.7537 135.87 41.7528 135.878 41.752C135.893 41.7503 135.915 41.7485 135.943 41.7468C135.997 41.7435 136.075 41.7415 136.171 41.7451Z" fill="#3D3B59"/>
<path d="M128.366 85.6451C128.464 85.5892 128.589 85.6231 128.645 85.721C128.701 85.8191 128.667 85.944 128.569 85.9999V86.0005C128.568 86.0007 128.567 86.0008 128.567 86.0011C128.566 86.0017 128.564 86.0028 128.562 86.0039C128.558 86.0062 128.552 86.0093 128.545 86.0136C128.529 86.0224 128.506 86.0356 128.475 86.0524C128.414 86.0862 128.323 86.1354 128.206 86.1979C127.972 86.3227 127.629 86.5007 127.197 86.7124C126.333 87.1358 125.107 87.6957 123.662 88.2435C120.865 89.3033 117.225 90.3248 113.776 90.2059L113.443 90.1911L113.402 90.1842C113.31 90.1599 113.245 90.0739 113.25 89.9754C113.257 89.8627 113.353 89.7763 113.466 89.7826L113.792 89.7974C117.16 89.9133 120.739 88.9141 123.516 87.8613C124.948 87.3188 126.162 86.7641 127.017 86.345C127.445 86.1356 127.783 85.9602 128.013 85.8373C128.129 85.7759 128.217 85.7276 128.277 85.6947C128.307 85.6783 128.329 85.6655 128.344 85.6571C128.351 85.653 128.357 85.65 128.361 85.6479C128.362 85.647 128.364 85.6462 128.365 85.6457L128.366 85.6451Z" fill="#FFB24E"/>
<path d="M140.504 80.7283C140.615 80.7496 140.687 80.857 140.666 80.9679V80.9685C140.666 80.9693 140.666 80.9707 140.665 80.9725C140.665 80.9761 140.663 80.9821 140.662 80.9896C140.659 81.0046 140.656 81.0272 140.651 81.0569C140.64 81.1167 140.625 81.206 140.608 81.3216C140.573 81.5527 140.528 81.8897 140.486 82.3113C140.401 83.1555 140.329 84.338 140.38 85.6884C140.482 88.3943 141.077 91.7506 143.025 94.4244C143.091 94.5157 143.071 94.6437 142.979 94.7102C142.899 94.7682 142.791 94.7601 142.721 94.6959L142.694 94.6651L142.509 94.4038C140.64 91.6816 140.071 88.3595 139.971 85.7038C139.919 84.3306 139.992 83.1292 140.078 82.2708C140.121 81.8415 140.167 81.4976 140.203 81.2605C140.221 81.142 140.236 81.0498 140.247 80.9873C140.252 80.9561 140.256 80.9322 140.259 80.916C140.261 80.9081 140.262 80.902 140.263 80.8977C140.263 80.8956 140.264 80.8937 140.264 80.8926V80.8909L140.265 80.8903C140.286 80.7796 140.393 80.7071 140.504 80.7283Z" fill="#FFB24E"/>
<path d="M146.296 66.4706C146.396 66.4183 146.52 66.4568 146.572 66.5568C146.625 66.6568 146.586 66.7799 146.486 66.8323C144.461 67.8919 142.914 70.0409 141.918 72.3492C140.922 74.6575 140.495 77.0826 140.673 78.6556C140.686 78.7677 140.605 78.8693 140.493 78.882C140.381 78.8947 140.279 78.8139 140.266 78.7018C140.077 77.0365 140.528 74.5381 141.542 72.1878C142.557 69.8373 144.154 67.5918 146.296 66.4706Z" fill="#FFB24E"/>
<path d="M137.185 79.3233C137.296 79.3424 137.371 79.4482 137.352 79.5595L137.351 79.5606C137.351 79.5619 137.351 79.564 137.35 79.5669C137.349 79.5727 137.348 79.5817 137.346 79.5937C137.343 79.6178 137.338 79.6544 137.332 79.7015C137.321 79.7957 137.307 79.9332 137.298 80.1031C137.279 80.4436 137.277 80.9125 137.347 81.4271C137.478 82.3965 137.855 83.4993 138.809 84.2321L139.008 84.3735L139.04 84.3998C139.107 84.4671 139.12 84.5746 139.065 84.6571C139.003 84.7512 138.876 84.7769 138.782 84.7147C137.54 83.895 137.088 82.571 136.941 81.4819C136.867 80.9351 136.869 80.4393 136.889 80.0803C136.899 79.9006 136.914 79.7542 136.926 79.6525C136.932 79.6017 136.937 79.5619 136.941 79.5344C136.943 79.5206 136.945 79.5098 136.946 79.5024C136.947 79.4988 136.947 79.4959 136.947 79.4939C136.948 79.4928 136.948 79.4916 136.948 79.491V79.4904L137.15 79.5247C136.957 79.4916 136.948 79.4898 136.948 79.4899C136.967 79.3787 137.073 79.3042 137.185 79.3233Z" fill="#FFB24E"/>
<path d="M105.588 89.1896C105.54 89.2917 105.418 89.3358 105.315 89.2877C105.213 89.2396 105.17 89.1177 105.218 89.0156L105.588 89.1896ZM116.237 63.4677C116.28 63.3632 116.399 63.3124 116.504 63.3548C116.609 63.3973 116.66 63.5166 116.617 63.6212L116.428 63.5442C116.596 63.6127 116.615 63.6203 116.617 63.6212V63.6223C116.616 63.6232 116.616 63.6246 116.615 63.6263C116.613 63.6297 116.611 63.635 116.609 63.6417C116.603 63.6554 116.595 63.6758 116.584 63.7028C116.562 63.7571 116.531 63.8382 116.49 63.9429C116.409 64.1523 116.293 64.4581 116.154 64.842C115.876 65.61 115.506 66.6909 115.135 67.9418C114.392 70.4484 113.655 73.6207 113.655 76.3235C113.655 76.3661 113.641 76.4076 113.617 76.4422L113.616 76.4427L113.616 76.4439C113.615 76.4449 113.613 76.4465 113.612 76.4485C113.609 76.4524 113.605 76.4585 113.6 76.4661C113.588 76.4818 113.572 76.5053 113.55 76.5357C113.506 76.597 113.442 76.6876 113.359 76.8044C113.194 77.0383 112.955 77.3775 112.662 77.7987C112.075 78.6415 111.271 79.8127 110.4 81.125C108.655 83.7533 106.651 86.9369 105.588 89.1896L105.403 89.1023L105.218 89.0156C106.295 86.7329 108.314 83.5266 110.058 80.8991C110.931 79.5837 111.738 78.41 112.326 77.5654C112.62 77.1432 112.859 76.8029 113.025 76.5682C113.108 76.451 113.172 76.3601 113.216 76.2984C113.228 76.2824 113.237 76.2682 113.246 76.2562C113.258 73.5081 114.003 70.3221 114.742 67.826C115.116 66.5656 115.489 65.4767 115.77 64.7028C115.91 64.3159 116.026 64.0076 116.108 63.7958C116.149 63.6898 116.182 63.6076 116.204 63.5522C116.215 63.5245 116.223 63.5031 116.229 63.4888C116.232 63.4819 116.234 63.4765 116.235 63.4729C116.236 63.4712 116.236 63.4698 116.237 63.4689L116.237 63.4677Z" fill="#FFB24E"/>
<path d="M104.015 65.4194L98.4747 64.4841C98.1925 64.4371 97.9244 64.517 97.7174 64.6721L97.6704 64.705C97.6704 64.705 97.6375 64.7332 97.6234 64.7473L96.9414 65.3489H97.3224C97.3177 65.4053 97.3083 65.4664 97.313 65.5275L98.1642 79.3829L105.158 80.5673L105.261 80.9386L105.859 80.4075C106.113 80.2242 106.282 79.9234 106.263 79.5803L105.492 67.0691C105.44 66.2466 104.829 65.5651 104.015 65.4288V65.4194Z" fill="#FFB24E"/>
<path d="M97.7177 64.6723C97.9245 64.5173 98.1924 64.4371 98.4745 64.484L104.015 65.4196V65.4293C104.829 65.5656 105.44 66.2469 105.492 67.0693L106.263 79.5806C106.282 79.9236 106.113 80.2244 105.859 80.4077L105.261 80.9388L105.158 80.5675L98.1643 79.3832L97.3127 65.528C97.308 65.4669 97.3177 65.4053 97.3224 65.3489H96.9414L97.6234 64.7476L97.6703 64.7054L97.7177 64.6723ZM98.3785 65.0608C98.2677 65.0423 98.1589 65.0717 98.0684 65.1395L98.061 65.1452L98.053 65.1509L98.0318 65.1652L98.0244 65.1732L97.9153 65.2684L97.905 65.3973C97.9033 65.4174 97.9017 65.4376 97.9004 65.4504C97.899 65.4652 97.8976 65.4745 97.897 65.4823C97.896 65.4954 97.8967 65.4957 97.8964 65.4886L97.897 65.492L98.7195 78.884L105.256 79.9919L105.416 80.0187L105.47 79.9713L105.492 79.9519L105.516 79.9343C105.627 79.8542 105.686 79.7355 105.679 79.6125L104.908 67.1059C104.873 66.5527 104.462 66.096 103.919 66.0049L103.43 65.9233V65.913L98.3785 65.0608Z" fill="#A991EE"/>
<path d="M104.519 81.1312L98.7951 80.163C98.052 80.0361 97.4923 79.4157 97.4453 78.6637L96.6693 66.0914C96.6316 65.4522 97.196 64.9446 97.8263 65.0527L103.367 65.988C104.18 66.1243 104.792 66.8057 104.843 67.6282L105.615 80.1395C105.652 80.7458 105.116 81.2299 104.514 81.1265L104.519 81.1312Z" fill="#C1B9FF"/>
<path d="M105.483 73.128C105.568 73.3912 105.45 73.6779 105.21 73.8142L101.151 76.0937L105.812 77.4801C106.146 77.5788 106.4 77.8561 106.471 78.1992V78.218C106.56 78.6363 106.362 79.0593 105.981 79.252C105.041 79.7361 103.315 80.5633 102.619 80.5492L106.367 80.7983L106.4 81.0756C106.447 81.4751 106.155 81.837 105.756 81.8793L102.252 82.2271L99.5239 78.3261L99.6556 74.8717L104.702 72.7567C105.022 72.6251 105.384 72.7943 105.488 73.1233L105.483 73.128Z" fill="#5647C1"/>
<path d="M106.151 78.6028C105.351 78.8848 103.945 79.3125 102.247 79.524C102.957 79.7308 104.401 80.1021 105.944 80.2102C106.297 80.2337 106.574 80.5298 106.574 80.887C106.574 81.2442 106.283 81.5591 105.916 81.5685C104.782 81.5967 102.473 81.6155 101.175 81.3241C97.7368 82.6306 94.1059 79.0728 95.3287 76.046C95.6485 75.2611 96.2976 74.6548 97.0689 74.2976C99.604 73.1321 102.078 72.1921 104.42 71.7268C104.815 71.6516 105.21 71.8678 105.375 72.2391C105.422 72.3519 105.445 72.4694 105.445 72.5822C105.445 72.9488 105.21 73.2966 104.839 73.4188C103.136 73.9781 101.749 74.589 100.427 75.5666C101.763 75.5384 103.945 75.4491 105.84 75.1389C106.311 75.059 106.753 75.3739 106.838 75.8392C106.847 75.8909 106.852 75.9426 106.852 75.9943C106.852 76.3844 106.584 76.7322 106.198 76.8309C106.127 76.8497 106.047 76.8685 105.967 76.8873C106.311 76.9625 106.621 77.2492 106.696 77.597V77.6111C106.795 78.0341 106.56 78.4571 106.151 78.6028Z" fill="#FFA187"/>
<path d="M105.919 76.6884C106.029 76.6618 106.14 76.7293 106.167 76.8389C106.193 76.9485 106.125 77.0586 106.016 77.0853C104.84 77.3701 102.735 77.7587 100.163 77.7085L99.6424 77.6925L99.6013 77.6863C99.5089 77.6633 99.4423 77.5779 99.4465 77.4793C99.4514 77.3667 99.5467 77.2795 99.6595 77.2843L100.171 77.2997C102.699 77.3489 104.767 76.9674 105.919 76.6884Z" fill="#CF553B"/>
<path d="M100.423 75.3623C100.536 75.3603 100.629 75.4498 100.632 75.5625C100.634 75.6753 100.544 75.7685 100.431 75.7706C100.043 75.7777 99.7268 75.7792 99.5069 75.7786C99.397 75.7783 99.3112 75.7775 99.2527 75.7769C99.2235 75.7765 99.201 75.776 99.1859 75.7757H99.1624L99.1213 75.7706C99.0284 75.7498 98.9601 75.6658 98.962 75.567C98.9642 75.4543 99.0575 75.3647 99.1704 75.3669H99.1756C99.1792 75.367 99.1848 75.3674 99.1921 75.3675C99.2068 75.3677 99.2286 75.3677 99.2573 75.368C99.3146 75.3687 99.3993 75.3695 99.508 75.3698C99.7255 75.3703 100.039 75.3694 100.423 75.3623Z" fill="#CF553B"/>
<path d="M102.222 79.3209C102.335 79.3072 102.436 79.3869 102.45 79.4988C102.464 79.6108 102.384 79.7131 102.272 79.7268C101.769 79.7885 101.241 79.8361 100.698 79.8551C100.585 79.8591 100.49 79.7706 100.486 79.6579C100.482 79.5451 100.57 79.4504 100.683 79.4463C101.212 79.4278 101.728 79.3814 102.222 79.3209Z" fill="#CF553B"/>
<path d="M113.041 99.9878C107.749 102.775 98.0937 105.665 92.7509 106.572C92.6051 106.596 92.4593 106.619 92.3088 106.643C85.5502 107.733 72.4658 108.579 72.6163 110.267C71.6004 103.969 66.4504 68.4841 78.8622 65.3868C94.1242 61.5799 107.115 87.876 113.041 99.9878Z" fill="#7D56FF"/>
<path d="M93.1936 102.413C88.7584 103.386 76.0785 103.099 71.9961 105.976C72.2454 107.879 72.4758 109.369 72.6169 110.267C72.4664 108.579 85.5508 107.733 92.3093 106.643C92.4598 106.62 92.6057 106.596 92.7515 106.573C93.2171 106.493 93.7297 106.394 94.2565 106.286L93.1936 102.413Z" fill="white"/>
<path d="M85.6774 103.193C85.1741 104.683 84.6897 106.183 84.21 107.691C87.1307 107.343 90.0702 107.01 92.3089 106.648C92.4594 106.624 92.6052 106.601 92.751 106.577C98.0939 105.67 107.75 102.78 113.041 99.9927C112.773 99.4428 112.49 98.8647 112.194 98.2631C109.353 96.5899 106.555 95.1894 103.879 94.2635C96.3772 91.6738 88.2124 95.6782 85.6774 103.193Z" fill="#5647C1"/>
<path d="M94.2512 106.286L93.1882 102.413C91.5374 102.775 88.739 102.963 85.6678 103.207C85.1645 104.693 84.6801 106.187 84.2051 107.691C84.2145 107.691 84.2286 107.691 84.238 107.691C85.0281 107.597 85.8136 107.503 86.5943 107.409C86.8295 107.381 87.0646 107.353 87.2998 107.325C87.4127 107.31 87.5256 107.296 87.6384 107.282C87.8595 107.254 88.0758 107.231 88.2922 107.202C88.3957 107.188 88.4991 107.179 88.6026 107.165C88.913 107.127 89.2187 107.085 89.5197 107.047C89.5338 107.047 89.5526 107.047 89.5668 107.043C89.849 107.005 90.1217 106.967 90.3945 106.93C90.4839 106.916 90.5685 106.906 90.6579 106.892C90.8649 106.864 91.0671 106.836 91.2693 106.803C91.3493 106.789 91.4339 106.779 91.5139 106.765C91.7867 106.723 92.0501 106.685 92.304 106.643C92.4545 106.62 92.6003 106.596 92.7461 106.573C93.0048 106.53 93.2776 106.479 93.5551 106.422C93.7808 106.38 94.0113 106.333 94.2465 106.286H94.2512Z" fill="#7D56FF"/>
<path d="M87.7233 80.3531C87.8201 80.3327 87.9156 80.3844 87.9535 80.4717L87.966 80.5111L88.2802 81.9572C89.8758 89.1251 91.7862 95.4003 92.4842 102.393C92.4953 102.505 92.4133 102.605 92.3008 102.616C92.1884 102.627 92.0882 102.545 92.0769 102.433C91.3815 95.4667 89.4846 89.2535 87.8815 82.0502L87.565 80.5955L87.561 80.5544C87.5604 80.4594 87.6265 80.3735 87.7233 80.3531Z" fill="#5647C1"/>
<path d="M91.3908 79.4465C91.5037 79.4509 91.5917 79.5459 91.5873 79.6587V79.6627C91.5872 79.6649 91.5869 79.6682 91.5867 79.6724C91.5863 79.681 91.5858 79.694 91.585 79.7106C91.5833 79.744 91.5804 79.7935 91.5764 79.8566C91.5684 79.9829 91.5555 80.1657 91.5347 80.3923C91.4932 80.8452 91.421 81.4748 91.2988 82.1818C91.0555 83.5892 90.6091 85.3304 89.7908 86.5908C89.7293 86.6856 89.6024 86.7127 89.5075 86.6513C89.4127 86.5899 89.3855 86.4631 89.447 86.3684C90.2184 85.1801 90.6538 83.507 90.895 82.1122C91.0149 81.4181 91.0861 80.7995 91.1269 80.3546C91.1472 80.1324 91.1602 79.9537 91.168 79.8309C91.1719 79.7695 91.1744 79.7219 91.176 79.69C91.1768 79.6741 91.1774 79.6621 91.1777 79.6541C91.1779 79.6501 91.1776 79.6469 91.1777 79.645C91.1777 79.6442 91.1783 79.6437 91.1783 79.6433V79.6427C91.1828 79.5299 91.2778 79.442 91.3908 79.4465Z" fill="#5647C1"/>
<path d="M93.4438 82.1523C93.5551 82.1711 93.6303 82.2761 93.6118 82.3873V82.3879L93.6112 82.3884C93.6111 82.389 93.6113 82.3898 93.6112 82.3907C93.6109 82.3927 93.6101 82.3956 93.6095 82.3993C93.6082 82.4067 93.6063 82.4178 93.6038 82.4318C93.5986 82.46 93.5909 82.5016 93.5803 82.5544C93.5593 82.6601 93.5268 82.8123 93.4821 83C93.3928 83.3752 93.2533 83.8939 93.052 84.4672C92.6519 85.6068 91.9982 86.9928 90.9871 87.8882L90.9534 87.9122C90.8709 87.9598 90.7638 87.9445 90.6981 87.8705C90.6231 87.786 90.6307 87.6568 90.7152 87.5819L90.8866 87.4221C91.7241 86.5951 92.2969 85.3824 92.6659 84.3314C92.8614 83.7745 92.9971 83.2702 93.084 82.9053C93.1274 82.723 93.1586 82.5758 93.1788 82.4746C93.1889 82.424 93.1963 82.3844 93.2011 82.3582C93.2034 82.3453 93.2051 82.3356 93.2062 82.3291C93.2068 82.3259 93.2071 82.3232 93.2074 82.3217L93.2079 82.32C93.2267 82.2086 93.3323 82.1336 93.4438 82.1523Z" fill="#5647C1"/>
<path d="M142.859 109.928L134.431 128.291C128.975 127.154 114.005 123.887 105.257 120.668C104.848 121.786 104.368 122.811 103.818 123.563C104.787 129.024 100.643 137.484 100.643 137.484C100.643 137.484 101.438 144.976 98.4374 149.737C98.475 152.609 98.2822 154.536 98.047 155.791C98.0141 154.869 94.7454 155.118 90.5266 155.363C85.6446 155.645 79.4834 155.922 75.6079 154.362C78.5898 137.118 82.5264 120.607 87.7705 105.078C90.3055 97.5629 98.4703 93.5586 105.972 96.1482C118.718 100.552 133.307 105.473 142.859 109.928Z" fill="#7D56FF"/>
<path d="M94.7557 153.508C94.7284 153.618 94.6169 153.685 94.5072 153.657C94.3977 153.63 94.3309 153.519 94.3581 153.41L94.7557 153.508ZM108.966 110.864L134.693 118.107C134.802 118.137 134.865 118.25 134.835 118.359C134.808 118.454 134.718 118.515 134.623 118.508L134.582 118.5L108.969 111.289C108.931 111.323 108.883 111.366 108.821 111.413C108.659 111.535 108.412 111.693 108.062 111.848C107.389 112.145 106.337 112.426 104.78 112.418C104.674 113.846 104.331 115.972 103.704 117.957C103.376 118.996 102.968 120.003 102.471 120.853C102 121.66 101.442 122.339 100.785 122.766C100.866 125.245 100.418 128.108 99.656 130.606C99.2686 131.875 98.7987 133.055 98.2737 134.045C97.7823 134.971 97.2368 135.742 96.656 136.263C97.7667 138.914 97.2902 142.046 96.5469 144.502C96.1673 145.757 95.715 146.846 95.3577 147.621C95.179 148.009 95.024 148.319 94.9133 148.532C94.858 148.639 94.8137 148.722 94.7831 148.778C94.7767 148.789 94.7706 148.8 94.7654 148.81C94.7671 148.835 94.7696 148.869 94.7722 148.909C94.779 149.011 94.7882 149.157 94.7985 149.337C94.8192 149.695 94.8437 150.186 94.8602 150.709C94.8767 151.231 94.8852 151.789 94.8728 152.284C94.8604 152.774 94.8275 153.22 94.7557 153.508L94.5569 153.459L94.3581 153.41C94.418 153.169 94.4509 152.764 94.4632 152.274C94.4754 151.79 94.4676 151.24 94.4512 150.721C94.4348 150.203 94.41 149.717 94.3895 149.361C94.3793 149.183 94.3699 149.037 94.3633 148.936C94.3599 148.885 94.3577 148.846 94.3558 148.819C94.3549 148.806 94.354 148.795 94.3536 148.788C94.3533 148.785 94.3531 148.783 94.353 148.781V148.749C94.3552 148.719 94.3637 148.689 94.3787 148.663L94.3793 148.662C94.3797 148.661 94.3806 148.66 94.3815 148.658C94.3834 148.655 94.3864 148.65 94.3901 148.643C94.3976 148.63 94.4087 148.609 94.4232 148.583C94.4526 148.529 94.4954 148.448 94.5495 148.344C94.6576 148.136 94.8101 147.832 94.9859 147.45C95.3375 146.687 95.7823 145.616 96.1551 144.383C96.9038 141.909 97.3489 138.83 96.2225 136.288C96.1857 136.205 96.209 136.107 96.2791 136.049C96.8451 135.577 97.4005 134.818 97.9121 133.853C98.4223 132.891 98.8825 131.737 99.2641 130.487C100.028 127.984 100.47 125.116 100.372 122.664C100.369 122.589 100.408 122.519 100.472 122.48C101.091 122.108 101.64 121.465 102.118 120.647C102.594 119.831 102.991 118.855 103.314 117.834C103.959 115.792 104.298 113.595 104.384 112.2L104.391 112.16C104.415 112.071 104.497 112.006 104.593 112.008C106.206 112.04 107.256 111.757 107.897 111.474C108.217 111.333 108.436 111.191 108.573 111.087C108.641 111.035 108.689 110.993 108.719 110.965C108.734 110.951 108.744 110.94 108.75 110.934C108.753 110.931 108.755 110.928 108.756 110.927H108.756L108.756 110.928C108.808 110.868 108.89 110.843 108.966 110.864Z" fill="#ADA2EB"/>
<path d="M105.445 120.744C105.4 120.848 105.28 120.896 105.176 120.851C105.072 120.807 105.024 120.686 105.069 120.583L105.445 120.744ZM107.061 109.278C107.173 109.267 107.273 109.349 107.285 109.461L107.071 109.483C107.075 109.482 107.078 109.482 107.082 109.482L107.285 109.462L107.286 109.463C107.286 109.463 107.286 109.465 107.286 109.466C107.286 109.469 107.286 109.474 107.287 109.479C107.288 109.491 107.29 109.507 107.291 109.529C107.295 109.572 107.3 109.636 107.306 109.719C107.317 109.886 107.33 110.129 107.338 110.437C107.355 111.054 107.352 111.934 107.273 112.99C107.116 115.101 106.656 117.921 105.445 120.744L105.257 120.663L105.069 120.583C106.257 117.813 106.709 115.042 106.865 112.96C106.942 111.92 106.945 111.053 106.929 110.448C106.921 110.145 106.908 109.908 106.897 109.747C106.892 109.666 106.887 109.605 106.884 109.564C106.882 109.543 106.881 109.528 106.88 109.517C106.879 109.512 106.879 109.508 106.878 109.506C106.878 109.505 106.878 109.504 106.878 109.504C106.866 109.391 106.948 109.29 107.061 109.278Z" fill="#5647C1"/>
<path d="M112.459 113.764C112.516 113.666 112.641 113.633 112.739 113.69C112.824 113.739 112.861 113.841 112.83 113.932L112.813 113.969L112.812 113.97C112.812 113.971 112.812 113.972 112.811 113.973L112.787 114.013C112.771 114.04 112.746 114.079 112.714 114.13C112.649 114.231 112.553 114.377 112.425 114.557C112.17 114.917 111.788 115.413 111.283 115.966C110.273 117.07 108.763 118.402 106.766 119.298C106.663 119.345 106.541 119.299 106.495 119.196C106.449 119.093 106.495 118.972 106.598 118.925C108.528 118.059 109.995 116.768 110.981 115.69C111.473 115.152 111.844 114.668 112.091 114.32C112.215 114.146 112.307 114.005 112.369 113.909C112.399 113.861 112.423 113.825 112.438 113.8C112.445 113.788 112.451 113.778 112.454 113.772C112.456 113.769 112.458 113.767 112.458 113.766L112.459 113.764Z" fill="#5647C1"/>
<path d="M76.1768 151.128C75.984 152.204 75.7912 153.28 75.603 154.357C79.4785 155.917 85.6397 155.64 90.5217 155.358C94.7405 155.113 98.0092 154.864 98.0421 155.785C98.2021 154.939 98.3384 153.774 98.3996 152.228C93.1978 150.615 81.4303 153.012 76.1721 151.123L76.1768 151.128Z" fill="white"/>
<path d="M92.3323 170.144H66.1682C65.324 170.144 64.6396 170.827 64.6396 171.671C64.6396 172.515 65.324 173.199 66.1682 173.199H92.3323C93.1765 173.199 93.8608 172.515 93.8608 171.671C93.8608 170.827 93.1765 170.144 92.3323 170.144Z" fill="#F8F6FF"/>
<path d="M84.2193 173.194C84.2193 173.194 87.1306 165.58 79.5584 162.713C77.8229 162.055 75.8993 162.13 74.1826 162.84L64.0189 167.051C62.8666 167.53 62.1 168.635 62.0529 169.88C61.9871 171.69 63.4357 173.189 65.2417 173.189H84.2193V173.194Z" fill="#F8F6FF"/>
<path d="M142.572 51.1935C142.431 51.2593 142.285 51.3157 142.144 51.3674C140.959 51.7669 139.774 51.546 139.224 50.8175C139.162 50.7376 139.111 50.6483 139.064 50.5543C138.659 49.6942 139.13 48.5803 140.136 47.8471C140.338 47.692 140.559 47.5557 140.804 47.4429C141.951 46.9071 143.17 46.9682 143.87 47.5322C144.059 47.6779 144.209 47.8659 144.313 48.0821C144.802 49.1208 144.021 50.512 142.572 51.1935Z" fill="#FFA187"/>
<path d="M133.414 49.1401C133.512 49.0694 133.649 49.0913 133.72 49.1892C133.791 49.2871 133.769 49.4239 133.671 49.4948C133.367 49.7146 132.809 49.9579 132.22 50.0519C131.672 50.1394 131.045 50.1052 130.575 49.7394L130.483 49.6619L130.453 49.6288C130.393 49.5463 130.398 49.4301 130.469 49.3523C130.541 49.2744 130.657 49.2603 130.744 49.3129L130.78 49.3397L130.844 49.3939C131.174 49.6506 131.652 49.6989 132.151 49.6191C132.68 49.5346 133.172 49.315 133.414 49.1401Z" fill="#CF553B"/>
<path d="M140.117 49.6549C140.083 49.771 139.962 49.8385 139.846 49.8055C139.729 49.7723 139.662 49.6508 139.695 49.5345L140.117 49.6549ZM141.579 48.2533C142.004 48.1371 142.453 48.0821 142.836 48.1437C143.198 48.2021 143.533 48.3722 143.697 48.721L143.728 48.7935L143.739 48.8363C143.755 48.9368 143.699 49.0384 143.6 49.0759C143.501 49.1133 143.391 49.0742 143.337 48.988L143.318 48.9481L143.284 48.8773C143.196 48.7192 143.025 48.6178 142.766 48.5761C142.467 48.528 142.086 48.5684 141.694 48.6754C141.305 48.7818 140.924 48.9493 140.629 49.1375C140.482 49.2315 140.36 49.3277 140.271 49.4204C140.181 49.5148 140.134 49.5949 140.117 49.6549L139.906 49.5944L139.695 49.5345C139.739 49.3807 139.837 49.2402 139.954 49.1175C140.074 48.9931 140.225 48.8755 140.392 48.7684C140.728 48.5541 141.151 48.3701 141.579 48.2533Z" fill="#CF553B"/>
<path d="M141.497 49.7539V48.4476C141.497 48.3266 141.595 48.2285 141.716 48.2285C141.838 48.2285 141.936 48.3266 141.936 48.4476V49.7539C141.936 49.8749 141.838 49.973 141.716 49.973C141.595 49.973 141.497 49.8749 141.497 49.7539Z" fill="#CF553B"/>
<path d="M111.621 122.73C120.016 125.193 130.151 127.397 134.431 128.286L142.859 109.923C136.741 107.07 128.552 104.02 120.105 101.045C123.957 108.344 116.404 120.775 111.621 122.726V122.73Z" fill="#5647C1"/>
<path d="M185.612 34.8837L179.149 62.1574C176.327 74.0765 171.93 85.5678 166.074 96.326L163.53 101.007V101.017L161.649 104.462C160.078 107.352 157.049 109.152 153.752 109.152H147.332C150.624 109.152 153.658 107.352 155.229 104.462L160.647 94.5024C165.844 84.9521 169.748 74.7533 172.254 64.1784L179.196 34.8837C180.744 28.3554 177.503 22.6262 171.271 20.7603C166.183 19.2423 160.948 18.3587 155.563 18.1096C163.234 17.7571 170.608 18.6407 177.691 20.7603C183.923 22.6262 187.164 28.3554 185.616 34.8837H185.612Z" fill="#FFB24E"/>
<path d="M135.506 109.305H147.231L153.093 108.914L153.875 106.177H135.897L135.506 109.305Z" fill="#FFB24E"/>
<path d="M138.212 109.152C131.755 109.152 126.05 113.096 123.684 118.933C123.388 119.661 123.143 120.423 122.955 121.212L117.828 142.846C117.104 145.896 119.418 148.825 122.56 148.825H116.14C112.998 148.825 110.684 145.896 111.408 142.846L116.535 121.212C116.723 120.423 116.968 119.661 117.264 118.933C119.63 113.096 125.335 109.152 131.792 109.152H138.212Z" fill="#FFB24E"/>
<path d="M165.875 96.2413L163.331 100.922V100.932L161.449 104.377C159.878 107.267 156.85 109.067 153.553 109.067H138.018C131.56 109.067 125.855 113.011 123.49 118.848C123.193 119.577 122.949 120.338 122.761 121.128L117.634 142.761C116.91 145.812 119.224 148.74 122.365 148.74H152.513C155.975 148.74 158.98 146.366 159.775 143.001L165.499 118.848L178.263 65.6016L178.113 65.9588C175.291 76.4772 171.091 86.6675 165.88 96.246L165.875 96.2413Z" fill="#F9E0B2"/>
<path d="M150.358 90.5362C152.91 89.8068 156.318 90.4104 157.811 90.7433C158.271 90.8459 158.605 91.2312 158.652 91.6998C158.969 94.8489 158.834 98.0216 158.565 101.156C157.934 108.522 149.967 107.349 141.369 106.567C141.379 106.552 142.493 104.754 142.541 103.83C142.597 102.763 142.252 101.156 142.252 101.156C143.324 100.857 145.499 99.3175 147.196 98.1241L146.45 93.2732C146.466 93.247 147.641 91.3129 150.358 90.5362Z" fill="#FFA187"/>
<path d="M135.691 98.1638C138.998 98.0322 142.271 99.2636 142.77 102.041C143.268 104.819 141.942 108.649 134.934 108.156L135.696 98.1685L135.691 98.1638Z" fill="#FFA187"/>
<path d="M136.383 99.4004C136.383 99.4004 137.728 99.4615 138.175 101.44L136.115 102.211L136.388 99.4004H136.383Z" fill="white"/>
<path d="M138.741 100.816C138.815 100.732 138.943 100.723 139.028 100.797C139.114 100.871 139.123 101 139.049 101.086V101.086L139.044 101.091C139.041 101.094 139.038 101.098 139.034 101.102C139.025 101.111 139.014 101.122 138.999 101.136C138.97 101.164 138.926 101.202 138.866 101.249C138.746 101.343 138.559 101.471 138.285 101.618C137.737 101.911 136.837 102.278 135.412 102.598L135.371 102.604C135.276 102.605 135.189 102.54 135.167 102.444C135.142 102.334 135.212 102.224 135.322 102.2L135.821 102.08C136.929 101.798 137.646 101.496 138.092 101.257C138.347 101.121 138.513 101.006 138.614 100.928C138.664 100.888 138.698 100.858 138.718 100.839C138.728 100.83 138.735 100.823 138.738 100.819C138.74 100.818 138.741 100.817 138.741 100.816Z" fill="#CF553B"/>
<path d="M138.741 102.673C138.815 102.589 138.943 102.58 139.028 102.653C139.114 102.727 139.123 102.857 139.049 102.942V102.943L139.044 102.948C139.041 102.95 139.038 102.954 139.034 102.959C139.025 102.967 139.014 102.979 138.999 102.993C138.97 103.021 138.926 103.059 138.866 103.106C138.746 103.2 138.559 103.328 138.285 103.474C137.737 103.767 136.837 104.134 135.412 104.455L135.371 104.46C135.276 104.462 135.189 104.397 135.167 104.3C135.142 104.19 135.212 104.081 135.322 104.056L135.821 103.936C136.929 103.654 137.646 103.352 138.092 103.114C138.347 102.978 138.513 102.862 138.614 102.784C138.664 102.745 138.698 102.714 138.718 102.696C138.728 102.686 138.735 102.679 138.738 102.676C138.74 102.674 138.741 102.673 138.741 102.673Z" fill="#CF553B"/>
<path d="M138.741 104.529C138.815 104.445 138.943 104.436 139.028 104.51C139.114 104.584 139.123 104.713 139.049 104.798V104.799L139.044 104.804C139.041 104.807 139.038 104.811 139.034 104.815C139.025 104.823 139.014 104.835 138.999 104.849C138.97 104.877 138.926 104.915 138.866 104.962C138.746 105.056 138.559 105.184 138.285 105.331C137.737 105.623 136.837 105.991 135.412 106.311L135.371 106.316C135.276 106.318 135.189 106.253 135.167 106.157C135.142 106.047 135.212 105.937 135.322 105.913L135.821 105.793C136.929 105.511 137.646 105.208 138.092 104.97C138.347 104.834 138.513 104.719 138.614 104.64C138.664 104.601 138.698 104.571 138.718 104.552C138.728 104.543 138.735 104.536 138.738 104.532C138.74 104.53 138.741 104.53 138.741 104.529Z" fill="#CF553B"/>
<path d="M138.741 106.39C138.815 106.307 138.943 106.298 139.028 106.371C139.114 106.445 139.123 106.574 139.049 106.66V106.66L139.044 106.665C139.041 106.668 139.038 106.672 139.034 106.676C139.025 106.685 139.014 106.697 138.999 106.711C138.97 106.739 138.926 106.777 138.866 106.823C138.746 106.917 138.559 107.046 138.285 107.192C137.737 107.485 136.837 107.852 135.412 108.173L135.371 108.178C135.276 108.18 135.189 108.114 135.167 108.018C135.142 107.908 135.212 107.799 135.322 107.774L135.821 107.654C136.929 107.372 137.646 107.07 138.092 106.831C138.347 106.695 138.513 106.58 138.614 106.502C138.664 106.463 138.698 106.432 138.718 106.413C138.728 106.404 138.735 106.397 138.738 106.393C138.74 106.392 138.741 106.391 138.741 106.39Z" fill="#CF553B"/>
<path d="M126.313 96.8291H136.068C136.552 96.8291 136.943 97.2192 136.943 97.7033V105.308C136.943 108.485 134.365 111.056 131.191 111.056C128.011 111.056 125.438 108.48 125.438 105.308V97.7033C125.438 97.2192 125.829 96.8291 126.313 96.8291Z" fill="white"/>
<path opacity="0.34" d="M136.068 96.8291H134.878C135.362 96.8291 135.753 97.2192 135.753 97.7033V105.308C135.753 108.283 133.49 110.732 130.593 111.028C130.791 111.046 130.988 111.061 131.191 111.061C134.37 111.061 136.943 108.485 136.943 105.312V97.708C136.943 97.2239 136.552 96.8338 136.068 96.8338V96.8291Z" fill="#ADA2EB"/>
<path d="M150.609 96.2985C151.737 96.0662 152.84 96.0635 153.524 96.2004C153.635 96.2227 153.707 96.3305 153.685 96.4411C153.663 96.5518 153.555 96.6235 153.444 96.6014C152.825 96.4776 151.779 96.4751 150.692 96.699C149.605 96.9229 148.509 97.3668 147.767 98.1091C147.687 98.189 147.557 98.1893 147.477 98.1097C147.397 98.03 147.397 97.9004 147.477 97.8205C148.298 96.999 149.482 96.5307 150.609 96.2985Z" fill="#CF553B"/>
<path d="M127.636 89.6541C127.69 89.502 127.857 89.4222 128.009 89.4756C128.162 89.529 128.242 89.6959 128.189 89.8481C128.128 90.0211 128.1 90.272 128.106 90.56C128.111 90.8432 128.148 91.1395 128.199 91.3894C128.311 91.9404 128.328 92.5774 128.069 93.042C127.888 93.3682 127.733 93.939 127.845 94.4442C127.917 94.7644 127.94 95.0758 127.946 95.3045C127.949 95.4194 127.948 95.5151 127.946 95.5828C127.945 95.6167 127.944 95.6438 127.943 95.6627C127.942 95.6721 127.942 95.6796 127.941 95.685C127.941 95.6875 127.941 95.6897 127.941 95.6912V95.6947L127.931 95.7528C127.894 95.8835 127.769 95.9748 127.628 95.9645C127.467 95.9526 127.346 95.8122 127.358 95.6513V95.6479C127.358 95.6446 127.358 95.6391 127.359 95.6319C127.36 95.6172 127.361 95.5943 127.362 95.5652C127.363 95.5069 127.364 95.4225 127.362 95.3204C127.356 95.1145 127.335 94.8428 127.274 94.5709C127.123 93.8917 127.326 93.1744 127.558 92.758C127.713 92.48 127.73 92.017 127.626 91.5058C127.569 91.2247 127.528 90.8932 127.522 90.5714C127.515 90.2545 127.542 89.9228 127.636 89.6541Z" fill="white"/>
<path d="M129.931 89.6541C129.985 89.502 130.152 89.4222 130.304 89.4756C130.457 89.529 130.537 89.6959 130.484 89.8481C130.423 90.0211 130.395 90.272 130.401 90.56C130.406 90.8432 130.443 91.1395 130.494 91.3894C130.606 91.9404 130.623 92.5774 130.364 93.042C130.183 93.3682 130.028 93.939 130.14 94.4442C130.212 94.7644 130.235 95.0758 130.241 95.3045C130.244 95.4194 130.243 95.5151 130.241 95.5828C130.24 95.6167 130.238 95.6438 130.237 95.6627C130.237 95.6721 130.237 95.6796 130.236 95.685C130.236 95.6875 130.236 95.6897 130.236 95.6912V95.6947L130.225 95.7528C130.188 95.8835 130.064 95.9748 129.923 95.9645C129.762 95.9526 129.641 95.8122 129.653 95.6513V95.6479C129.653 95.6446 129.653 95.6391 129.654 95.6319C129.655 95.6172 129.656 95.5943 129.657 95.5652C129.658 95.5069 129.659 95.4225 129.657 95.3204C129.651 95.1145 129.63 94.8428 129.569 94.5709C129.418 93.8917 129.621 93.1744 129.853 92.758C130.008 92.48 130.025 92.017 129.921 91.5058C129.864 91.2247 129.823 90.8932 129.817 90.5714C129.81 90.2545 129.837 89.9228 129.931 89.6541Z" fill="white"/>
<path d="M132.227 89.6541C132.28 89.502 132.447 89.4222 132.6 89.4756C132.752 89.529 132.833 89.6959 132.779 89.8481C132.718 90.0211 132.691 90.272 132.696 90.56C132.702 90.8432 132.738 91.1395 132.789 91.3894C132.902 91.9404 132.919 92.5774 132.66 93.042C132.478 93.3682 132.323 93.939 132.436 94.4442C132.507 94.7644 132.53 95.0758 132.536 95.3045C132.539 95.4194 132.538 95.5151 132.536 95.5828C132.535 95.6167 132.534 95.6438 132.533 95.6627C132.532 95.6721 132.532 95.6796 132.532 95.685C132.532 95.6875 132.531 95.6897 132.531 95.6912V95.6947L132.521 95.7528C132.484 95.8835 132.359 95.9748 132.218 95.9645C132.057 95.9526 131.936 95.8122 131.948 95.6513V95.6479C131.948 95.6446 131.949 95.6391 131.949 95.6319C131.95 95.6172 131.951 95.5943 131.952 95.5652C131.954 95.5069 131.955 95.4225 131.952 95.3204C131.946 95.1145 131.925 94.8428 131.865 94.5709C131.714 93.8917 131.916 93.1744 132.148 92.758C132.303 92.48 132.321 92.017 132.216 91.5058C132.159 91.2247 132.118 90.8932 132.112 90.5714C132.106 90.2545 132.132 89.9228 132.227 89.6541Z" fill="white"/>
<path d="M134.522 89.6541C134.576 89.502 134.743 89.4222 134.895 89.4756C135.048 89.529 135.128 89.6959 135.074 89.8481C135.014 90.0211 134.986 90.272 134.992 90.56C134.997 90.8432 135.034 91.1395 135.085 91.3894C135.197 91.9404 135.214 92.5774 134.955 93.042C134.773 93.3682 134.619 93.939 134.731 94.4442C134.802 94.7644 134.826 95.0758 134.832 95.3045C134.835 95.4194 134.834 95.5151 134.832 95.5828C134.831 95.6167 134.829 95.6438 134.828 95.6627C134.828 95.6721 134.827 95.6796 134.827 95.685C134.827 95.6875 134.827 95.6897 134.827 95.6912V95.6947L134.816 95.7528C134.779 95.8835 134.654 95.9748 134.514 95.9645C134.352 95.9526 134.232 95.8122 134.243 95.6513V95.6479C134.244 95.6446 134.244 95.6391 134.245 95.6319C134.245 95.6172 134.247 95.5943 134.247 95.5652C134.249 95.5069 134.25 95.4225 134.247 95.3204C134.242 95.1145 134.22 94.8428 134.16 94.5709C134.009 93.8917 134.212 93.1744 134.444 92.758C134.599 92.48 134.616 92.017 134.512 91.5058C134.455 91.2247 134.414 90.8932 134.407 90.5714C134.401 90.2545 134.428 89.9228 134.522 89.6541Z" fill="white"/>
<path d="M29.7861 98.5873C29.7861 94.0088 34.2686 90.7616 38.6242 92.1948L46.565 94.8029V102.372L38.6242 104.98C34.27 106.407 29.7862 103.167 29.7861 98.5873ZM31.0439 98.5873C31.044 102.312 34.6898 104.947 38.2313 103.786L45.3072 101.462V95.7117L38.2313 93.3882L38.2307 93.3876C34.6906 92.2228 31.0439 94.8621 31.0439 98.5873Z" fill="#D6D4F6"/>
<path d="M48.5414 90.6066H46.3127L45.7927 87.7802C45.6972 87.2447 46.1058 86.7568 46.647 86.7568H48.2018C48.743 86.7568 49.1569 87.25 49.0561 87.7802L48.5361 90.6066H48.5414Z" fill="#D6D4F6"/>
<path opacity="0.34" d="M45.9995 88.8936L46.3126 90.6063H48.5413L48.8543 88.8936H45.9995Z" fill="#7050D1"/>
<path d="M57.5142 100.252C56.4742 97.2191 55.1848 94.1913 53.6353 91.1582H41.2184C39.669 94.1913 38.3795 97.2191 37.3395 100.252C36.0182 104.107 38.8996 108.111 42.9748 108.111H51.8789C55.9542 108.111 58.8302 104.107 57.5142 100.252Z" fill="#D6D4F6"/>
<path d="M53.5611 89.4453H41.2981C40.8233 89.4453 40.4385 89.8287 40.4385 90.3017C40.4385 90.7746 40.8233 91.1581 41.2981 91.1581H53.5611C54.0358 91.1581 54.4207 90.7746 54.4207 90.3017C54.4207 89.8287 54.0358 89.4453 53.5611 89.4453Z" fill="#D6D4F6"/>
<path opacity="0.34" d="M53.6358 91.1582H41.2189C40.4389 92.6854 39.7225 94.2178 39.0698 95.745C44.0843 91.3014 53.6305 91.1582 53.6305 91.1582H53.6358Z" fill="#7050D1"/>
<path d="M53.6352 104.097C53.6352 101.281 53.6352 103.317 53.6352 102.686C53.6617 102.686 53.7201 102.686 53.7519 102.686C56.4316 102.808 58.8832 100.958 59.7003 98.4231L61.4143 94.006C62.0564 91.9221 63.6005 91.0525 65.7018 91.3123V92.4523C64.0622 92.4258 63.2503 92.8872 62.8948 94.5045C62.5923 95.4748 61.531 99.3988 61.1702 100.274C59.971 103.302 56.888 105.401 53.6352 105.502C53.6352 104.876 53.6352 106.907 53.6299 104.097H53.6352Z" fill="#D6D4F6"/>
<path d="M60.0296 107.92H33.7897C33.2886 107.92 32.8823 108.326 32.8823 108.827V109.251C32.8823 109.752 33.2886 110.158 33.7897 110.158H60.0296C60.5308 110.158 60.937 109.752 60.937 109.251V108.827C60.937 108.326 60.5308 107.92 60.0296 107.92Z" fill="#CED3FF"/>
<path d="M184.185 173.122C184.347 173.122 184.478 173.253 184.478 173.414C184.478 173.575 184.347 173.706 184.185 173.706L1.81589 173.706C1.65437 173.706 1.52344 173.575 1.52344 173.414C1.52344 173.253 1.65437 173.122 1.81589 173.122L184.185 173.122Z" fill="#5647C1"/>
<path d="M114.71 40.6072C112.24 40.9416 111.966 41.2145 111.632 43.6831C111.297 41.2145 111.024 40.9416 108.554 40.6072C111.024 40.2728 111.297 39.9999 111.632 37.5312C111.966 39.9999 112.24 40.2728 114.71 40.6072Z" fill="white"/>
<path d="M154.919 74.9754C152.448 75.3098 152.175 75.5826 151.841 78.0513C151.506 75.5826 151.233 75.3098 148.763 74.9754C151.233 74.6409 151.506 74.3681 151.841 71.8994C152.175 74.3681 152.448 74.6409 154.919 74.9754Z" fill="white"/>
<path d="M6.57172 91.323C4.10131 91.6575 3.82829 91.9303 3.49362 94.399C3.15895 91.9303 2.88593 91.6575 0.415527 91.323C2.88593 90.9886 3.15895 90.7157 3.49362 88.2471C3.82829 90.7157 4.10131 90.9886 6.57172 91.323Z" fill="white"/>
<path d="M19.038 54.0291C16.5676 54.3635 16.2946 54.6363 15.9599 57.105C15.6253 54.6363 15.3522 54.3635 12.8818 54.0291C15.3522 53.6946 15.6253 53.4218 15.9599 50.9531C16.2946 53.4218 16.5676 53.6946 19.038 54.0291Z" fill="white"/>
<path d="M163.621 153.071C161.15 153.405 160.877 153.678 160.542 156.147C160.208 153.678 159.935 153.405 157.464 153.071C159.935 152.737 160.208 152.464 160.542 149.995C160.877 152.464 161.15 152.737 163.621 153.071Z" fill="white"/>
<path d="M56.6584 40.3178C55.8777 41.5016 54.44 42.0467 52.9071 41.7681C49.2073 41.104 42.2821 39.1975 42.6894 34.2631C43.2398 27.555 50.0975 33.2109 50.0975 33.2109C50.0975 33.2109 50.0061 24.7327 55.3154 26.5317C59.9313 28.0901 59.6092 35.8458 56.6551 40.3254L56.6584 40.3178Z" fill="#E45B49"/>
<path d="M48.5829 39.6897C48.6152 39.6271 48.6866 39.5976 48.752 39.6159L48.7798 39.627L49.1164 39.7919C50.8127 40.5841 52.6609 40.8706 54.3333 40.6066C54.413 40.594 54.4879 40.648 54.5007 40.7275C54.5134 40.8072 54.459 40.8822 54.3793 40.8948C52.6439 41.1689 50.7368 40.8712 48.9926 40.0566L48.6459 39.8865L48.6211 39.8705C48.5681 39.8279 48.5507 39.7525 48.5829 39.6897Z" fill="#3D3B59"/>
<g style="mix-blend-mode:soft-light" opacity="0.5">
<path d="M53.8268 27.0981C54.5437 27.0338 55.3163 27.331 55.9584 27.8057C56.5755 28.2652 57.1194 28.9676 57.1268 29.6815C57.1318 29.8996 57.0793 30.1154 56.9314 30.2495C56.7182 30.441 56.3762 30.4194 56.0592 30.3502C55.2451 30.1701 54.4444 29.7394 53.6344 29.696C53.2293 29.6743 52.7568 29.736 52.4252 29.3456C52.2183 29.0944 52.0724 28.6807 52.1413 28.3955C52.313 27.7048 53.1317 27.1537 53.8192 27.0948L53.8268 27.0981Z" fill="white"/>
</g>
<path d="M97.9933 38.1117C100.301 44.8863 95.7125 50.4546 88.9291 52.759C82.1398 55.0629 75.5172 52.9458 73.2099 46.1712C70.9025 39.3967 74.8394 33.6935 81.6228 31.3891C88.4062 29.0848 95.6832 31.3339 97.9906 38.1085L97.9933 38.1117Z" fill="#FFB24E"/>
<path d="M78.8039 44.3458C79.0214 44.9816 78.6436 45.7143 77.6504 46.0508C76.6573 46.3872 75.6742 46.1426 75.4567 45.5068C75.2393 44.871 75.699 44.4318 76.6921 44.0954C77.6852 43.7589 78.5865 43.71 78.8039 44.3458Z" fill="#E45B49"/>
<path d="M96.2697 38.4161C96.4872 39.0519 96.1094 39.7846 95.1163 40.1211C94.1231 40.4575 93.14 40.2129 92.9226 39.5771C92.7051 38.9413 93.1648 38.5021 94.1579 38.1657C95.151 37.8292 96.0523 37.7803 96.2697 38.4161Z" fill="#E45B49"/>
<path d="M82.7584 39.868C82.8917 39.5893 83.1616 39.377 83.463 39.3167C83.8805 39.2285 84.3333 39.4127 84.7337 39.2663C85.1466 39.1148 85.3731 38.6596 85.7522 38.4308C86.1812 38.1754 86.7697 38.264 87.1433 38.5956C87.5168 38.9272 87.6783 39.4602 87.6111 39.9564C87.5438 40.4526 87.2754 40.905 86.9124 41.2488C86.3373 41.794 85.5281 42.0772 84.7339 42.0105C83.7396 41.927 82.1791 41.0847 82.7556 39.8648L82.7584 39.868Z" fill="#3D3B59"/>
<path d="M84.7364 42.0139C85.5246 42.0802 86.3371 41.7943 86.915 41.2523C87.0787 41.0986 87.2202 40.9194 87.3326 40.7262C87.2539 40.6038 87.1597 40.4894 87.0431 40.3944C86.6083 40.0375 85.9707 39.9636 85.443 40.1702C84.918 40.3799 84.5137 40.8439 84.3388 41.3777C84.2818 41.5507 84.2543 41.7318 84.2416 41.9168C84.4125 41.9646 84.5814 41.9972 84.7336 42.0107L84.7364 42.0139Z" fill="#E45B49"/>
<path d="M80.3569 40.6565C80.423 40.8037 80.3569 40.9766 80.2096 41.0426C80.0624 41.1087 79.8896 41.0429 79.8234 40.8959L80.3569 40.6565ZM76.3157 40.3142C76.5721 39.833 77.0148 39.4988 77.513 39.337C78.5118 39.0125 79.778 39.3698 80.3569 40.6565L80.0899 40.776L79.8234 40.8959C79.3789 39.9079 78.4373 39.6509 77.6937 39.8924C77.3209 40.0136 77.0085 40.2578 76.832 40.5892C76.658 40.916 76.6017 41.3549 76.7875 41.899C76.8395 42.0516 76.7577 42.2177 76.6048 42.2697C76.452 42.3217 76.2857 42.2399 76.2336 42.0872C76.0021 41.4091 76.0568 40.8002 76.3157 40.3142Z" fill="#3D3B59"/>
<path d="M93.1765 36.333C93.2286 36.4857 93.1467 36.6517 92.9938 36.7037C92.841 36.7557 92.6752 36.6743 92.623 36.5217L93.1765 36.333ZM89.0357 37.7124C88.7076 36.3383 89.4915 35.2834 90.4815 34.9323C90.9751 34.7573 91.53 34.7528 92.0273 34.9782C92.5293 35.2057 92.945 35.6549 93.1765 36.333L92.8995 36.4271L92.623 36.5217C92.4372 35.9775 92.1237 35.6638 91.7857 35.5106C91.4431 35.3553 91.0464 35.3522 90.6771 35.4831C89.9411 35.7442 89.3528 36.5204 89.605 37.5765L89.3201 37.6442L89.0357 37.7124ZM89.605 37.5765C89.6424 37.7334 89.5451 37.8913 89.388 37.9287C89.231 37.966 89.0733 37.8691 89.0357 37.7124L89.605 37.5765Z" fill="#3D3B59"/>
<path d="M108.804 37.3455C108.207 37.3455 107.646 37.1235 107.207 36.7205C106.745 36.2882 106.476 35.7099 106.453 35.079C106.406 33.7822 107.418 32.6899 108.722 32.6373C110.026 32.5906 111.12 33.6011 111.167 34.8979C111.19 35.5288 110.968 36.1247 110.541 36.5861C110.114 37.0476 109.529 37.3163 108.903 37.3397C108.874 37.3397 108.839 37.3397 108.81 37.3397L108.804 37.3455ZM108.81 33.0929C108.81 33.0929 108.763 33.0929 108.734 33.0929C107.687 33.1338 106.868 34.0159 106.909 35.0615C106.927 35.5697 107.143 36.037 107.517 36.3817C107.892 36.7263 108.383 36.9016 108.88 36.884C109.389 36.8665 109.857 36.6504 110.202 36.2765C110.547 35.9027 110.728 35.4237 110.705 34.9155C110.664 33.8932 109.822 33.0929 108.81 33.0929Z" fill="#4DA276"/>
<path d="M61.9999 58.811C61.5168 58.811 61.2674 59.1499 60.921 59.6673C60.6088 60.1334 60.1993 60.7779 59.365 60.7779C58.5311 60.7779 58.1207 60.1342 57.8079 59.6678C57.4605 59.1499 57.2111 58.811 56.7301 58.811C56.2494 58.811 56.0008 59.1493 55.6545 59.6673C55.3428 60.1335 54.9338 60.7778 54.0997 60.7779C53.2655 60.7779 52.8561 60.1336 52.5444 59.6673C52.1981 59.1493 51.9495 58.811 51.4688 58.811C50.9881 58.811 50.7396 59.1493 50.3932 59.6673C50.0815 60.1335 49.6725 60.7778 48.8384 60.7779C48.0042 60.7779 47.5949 60.1336 47.2831 59.6673C46.9368 59.1493 46.6882 58.811 46.2075 58.811V58.2383C47.04 58.2383 47.4481 58.8839 47.7595 59.3495C48.1053 59.8668 48.3554 60.2058 48.8384 60.2058C49.3214 60.2057 49.5711 59.8667 49.9169 59.3495C50.2282 58.8839 50.6363 58.2383 51.4688 58.2383C52.3013 58.2383 52.7094 58.8839 53.0207 59.3495C53.3666 59.8668 53.6166 60.2058 54.0997 60.2058C54.5827 60.2057 54.8324 59.8667 55.1782 59.3495C55.4895 58.8839 55.8976 58.2383 56.7301 58.2383C57.5623 58.2383 57.972 58.8833 58.2843 59.349C58.6313 59.8662 58.8817 60.2058 59.365 60.2058C59.8482 60.2058 60.0975 59.8664 60.444 59.349C60.7562 58.8828 61.1657 58.2383 61.9999 58.2383V58.811Z" fill="#FFB24E"/>
<path d="M71.4608 19.2015C71.3669 19.2015 71.2865 19.1256 71.2865 19.0319L71.2284 16.7641C71.2284 16.6659 71.2999 16.5856 71.3982 16.5856C71.5055 16.5856 71.577 16.6615 71.577 16.7552L71.6351 19.0229C71.6351 19.1211 71.5636 19.2015 71.4653 19.2015H71.4608Z" fill="#7D56FF"/>
<path d="M68.6582 18.1301C68.6136 18.1301 68.5733 18.1123 68.5376 18.081C68.466 18.0141 68.466 17.9025 68.5331 17.8355L70.0975 16.1883C70.1646 16.1169 70.2763 16.1169 70.3434 16.1838C70.4149 16.2508 70.4149 16.3624 70.3478 16.4293L68.7834 18.0766C68.7476 18.1123 68.7029 18.1301 68.6582 18.1301Z" fill="#7D56FF"/>
<path d="M67.438 15.3892C67.3441 15.3892 67.2637 15.3178 67.2637 15.2196C67.2637 15.1214 67.3352 15.041 67.4335 15.041L69.7042 14.983H69.7087C69.8025 14.983 69.883 15.0589 69.883 15.1526C69.883 15.2508 69.8115 15.3312 69.7131 15.3312L67.4425 15.3892H67.438Z" fill="#7D56FF"/>
<path d="M70.1601 14.1527C70.1154 14.1527 70.0752 14.1348 70.0394 14.1036L68.3901 12.5412C68.3185 12.4742 68.3185 12.3626 68.3856 12.2957C68.4526 12.2243 68.5644 12.2243 68.6314 12.2912L70.2808 13.8536C70.3523 13.9206 70.3523 14.0322 70.2853 14.0991C70.2495 14.1348 70.2048 14.1527 70.1601 14.1527Z" fill="#7D56FF"/>
<path d="M71.3133 13.6393C71.2194 13.6393 71.139 13.5635 71.139 13.4697L71.0809 11.202C71.0809 11.1038 71.1524 11.0234 71.2507 11.0234H71.2552C71.3491 11.0234 71.4295 11.0993 71.4295 11.1931L71.4876 13.4608C71.4876 13.559 71.4161 13.6393 71.3178 13.6393H71.3133Z" fill="#7D56FF"/>
<path d="M72.4933 14.0947C72.4486 14.0947 72.4084 14.0768 72.3726 14.0456C72.3011 13.9786 72.3011 13.867 72.3682 13.8L73.9326 12.1528C73.9997 12.0814 74.1114 12.0814 74.1784 12.1484C74.25 12.2153 74.25 12.3269 74.1829 12.3939L72.6185 14.0411C72.5827 14.0768 72.538 14.0947 72.4933 14.0947Z" fill="#7D56FF"/>
<path d="M73.0074 15.2464C72.9135 15.2464 72.833 15.1705 72.833 15.0767C72.833 14.9785 72.9046 14.8982 73.0029 14.8982L75.2735 14.8402C75.3898 14.8402 75.4523 14.916 75.4523 15.0098C75.4523 15.108 75.3808 15.1883 75.2825 15.1883L73.0118 15.2464H73.0074Z" fill="#7D56FF"/>
<path d="M74.2053 17.9828C74.1606 17.9828 74.1203 17.965 74.0846 17.9337L72.4352 16.3713C72.3637 16.3043 72.3637 16.1927 72.4308 16.1258C72.4978 16.0544 72.6051 16.0544 72.6766 16.1213L74.3259 17.6837C74.3975 17.7507 74.3975 17.8623 74.3304 17.9292C74.2947 17.965 74.25 17.9828 74.2053 17.9828Z" fill="#7D56FF"/>
<path d="M98.027 18.0552C98.1812 16.8633 97.9788 15.6571 97.4632 14.5736C96.6984 12.9709 95.7643 10.312 96.3516 7.78182C97.393 3.27662 102.177 -0.271145 106.998 1.28359C114.179 3.5999 113.775 9.93517 112.113 12.5847C110.601 14.9925 108.194 16.8962 106.756 17.8966C105.927 18.4725 105.26 19.2543 104.804 20.1578L104.233 21.2873L97.8565 19.3791L98.027 18.0552Z" fill="#D6D4F6"/>
<path d="M101.654 6.59941C101.868 6.58539 102.061 6.65044 102.216 6.78931C102.362 6.92051 102.455 7.10087 102.516 7.29186C102.577 7.48491 102.613 7.70982 102.631 7.9535C102.664 8.40754 102.633 8.96592 102.564 9.58196C103.3 9.84461 104.204 10.0681 105.217 10.2296C105.376 9.84655 105.538 9.50157 105.702 9.21709C105.897 8.8801 106.117 8.58742 106.366 8.43449L106.367 8.43442C106.827 8.15296 107.287 8.17797 107.648 8.40389C107.992 8.61888 108.22 8.99799 108.294 9.38773C108.368 9.78089 108.293 10.2281 107.97 10.5575C107.645 10.8881 107.126 11.0443 106.43 10.9749C106.144 10.9467 105.864 10.9133 105.589 10.8756C105.239 11.7919 104.899 12.9054 104.598 14.001C104.279 15.1649 104.004 16.3018 103.81 17.1481C103.713 17.571 103.635 17.9213 103.582 18.1655C103.556 18.2875 103.536 18.3831 103.522 18.4481C103.515 18.4806 103.51 18.5056 103.506 18.5222C103.505 18.5305 103.504 18.5369 103.503 18.541C103.502 18.5431 103.502 18.5447 103.502 18.5457L103.502 18.5469L103.501 18.5469C103.469 18.7049 103.314 18.8064 103.156 18.7738C102.998 18.7412 102.896 18.5868 102.929 18.4289L102.929 18.4283L102.929 18.4271C102.929 18.426 102.929 18.4244 102.93 18.4224C102.931 18.4181 102.932 18.4114 102.934 18.403C102.937 18.386 102.943 18.3605 102.95 18.3277C102.964 18.2618 102.985 18.1651 103.011 18.0421C103.065 17.7958 103.142 17.4429 103.239 17.0171C103.435 16.166 103.712 15.0208 104.034 13.8464C104.325 12.7896 104.654 11.7038 104.998 10.7855C104.066 10.6308 103.213 10.4224 102.488 10.1735C102.412 10.6992 102.313 11.2533 102.201 11.8106C101.906 13.2776 101.516 14.8003 101.2 15.9543C101.042 16.5318 100.902 17.0182 100.802 17.3601C100.752 17.5308 100.712 17.6656 100.684 17.7579C100.67 17.804 100.659 17.8397 100.652 17.8638C100.648 17.8758 100.645 17.885 100.643 17.8911C100.643 17.8942 100.642 17.8967 100.641 17.8983C100.641 17.899 100.641 17.8997 100.64 17.9001L100.641 17.9007C100.64 17.9006 100.629 17.8969 100.361 17.8144C100.089 17.7309 100.082 17.7289 100.082 17.7288C100.082 17.7284 100.082 17.7271 100.082 17.7264C100.083 17.7249 100.083 17.7226 100.084 17.7199C100.086 17.714 100.089 17.7053 100.092 17.6936C100.1 17.6702 100.11 17.6351 100.124 17.5896C100.151 17.4985 100.191 17.3649 100.241 17.1953C100.34 16.8562 100.479 16.3733 100.636 15.7997C100.95 14.6519 101.337 13.1439 101.628 11.6954C101.749 11.0922 101.851 10.5046 101.926 9.96122C101.593 9.8228 101.296 9.67613 101.044 9.5198C100.495 9.17983 100.07 8.74841 100.034 8.22575C99.9955 7.68151 100.384 7.21291 101.028 6.82402C101.24 6.69568 101.45 6.61276 101.654 6.59941ZM100.641 17.9007C100.593 18.0548 100.43 18.141 100.275 18.0936C100.121 18.0462 100.034 17.883 100.082 17.7288L100.641 17.9007ZM107.338 8.89895C107.171 8.79432 106.949 8.76315 106.673 8.93229C106.555 9.00471 106.395 9.18756 106.209 9.50989C106.079 9.73325 105.947 10.0052 105.814 10.3156C106.035 10.3442 106.259 10.3708 106.487 10.3934L106.696 10.4067C107.154 10.4166 107.414 10.2895 107.552 10.1483C107.711 9.98578 107.766 9.74782 107.719 9.49622C107.67 9.24103 107.523 9.01461 107.338 8.89895ZM101.692 7.18252C101.617 7.18745 101.499 7.22195 101.33 7.32399C100.738 7.68185 100.603 7.98243 100.617 8.18522C100.633 8.40953 100.836 8.70336 101.352 9.02324C101.539 9.13899 101.756 9.25092 101.999 9.35843C102.053 8.83516 102.075 8.37047 102.048 7.99517C102.032 7.77883 102.001 7.60354 101.959 7.46953C101.915 7.33341 101.866 7.25942 101.825 7.22298C101.793 7.19423 101.756 7.17833 101.692 7.18252Z" fill="#5647C1"/>
<path d="M98.6195 22.8517C98.6195 22.8517 98.212 24.2421 98.5015 24.6659C98.791 25.0898 101.364 25.8896 101.886 25.6563C102.411 25.4265 102.762 23.9874 102.762 23.9874L98.6195 22.8517Z" fill="#5647C1"/>
<path d="M97.5405 21.258C97.5405 21.258 97.3588 22.3152 97.5941 22.9187C97.8294 23.5221 102.651 24.9346 103.316 24.7479C103.976 24.5616 104.421 23.1195 104.421 23.1195L97.5405 21.258Z" fill="#B3A7E9"/>
<path d="M97.5583 17.0013C97.1478 18.0926 96.8301 19.6461 96.7253 21.1988C96.7069 21.4491 96.8455 21.6933 97.0718 21.8091C99.5072 23.0543 102.038 23.658 104.512 24.0082C104.761 24.0427 105.012 23.9272 105.144 23.7109C105.866 22.5091 106.399 21.2146 106.635 19.7768C106.681 19.4956 106.523 19.2144 106.261 19.0987C103.708 17.9616 101.056 17.096 98.2728 16.5961C97.9706 16.5402 97.671 16.7126 97.5622 17.0009L97.5583 17.0013Z" fill="#B3A7E9"/>
<path d="M104.089 23.8676C104.129 23.8737 104.157 23.9109 104.151 23.9507C104.145 23.9904 104.107 24.0178 104.067 24.012L104.089 23.8676ZM97.5166 21.9437C99.6713 22.9797 101.898 23.5334 104.089 23.8676L104.078 23.9395L104.067 24.012C101.867 23.6764 99.6254 23.1192 97.4536 22.075C97.4172 22.0575 97.4019 22.0142 97.4194 21.9779C97.4369 21.9415 97.4803 21.9263 97.5166 21.9437Z" fill="#5647C1"/>
<path d="M97.3914 17.3476L97.4483 17.3629L98.0001 17.5707C100.581 18.5282 103.25 19.2957 105.997 19.8681L106.587 19.9877L106.644 20.0047C106.77 20.0572 106.845 20.1922 106.818 20.3306C106.79 20.4691 106.669 20.5657 106.533 20.5666L106.475 20.5607L105.878 20.4402C103.103 19.8619 100.405 19.0864 97.7966 18.1186L97.2388 17.9086L97.1863 17.8819C97.0715 17.8088 97.0199 17.6629 97.0705 17.531C97.1211 17.3991 97.2571 17.3252 97.3914 17.3476Z" fill="#5647C1"/>
<path d="M96.8595 18.3325C96.9174 18.2037 97.0572 18.1373 97.1899 18.167L97.2462 18.1859L97.7153 18.3905C100.102 19.4 103.089 20.2142 106.357 20.8409C106.515 20.8713 106.62 21.0245 106.59 21.183C106.559 21.3413 106.406 21.445 106.247 21.4147C102.958 20.7839 99.9262 19.9601 97.4865 18.9281L97.0065 18.7189L96.9553 18.6892C96.8449 18.6097 96.8016 18.4613 96.8595 18.3325Z" fill="#5647C1"/>
<path d="M96.6246 19.5491C96.6822 19.3984 96.851 19.323 97.0018 19.3805C99.8783 20.4809 102.864 21.33 105.958 21.9476C106.116 21.9792 106.219 22.133 106.187 22.2912C106.156 22.4494 106.002 22.5523 105.844 22.5208C102.72 21.8972 99.7024 21.0388 96.7934 19.9261C96.6426 19.8684 96.567 19.6997 96.6246 19.5491Z" fill="#5647C1"/>
<path d="M96.5133 20.408C96.5701 20.2787 96.7092 20.2111 96.8423 20.2398L96.8984 20.2581L97.3495 20.4499C99.6402 21.3989 102.467 22.1703 105.562 22.7725C105.721 22.8033 105.824 22.957 105.793 23.1154C105.762 23.2736 105.609 23.3768 105.451 23.346C102.334 22.7396 99.4651 21.9592 97.1243 20.9893L96.6635 20.7929L96.6119 20.7638C96.5009 20.6853 96.4566 20.5372 96.5133 20.408Z" fill="#5647C1"/>
<g style="mix-blend-mode:soft-light" opacity="0.5">
<path d="M111.035 6.44264C111.441 7.29822 111.611 8.25584 111.578 9.20128C111.552 9.87005 111.416 10.5673 110.999 11.0881C110.582 11.6127 109.824 11.9086 109.212 11.6322C108.842 11.4659 108.578 11.1258 108.382 10.7661C107.885 9.84214 107.754 8.73827 107.139 7.88694C106.848 7.48693 106.454 7.14222 106.301 6.67123C106.074 5.97619 106.48 5.18493 107.098 4.79486C107.685 4.42002 108.824 4.13946 109.447 4.54857C110.134 4.99764 110.681 5.70313 111.03 6.43919L111.035 6.44264Z" fill="white"/>
</g>
</svg>
