<svg width="272" height="303" viewBox="0 0 272 303" fill="none" xmlns="http://www.w3.org/2000/svg">
<path d="M71.8231 178.48L60.5308 208.965H68.3416L76.7412 199.334L71.8231 178.48Z" fill="#5647C1"/>
<path d="M105.111 208.965H72.3991L63.6694 166.843H96.388L105.111 208.965Z" fill="#F9E0B2"/>
<path d="M100.858 205.615H75.0469L67.5186 170.077H93.8676L100.858 205.615Z" fill="#85BCFF"/>
<g opacity="0.65">
<path d="M95.6567 180.26C93.3336 177.814 90.8551 175.516 88.2342 173.387C87.9948 173.192 87.7359 172.992 87.4512 172.94C87.1988 172.895 86.9659 172.979 86.7653 173.076C85.7816 173.548 85.0633 174.429 84.7851 175.503C84.578 176.312 84.6233 177.205 84.4874 178.04C84.3515 178.875 84.002 179.704 83.2449 180.027C82.7078 179.153 82.1707 178.273 81.6336 177.399C81.3035 176.862 80.9217 176.273 80.3458 176.014C79.8669 175.801 79.3557 175.865 78.9286 176.027C76.9419 176.785 76.4436 179.179 75.9 181.238C75.5635 182.5 74.8193 183.911 73.4021 183.691C72.865 183.606 72.3344 183.289 71.7973 183.199C71.3572 183.128 70.9754 183.218 70.626 183.386L75.227 205.593H100.918L95.6632 180.241L95.6567 180.26Z" fill="#589775"/>
<path d="M99.1124 196.959C98.4459 196.571 97.7341 196.208 97.1517 195.716C95.3591 194.182 95.1715 191.639 93.7348 189.794C93.2754 189.199 92.6865 188.687 92.2918 188.053C91.8647 187.367 91.7093 186.61 91.4829 185.872C91.1916 184.907 90.771 183.95 90.2468 183.037C89.7874 182.247 89.192 181.438 88.3572 181.069C87.2701 180.584 86.0729 181.069 85.6911 182.008C85.3093 182.946 85.6458 184.195 86.377 185.16C86.7653 185.671 87.2636 186.137 87.503 186.707C87.9625 187.801 87.3413 188.791 87.0759 189.801C86.6359 191.503 87.2571 193.477 87.8719 195.334C87.1859 195.399 86.4288 194.881 85.9758 194.254C85.5228 193.626 85.3028 192.907 85.0569 192.215C84.6363 191.011 84.1056 189.801 83.2967 188.733C82.4878 187.665 81.3748 186.739 80.1323 186.364C79.9834 186.318 79.8087 186.26 79.7375 186.124C79.6534 185.956 79.7764 185.807 79.8864 185.684C80.3394 185.192 80.5594 184.506 80.5529 183.775C80.5335 181.865 78.6763 179.723 76.7025 179.542C75.6412 179.445 74.6576 179.898 74.1399 180.694C73.6222 181.49 73.564 182.597 73.9458 183.632C74.237 184.403 74.7612 185.147 74.8776 185.93C75.0783 187.231 74.114 188.176 73.1563 188.869C72.8004 189.127 72.3344 189.432 71.9268 189.788L75.2077 205.613H100.899L99.106 196.959H99.1124Z" fill="#5647C1"/>
</g>
<path d="M101.339 205.969H74.9294L67.4421 169.84H93.8577L101.345 205.969H101.339ZM75.4988 205.263H100.471L93.2753 170.539H68.3028L75.4988 205.263Z" fill="white"/>
<path d="M239.647 228.166C239.647 228.166 251.231 246.852 251.956 270.755" stroke="#5647C1" stroke-width="1.19" stroke-linecap="round" stroke-linejoin="round"/>
<path d="M250.914 233.383C250.914 233.383 254.712 251.201 253.405 270.755" stroke="#5647C1" stroke-width="1.19" stroke-linecap="round" stroke-linejoin="round"/>
<path d="M238.308 246.127C238.308 246.127 249.607 252.069 251.114 261.331" stroke="#5647C1" stroke-width="1.19" stroke-linecap="round" stroke-linejoin="round"/>
<path d="M256.447 239.506L253.561 256.561" stroke="#5647C1" stroke-width="1.19" stroke-linecap="round" stroke-linejoin="round"/>
<path d="M253.664 264.276C254.169 260.256 257.967 251.784 263.073 251.344" stroke="#5647C1" stroke-width="1.19" stroke-linecap="round" stroke-linejoin="round"/>
<path d="M242.812 249.15C242.54 245.532 238.852 243.849 233.688 244.231C237.053 246.515 239.169 250.159 242.812 249.15Z" fill="#5647C1"/>
<path d="M246.274 252.865C243.42 249.642 239.175 251.564 235.849 252.36C239.363 254.677 244.682 252.25 246.274 252.865Z" fill="#5647C1"/>
<path d="M254.318 251.318C254.712 247.027 259.268 246.069 262.426 244.742C260.964 248.69 255.237 249.881 254.318 251.318Z" fill="#5647C1"/>
<path d="M245.795 240.295C243.828 236.464 247.161 233.208 249.115 230.393C249.995 234.509 245.802 238.587 245.795 240.295Z" fill="#5647C1"/>
<path d="M247.685 247.396C245.193 241.091 239.757 240.043 238.67 237.978C239.143 242.399 244.643 247.9 247.685 247.396Z" fill="#5647C1"/>
<path d="M241.951 232.412C242.106 228.257 241.459 226.684 237.602 225.707C234.6 224.943 229.889 227.053 226.906 226.684C232.497 231.027 239.68 227.506 241.958 232.412H241.951Z" fill="#5647C1"/>
<path d="M252.57 241.344C250.953 239.312 251.179 236.677 253.088 234.897C255.217 232.91 255.469 230.742 255.469 230.742C256.473 234.062 255.418 235.519 254.233 237.202C253.049 238.884 252.363 240.03 252.57 241.344Z" fill="#5647C1"/>
<path d="M252.538 247.143C251.703 245.15 249.354 243.415 248.047 242.289C249.244 247.829 252.538 247.143 252.538 247.143Z" fill="#5647C1"/>
<path d="M250.513 255.978C250.513 255.978 249.982 252.198 251.451 249.752C252.499 252.651 250.513 255.978 250.513 255.978Z" fill="#5647C1"/>
<path d="M260.271 252.412C261.604 250.968 262.258 248.302 263.073 248.25C263.94 248.632 263.669 249.324 263.669 249.324C263.669 249.324 265.189 249.719 264.697 251.324C265.293 252.599 265.073 253.376 260.265 252.418L260.271 252.412Z" fill="#5647C1"/>
<path d="M255.903 242.703C256.88 241.428 258.835 239.499 258.835 239.499C258.835 239.499 258.427 238.574 257.612 238.93C257.12 237.842 256.007 237.952 255.683 238.606C254.816 237.952 254.311 238.742 254.311 238.742L255.903 242.703Z" fill="#5647C1"/>
<path d="M251.399 235.428C251.93 233.914 253.179 231.467 253.179 231.467C253.179 231.467 252.506 230.716 251.839 231.305C251.037 230.425 250.014 230.878 249.904 231.596C248.875 231.247 248.642 232.153 248.642 232.153L251.393 235.422L251.399 235.428Z" fill="#5647C1"/>
<path d="M251.173 261.726C249.717 260.01 247.652 256.761 247.652 256.761C247.652 256.761 246.267 257.046 246.513 258.269C244.883 258.619 244.701 260.179 245.497 260.813C244.345 261.81 245.277 262.735 245.277 262.735L251.179 261.726H251.173Z" fill="#5647C1"/>
<path d="M254.881 275.123L256.563 267.285H252.415H252.363H248.209L249.891 275.123L244.009 288.049L246.39 301.557H252.363H252.415H258.388L260.77 288.049L254.881 275.123Z" fill="#5647C1"/>
<path d="M33.6559 301.676H27.8318L33.6494 216.111H43.5957L33.6559 301.676Z" fill="#5647C1"/>
<path d="M95.7733 301.676H101.597L95.7798 216.111H85.8335L95.7733 301.676Z" fill="#5647C1"/>
<path d="M110.107 214.888H19.3157V262.564H110.107V214.888Z" fill="#FFB24E"/>
<path d="M116.242 208.965H13.1875V216.111H116.242V208.965Z" fill="#FFB24E"/>
<path d="M16.7919 301.676H10.9678L16.779 216.111H26.7317L16.7919 301.676Z" fill="#FFB24E"/>
<path d="M112.638 301.676H118.462L112.651 216.111H102.698L112.638 301.676Z" fill="#FFB24E"/>
<path d="M18.9597 216.092H110.47" stroke="#5647C1" stroke-width="0.7" stroke-linecap="round" stroke-linejoin="round"/>
<path d="M108.095 262.57L102.698 216.111" stroke="#5647C1" stroke-linecap="round" stroke-linejoin="round"/>
<path d="M21.3347 262.57L26.7317 216.111" stroke="#5647C1" stroke-width="0.7" stroke-linecap="round" stroke-linejoin="round"/>
<path d="M27.6506 234.965H101.779" stroke="#5647C1" stroke-width="0.7" stroke-linecap="round" stroke-linejoin="round"/>
<path d="M24.8032 253.813H104.626" stroke="#5647C1" stroke-width="0.7" stroke-linecap="round" stroke-linejoin="round"/>
<path d="M64.7113 227.47C66.2195 227.47 67.4422 226.247 67.4422 224.739C67.4422 223.23 66.2195 222.007 64.7113 222.007C63.2031 222.007 61.9805 223.23 61.9805 224.739C61.9805 226.247 63.2031 227.47 64.7113 227.47Z" stroke="#5647C1" stroke-width="0.7" stroke-linecap="round" stroke-linejoin="round"/>
<path d="M64.7113 248.027C66.2195 248.027 67.4422 246.804 67.4422 245.295C67.4422 243.787 66.2195 242.564 64.7113 242.564C63.2031 242.564 61.9805 243.787 61.9805 245.295C61.9805 246.804 63.2031 248.027 64.7113 248.027Z" stroke="#5647C1" stroke-width="0.7" stroke-linecap="round" stroke-linejoin="round"/>
<path d="M175.524 301.676H169.091L162.659 262.997H169.091L175.524 301.676Z" fill="#5647C1"/>
<path d="M223.974 301.676H217.548L211.115 262.997H217.548L223.974 301.676Z" fill="#5647C1"/>
<path d="M135.816 301.676H142.248L148.681 262.997H142.248L135.816 301.676Z" fill="#5647C1"/>
<path d="M87.3657 301.676H93.7917L100.224 262.997H93.7917L87.3657 301.676Z" fill="#5647C1"/>
<path d="M138.158 268.117H92.7174C88.8411 268.117 85.6767 265.017 85.5861 261.146L84.8937 230.098C84.6931 220.985 92.025 213.483 101.136 213.483H149.315L138.152 268.117H138.158Z" fill="#F9E0B2"/>
<path d="M145.432 268.117H99.9911C96.1148 268.117 92.9504 265.017 92.8598 261.146L92.1674 230.098C91.9667 220.985 99.2987 213.483 108.41 213.483H156.589L145.426 268.117H145.432Z" fill="#FFB24E"/>
<path d="M231.812 226.947H147L158.836 176.947C158.784 169.634 160.266 162.876 163.605 156.805C163.831 149.763 165.275 143.012 168.374 136.663C168.361 129.835 169.895 123.116 173.144 116.521L174.399 111.207C176.528 102.21 184.721 94.3269 194.512 91.7573C213.628 86.7477 231.559 86.7477 248.307 91.7573C256.881 94.3269 261.34 102.21 259.211 111.207L231.805 226.953L231.812 226.947Z" fill="#F9E0B2"/>
<path d="M211.193 268.117H104.708C99.4149 268.117 95.338 263.45 96.0499 258.208L97.0206 251.043C98.8908 237.25 110.668 226.959 124.588 226.959H220.893L211.186 268.123L211.193 268.117Z" fill="#F9E0B2"/>
<path d="M161.616 233.211L151.767 231.897C151.767 231.897 151.599 237.418 149.256 240.803C148.913 247.282 144.636 254.654 144.636 254.654C144.636 254.654 144.727 264.026 140.818 267.625L143.549 228.04H155.32L161.623 233.218L161.616 233.211Z" fill="#FFB24E"/>
<path d="M107.873 237.994C103.776 241.729 104.139 245.929 106.87 247.535C111.238 250.098 121.067 240.175 121.067 240.175L107.873 237.994Z" fill="#FFB24E"/>
<path d="M175.827 116.52H244.261" stroke="#FFB24E" stroke-width="1.03" stroke-linecap="round" stroke-linejoin="round"/>
<path d="M171.097 136.668H240.798" stroke="#FFB24E" stroke-width="1.03" stroke-linecap="round" stroke-linejoin="round"/>
<path d="M167.091 156.811H236.249" stroke="#FFB24E" stroke-width="1.03" stroke-linecap="round" stroke-linejoin="round"/>
<path d="M162.173 176.953H230.425" stroke="#FFB24E" stroke-width="1.03" stroke-linecap="round" stroke-linejoin="round"/>
<path d="M131.7 212.474C122.886 213.897 104.534 217.043 104.346 215.017C104.139 212.694 122.142 211.529 131.441 210.027L131.7 212.474Z" fill="#5647C1"/>
<path d="M109.911 210.027L112.157 224.59C112.157 224.59 110.519 227.697 106.689 231.865C102.858 236.033 101.078 241.25 104.339 243.768C107.789 246.434 113.736 242.583 117.405 238.92C119.657 236.667 123.52 231.729 126.16 228.266C127.953 225.91 128.62 222.881 127.972 219.988L125.19 207.516L109.905 210.033L109.911 210.027Z" fill="#4DA276"/>
<path d="M116.389 208.965L109.911 210.033L110.655 214.868C114.9 213.127 124.148 211.017 124.148 211.017L116.382 208.972L116.389 208.965Z" fill="#5647C1"/>
<g style="mix-blend-mode:overlay" opacity="0.46">
<path d="M113.833 227.276C113.794 227.276 113.756 227.269 113.717 227.257C113.548 227.192 113.464 227.004 113.529 226.836L114.079 225.399C114.383 224.603 114.474 223.736 114.331 222.888L112.74 213.341C112.707 213.166 112.83 212.998 113.005 212.965C113.18 212.933 113.348 213.056 113.38 213.231L114.972 222.778C115.134 223.736 115.03 224.719 114.681 225.625L114.131 227.062C114.079 227.192 113.956 227.269 113.827 227.269L113.833 227.276Z" fill="white"/>
</g>
<g style="mix-blend-mode:overlay" opacity="0.46">
<path d="M117.366 226.409C117.328 226.409 117.289 226.402 117.25 226.389C117.082 226.325 116.998 226.137 117.062 225.969L117.612 224.538C117.916 223.742 118.007 222.875 117.865 222.027L116.273 212.48C116.24 212.305 116.363 212.137 116.538 212.105C116.713 212.072 116.881 212.195 116.913 212.37L118.505 221.917C118.667 222.875 118.564 223.859 118.221 224.765L117.671 226.195C117.619 226.325 117.496 226.402 117.366 226.402V226.409Z" fill="white"/>
</g>
<g style="mix-blend-mode:overlay" opacity="0.46">
<path d="M120.893 225.535C120.854 225.535 120.816 225.528 120.777 225.515C120.609 225.451 120.524 225.263 120.589 225.095L121.139 223.664C121.443 222.868 121.534 222.001 121.392 221.153L119.8 211.606C119.767 211.431 119.89 211.263 120.065 211.231C120.24 211.198 120.408 211.321 120.44 211.496L122.032 221.043C122.194 222.001 122.09 222.985 121.747 223.891L121.197 225.321C121.146 225.451 121.023 225.528 120.893 225.528V225.535Z" fill="white"/>
</g>
<g style="mix-blend-mode:overlay">
<path d="M113.063 242.454C114.648 241.425 116.163 240.163 117.405 238.913C119.657 236.661 123.521 231.722 126.161 228.26C127.953 225.904 128.62 222.875 127.973 219.982L125.552 209.127L122.492 208.292C122.492 208.292 115.865 231.444 113.063 242.447V242.454Z" fill="#5647C1"/>
</g>
<g style="mix-blend-mode:overlay" opacity="0.46">
<path d="M104.883 234.137C102.398 237.781 101.654 241.69 104.346 243.768C106.63 245.535 110.015 244.441 113.102 242.434C113.024 237.664 110.481 234.15 104.89 234.137H104.883Z" fill="white"/>
</g>
<path d="M139.336 277.703V277.722C139.304 277.897 139.271 278.059 139.239 278.207C138.424 280.136 132.431 279.282 128.697 278.544L128.988 277.114C134.793 276.777 139.291 276.434 139.336 277.703Z" fill="#5647C1"/>
<path d="M132.14 272.46L129.688 286.932C129.377 288.77 129.681 290.66 130.535 292.317C130.723 292.686 130.924 293.088 131.124 293.508C132.6 296.628 130.302 300.22 126.853 300.22H96.1407C93.8499 300.22 92.931 297.262 94.8271 295.968C99.1628 293.01 105.666 288.958 113.406 285.359C115.03 284.609 116.215 283.146 116.603 281.398L118.68 272.072L132.147 272.453L132.14 272.46Z" fill="#4DA276"/>
<g style="mix-blend-mode:overlay" opacity="0.46">
<path d="M131.117 293.508C130.917 293.088 130.716 292.686 130.529 292.317C130.406 292.084 130.302 291.845 130.199 291.599C126.296 292.168 123.294 295.515 123.294 299.579C123.294 299.799 123.307 300.013 123.326 300.227H126.84C130.289 300.227 132.586 296.634 131.111 293.515L131.117 293.508Z" fill="white"/>
</g>
<path d="M118.032 274.971L117.023 279.515C123.565 280.149 128.205 277.165 131.376 276.978L118.032 274.971Z" fill="#5647C1"/>
<g style="mix-blend-mode:overlay" opacity="0.46">
<path d="M127.254 285.793C127.254 285.793 127.202 285.793 127.177 285.787C126.995 285.741 126.885 285.56 126.931 285.385L128.976 277.055C129.021 276.874 129.202 276.764 129.377 276.809C129.558 276.855 129.668 277.036 129.623 277.211L127.578 285.541C127.539 285.696 127.403 285.793 127.254 285.793Z" fill="white"/>
<path d="M123.022 287.994C122.957 287.994 122.892 287.974 122.834 287.935C122.679 287.832 122.64 287.625 122.744 287.469L123.119 286.919C123.591 286.22 123.934 285.457 124.135 284.641L125.999 277.049C126.044 276.868 126.225 276.758 126.4 276.803C126.581 276.848 126.691 277.029 126.646 277.204L124.782 284.796C124.562 285.69 124.187 286.531 123.675 287.295L123.3 287.845C123.235 287.942 123.132 287.994 123.022 287.994Z" fill="white"/>
<path d="M119.275 288.084C119.191 288.084 119.107 288.052 119.048 287.994C118.913 287.864 118.906 287.657 119.036 287.521L119.45 287.088C120.433 286.046 121.139 284.758 121.482 283.366L123.028 277.049C123.074 276.868 123.255 276.758 123.43 276.803C123.611 276.848 123.721 277.029 123.675 277.204L122.129 283.521C121.76 285.029 121.003 286.414 119.935 287.541L119.521 287.974C119.456 288.046 119.366 288.078 119.275 288.078V288.084Z" fill="white"/>
<path d="M115.91 287.385C115.813 287.385 115.716 287.346 115.651 287.262C115.535 287.12 115.554 286.906 115.696 286.79L116.324 286.272C117.508 285.295 118.363 283.929 118.731 282.44L120.052 277.049C120.097 276.868 120.278 276.758 120.453 276.803C120.634 276.848 120.744 277.029 120.699 277.204L119.379 282.596C118.977 284.227 118.045 285.715 116.751 286.783L116.124 287.301C116.059 287.353 115.988 287.379 115.91 287.379V287.385Z" fill="white"/>
</g>
<path d="M106.359 297.476H70.359C69.1975 297.476 68.2559 298.418 68.2559 299.579C68.2559 300.741 69.1975 301.683 70.359 301.683H106.359C107.52 301.683 108.462 300.741 108.462 299.579C108.462 298.418 107.52 297.476 106.359 297.476Z" fill="#FFB24E"/>
<path d="M95.1892 301.676C95.1892 301.676 99.1949 291.191 88.7762 287.243C86.3883 286.337 83.7416 286.44 81.3796 287.418L67.3952 293.217C65.8098 293.877 64.7549 295.398 64.6902 297.113C64.5996 299.605 66.5928 301.67 69.0777 301.67H95.1892V301.676Z" fill="#F9E0B2"/>
<path d="M176.222 141.749C173.608 145.231 174.565 150.06 179.969 151.71C190.821 155.037 196.25 150.034 196.231 145.225C219.5 152 226.5 187.5 223 193C216.334 190.33 207.079 196.323 204.321 201.846C203.03 204.431 193.387 209.385 193.566 213.154L195.91 214.383L129.435 194.979L144.222 163.548C149.871 151.542 161.332 143.121 174.54 141.866C175.096 141.814 175.653 141.775 176.222 141.749Z" fill="#E45B49"/>
<path d="M196.238 145.219C196.257 150.028 190.828 155.031 179.975 151.704C174.572 150.053 173.614 145.225 176.229 141.743H176.235C177.361 141.685 178.507 141.678 179.665 141.743C177.406 143.801 177.982 147.134 181.982 148.254C189.093 150.254 193.5 147.147 193.119 144.209C194.18 144.52 195.222 144.856 196.238 145.219Z" fill="#FFB24E"/>
<path d="M179.322 146.772C179.167 146.61 179.024 146.442 178.908 146.274L175.821 148.888C175.944 149.063 176.067 149.238 176.216 149.406L179.322 146.778V146.772Z" fill="#F9E0B2"/>
<path d="M182.279 152.306L183.302 148.578C183.095 148.539 182.881 148.474 182.674 148.429L181.652 152.163C181.865 152.215 182.072 152.261 182.286 152.306H182.279Z" fill="#F9E0B2"/>
<path d="M181.108 147.95C180.901 147.866 180.707 147.769 180.519 147.672L178.507 151.121C178.701 151.218 178.888 151.309 179.095 151.393L181.102 147.95H181.108Z" fill="#F9E0B2"/>
<path d="M178.947 142.578L175.536 142.882C175.426 143.102 175.329 143.329 175.245 143.555L178.604 143.257C178.694 143.024 178.811 142.798 178.953 142.578H178.947Z" fill="#F9E0B2"/>
<path d="M178.351 144.403L174.837 145.989C174.85 146.215 174.876 146.442 174.915 146.662L178.416 145.076C178.371 144.85 178.345 144.623 178.351 144.397V144.403Z" fill="#F9E0B2"/>
<path d="M195.927 147.219C195.992 147.005 196.057 146.798 196.102 146.584L193.08 145.128C193.035 145.342 192.976 145.549 192.886 145.756L195.934 147.219H195.927Z" fill="#F9E0B2"/>
<path d="M185.619 148.869C185.405 148.856 185.185 148.837 184.971 148.811L185.107 152.72C185.327 152.74 185.541 152.752 185.754 152.759L185.619 148.869Z" fill="#F9E0B2"/>
<path d="M192.167 146.817C192.019 146.973 191.857 147.121 191.682 147.27L194.756 149.406C194.892 149.238 195.015 149.057 195.131 148.882L192.167 146.817Z" fill="#F9E0B2"/>
<path d="M189.76 148.325L192.426 151.38C192.62 151.27 192.808 151.154 192.983 151.037L190.394 148.073C190.194 148.164 189.98 148.248 189.76 148.332V148.325Z" fill="#F9E0B2"/>
<path d="M187.954 148.765C187.741 148.798 187.514 148.817 187.294 148.837L188.666 152.629C188.886 152.597 189.1 152.558 189.313 152.519L187.961 148.772L187.954 148.765Z" fill="#F9E0B2"/>
<path d="M181.981 148.254C177.982 147.134 177.406 143.801 179.665 141.743C180.389 141.782 181.127 141.846 181.858 141.937C185.495 142.39 189.391 143.121 193.118 144.209C193.5 147.147 189.093 150.254 181.981 148.254Z" fill="#FFA187"/>
<path d="M194.018 135.452L193.241 138.28L191.313 145.296L180.7 143.685L182.156 138.397C187.01 139.879 191.229 138.067 194.018 135.452Z" fill="#FFA187"/>
<path d="M191.604 137.387C191.714 137.283 191.811 137.173 191.915 137.07C189.288 138.714 185.91 139.549 182.156 138.397L181.516 140.733C185.618 141.348 189.165 139.678 191.604 137.387Z" fill="#CF553B"/>
<path d="M198.127 125.536C197.616 126.74 197.364 128.125 197.247 129.057C195.862 130.067 195.215 131.601 195.772 132.785C195.836 132.914 195.908 133.037 195.992 133.147L195.442 133.905C195.021 134.435 194.542 134.96 194.018 135.452C191.229 138.067 187.01 139.879 182.156 138.397C181.975 138.338 181.787 138.28 181.606 138.215C175.601 136.092 175.297 130.021 179.302 125.109L182.014 114.882H182.02C181.794 118.209 186.207 117.387 190.161 114.882C189.119 118.526 192.122 119.756 197.215 118.526C196.49 120.572 196.671 121.847 198.127 125.536Z" fill="#FFA187"/>
<path opacity="0.6" d="M190.802 133.012C191.806 133.012 192.62 132.197 192.62 131.193C192.62 130.188 191.806 129.374 190.802 129.374C189.798 129.374 188.984 130.188 188.984 131.193C188.984 132.197 189.798 133.012 190.802 133.012Z" fill="#FC4C4C"/>
<path opacity="0.6" d="M180.771 131.083C181.776 131.083 182.59 130.269 182.59 129.264C182.59 128.26 181.776 127.445 180.771 127.445C179.767 127.445 178.953 128.26 178.953 129.264C178.953 130.269 179.767 131.083 180.771 131.083Z" fill="#FC4C4C"/>
<path d="M200.01 133.905C198.8 136.254 196.71 138.578 193.241 138.28L194.018 135.452C194.542 134.96 195.021 134.435 195.441 133.905L195.991 133.147C196.749 134.151 198.379 134.455 200.01 133.905Z" fill="#3D3B59"/>
<path d="M202.386 128.623C201.421 127.847 199.745 127.762 198.166 128.5C197.83 128.656 197.526 128.843 197.247 129.057C197.364 128.125 197.616 126.74 198.127 125.536C196.671 121.847 196.49 120.572 197.215 118.526C192.122 119.756 189.119 118.526 190.161 114.882C186.207 117.387 181.794 118.209 182.021 114.882H182.014C179.413 116.746 171.239 113.555 175.42 108.06C179.607 102.552 187.799 101.821 189.301 107.238C195.08 104.598 202.631 105.691 201.175 111.517C208.365 112.61 205.815 117.387 204.722 119.206C208.281 120.183 206.048 125.251 202.386 128.623Z" fill="#3D3B59"/>
<path d="M182.59 128.034C184.773 128.034 186.544 126.264 186.544 124.08C186.544 121.896 184.773 120.125 182.59 120.125C180.406 120.125 178.636 121.896 178.636 124.08C178.636 126.264 180.406 128.034 182.59 128.034Z" stroke="#3D3B59" stroke-width="0.7" stroke-linecap="round" stroke-linejoin="round"/>
<path d="M191.39 130.073C193.574 130.073 195.344 128.303 195.344 126.118C195.344 123.934 193.574 122.164 191.39 122.164C189.207 122.164 187.437 123.934 187.437 126.118C187.437 128.303 189.207 130.073 191.39 130.073Z" stroke="#3D3B59" stroke-width="0.7" stroke-linecap="round" stroke-linejoin="round"/>
<path d="M186.518 123.639C187.094 123.465 187.611 123.588 188.052 123.995" stroke="#3D3B59" stroke-width="0.7" stroke-linecap="round" stroke-linejoin="round"/>
<path d="M180.988 125.305C181.048 125.045 181.17 124.849 181.29 124.735C181.414 124.619 181.491 124.626 181.508 124.63C181.526 124.635 181.598 124.662 181.658 124.82C181.717 124.975 181.738 125.205 181.678 125.465C181.618 125.724 181.497 125.922 181.376 126.035C181.253 126.151 181.177 126.144 181.159 126.14C181.141 126.136 181.069 126.108 181.009 125.95C180.95 125.795 180.928 125.565 180.988 125.305Z" fill="#5647C1" stroke="#3D3B59"/>
<path d="M189.787 127.345C189.847 127.085 189.969 126.888 190.09 126.775C190.213 126.659 190.29 126.666 190.307 126.67C190.325 126.674 190.397 126.702 190.457 126.86C190.516 127.015 190.537 127.245 190.477 127.504C190.417 127.764 190.296 127.962 190.175 128.075C190.052 128.19 189.976 128.184 189.958 128.18C189.94 128.176 189.868 128.148 189.808 127.99C189.749 127.835 189.727 127.604 189.787 127.345Z" fill="#5647C1" stroke="#3D3B59"/>
<path d="M195.241 127.012L199.383 129.057" stroke="#3D3B59" stroke-width="0.7" stroke-linecap="round" stroke-linejoin="round"/>
<path d="M186.252 127.063C186.44 126.792 186.602 126.513 186.725 126.177C186.757 126.08 186.712 125.97 186.608 125.931C186.505 125.892 186.401 125.944 186.369 126.047V126.06C186.272 126.319 186.11 126.597 185.942 126.843C185.767 127.096 185.573 127.329 185.359 127.549C184.926 127.982 184.434 128.358 183.897 128.669C183.851 128.694 183.819 128.733 183.806 128.792C183.787 128.889 183.845 128.979 183.942 128.999H183.962L186.259 129.484C186.272 129.484 186.285 129.484 186.298 129.484C186.479 129.497 186.634 129.368 186.647 129.186C186.66 129.005 186.531 128.85 186.349 128.837L184.512 128.682C184.906 128.423 185.282 128.131 185.618 127.801C185.845 127.568 186.058 127.316 186.246 127.05L186.252 127.063Z" fill="#CF553B"/>
<path d="M181.859 119.096C181.859 119.096 184.208 118.462 186.175 119.918" stroke="#3D3B59" stroke-width="0.7" stroke-linecap="round" stroke-linejoin="round"/>
<path d="M191.391 120.947C191.391 120.947 193.727 120.61 195.345 123.225" stroke="#3D3B59" stroke-width="0.7" stroke-linecap="round" stroke-linejoin="round"/>
<path d="M181.192 181.354C181.192 181.354 170.178 187.632 160.536 187.089" stroke="#FFB24E" stroke-width="0.7" stroke-linecap="round" stroke-linejoin="round"/>
<path d="M197.7 174.616C197.7 174.616 195.539 185.872 200.994 193.367" stroke="#FFB24E" stroke-width="0.7" stroke-linecap="round" stroke-linejoin="round"/>
<path d="M205.854 154.953C200.12 157.956 197.202 167.057 197.706 171.516" stroke="#FFB24E" stroke-width="0.7" stroke-linecap="round" stroke-linejoin="round"/>
<path d="M193.138 172.681C193.138 172.681 192.316 177.464 195.539 179.594" stroke="#FFB24E" stroke-width="0.7" stroke-linecap="round" stroke-linejoin="round"/>
<path d="M164.625 150.675C164.625 150.675 160.529 160.746 160.529 168.273C160.529 168.273 152.401 179.626 149.457 185.872" stroke="#FFB24E" stroke-width="0.7" stroke-linecap="round" stroke-linejoin="round"/>
<path d="M139.183 152.629C139.368 152.49 139.6 152.422 139.842 152.462V152.463L147.048 153.679V153.693L147.466 153.763C148.299 153.903 148.94 154.568 149.063 155.393L149.081 155.56L150.142 172.79C150.157 173.072 150.018 173.329 149.792 173.493L149.771 173.507L149.753 173.524L149.529 173.722L149.517 173.678L149.204 173.625L139.972 172.059L138.826 153.376L138.825 153.368L138.827 153.32C138.828 153.305 138.829 153.289 138.831 153.269L138.838 153.202L138.862 152.902L139.085 152.707L139.096 152.696L139.107 152.685C139.109 152.683 139.115 152.679 139.124 152.671C139.125 152.67 139.126 152.668 139.127 152.668L139.17 152.637L139.177 152.633L139.183 152.629Z" fill="#FFB24E" stroke="#A991EE"/>
<path d="M148.24 174.895L140.365 173.561C139.342 173.387 138.572 172.532 138.508 171.497L137.44 154.183C137.388 153.303 138.165 152.604 139.032 152.752L146.655 154.04C147.775 154.228 148.616 155.167 148.687 156.299L149.748 173.529C149.8 174.364 149.062 175.031 148.234 174.888L148.24 174.895Z" fill="#C1B9FF"/>
<path d="M149.567 163.872C149.684 164.235 149.522 164.629 149.192 164.817L143.607 167.956L150.02 169.866C150.48 170.001 150.829 170.383 150.926 170.856V170.882C151.049 171.458 150.777 172.04 150.253 172.306C148.959 172.972 146.584 174.111 145.626 174.092L150.784 174.435L150.829 174.817C150.894 175.367 150.493 175.865 149.943 175.924L145.121 176.403L141.368 171.031L141.549 166.273L148.493 163.361C148.933 163.18 149.431 163.413 149.574 163.866L149.567 163.872Z" fill="#5647C1"/>
<path d="M150.486 171.412C149.386 171.801 147.451 172.39 145.115 172.681C146.092 172.966 148.079 173.477 150.201 173.626C150.687 173.658 151.069 174.066 151.069 174.558C151.069 175.05 150.667 175.484 150.163 175.497C148.603 175.535 145.426 175.561 143.64 175.16C138.909 176.959 133.913 172.06 135.596 167.891C136.036 166.811 136.929 165.976 137.99 165.484C141.478 163.879 144.882 162.584 148.105 161.943C148.648 161.84 149.192 162.137 149.418 162.649C149.483 162.804 149.515 162.966 149.515 163.121C149.515 163.626 149.192 164.105 148.681 164.273C146.338 165.044 144.429 165.885 142.611 167.231C144.448 167.192 147.451 167.069 150.059 166.642C150.706 166.532 151.314 166.966 151.431 167.607C151.444 167.678 151.45 167.749 151.45 167.82C151.45 168.357 151.082 168.836 150.551 168.972C150.454 168.998 150.344 169.024 150.234 169.05C150.706 169.154 151.133 169.548 151.237 170.027V170.047C151.373 170.629 151.049 171.212 150.486 171.412Z" fill="#FFA187"/>
<path d="M141.543 169.878C145.374 170.04 148.525 169.464 150.234 169.05" stroke="#CF553B" stroke-width="0.7" stroke-linecap="round" stroke-linejoin="round"/>
<path d="M140.876 167.238C140.876 167.238 141.549 167.251 142.611 167.231" stroke="#CF553B" stroke-width="0.7" stroke-linecap="round" stroke-linejoin="round"/>
<path d="M145.115 172.681C144.429 172.765 143.711 172.83 142.973 172.856" stroke="#CF553B" stroke-width="0.7" stroke-linecap="round" stroke-linejoin="round"/>
<path d="M159.966 200.862C152.686 204.7 139.401 208.681 132.049 209.93C131.849 209.962 131.648 209.995 131.441 210.027C122.142 211.529 104.139 212.694 104.346 215.017C102.948 206.344 95.8623 157.477 112.94 153.212C133.939 147.969 151.813 184.183 159.966 200.862Z" fill="#7D56FF"/>
<path d="M132.658 204.202C126.555 205.542 109.109 205.147 103.492 209.108C103.835 211.729 104.152 213.781 104.346 215.017C104.139 212.694 122.142 211.529 131.441 210.027C131.648 209.995 131.849 209.962 132.05 209.93C132.69 209.82 133.396 209.684 134.12 209.535L132.658 204.202Z" fill="white"/>
<path d="M122.317 205.276C121.624 207.328 120.958 209.393 120.298 211.47C124.316 210.991 128.361 210.532 131.441 210.033C131.648 210.001 131.849 209.969 132.05 209.936C139.401 208.687 152.686 204.707 159.967 200.868C159.598 200.111 159.209 199.315 158.802 198.487C154.893 196.182 151.043 194.254 147.361 192.979C137.039 189.412 125.805 194.927 122.317 205.276Z" fill="#5647C1"/>
<path d="M134.114 209.535L132.651 204.202C130.38 204.7 126.529 204.959 122.304 205.296C121.611 207.341 120.945 209.399 120.291 211.47C120.304 211.47 120.323 211.47 120.336 211.47C121.423 211.341 122.504 211.211 123.578 211.082C123.902 211.043 124.226 211.004 124.549 210.965C124.704 210.946 124.86 210.927 125.015 210.907C125.319 210.868 125.617 210.836 125.915 210.797C126.057 210.778 126.199 210.765 126.342 210.745C126.769 210.694 127.189 210.635 127.604 210.584C127.623 210.584 127.649 210.584 127.668 210.577C128.057 210.525 128.432 210.474 128.807 210.422C128.93 210.402 129.047 210.389 129.17 210.37C129.454 210.331 129.733 210.292 130.011 210.247C130.121 210.228 130.237 210.215 130.347 210.195C130.723 210.137 131.085 210.085 131.434 210.027C131.642 209.995 131.842 209.962 132.043 209.93C132.399 209.872 132.774 209.8 133.156 209.723C133.466 209.664 133.784 209.6 134.107 209.535H134.114Z" fill="#7D56FF"/>
<path d="M125.19 174.099C127.468 184.849 130.38 193.949 131.402 204.202" stroke="#5647C1" stroke-width="0.7" stroke-linecap="round" stroke-linejoin="round"/>
<path d="M130.166 172.856C130.166 172.856 129.927 178.888 127.74 182.26" stroke="#5647C1" stroke-width="0.7" stroke-linecap="round" stroke-linejoin="round"/>
<path d="M132.955 176.577C132.955 176.577 132.108 181.619 129.435 183.988" stroke="#5647C1" stroke-width="0.7" stroke-linecap="round" stroke-linejoin="round"/>
<path d="M200.994 214.551L189.397 239.839C181.891 238.273 161.293 233.774 149.256 229.341C148.693 230.881 148.033 232.292 147.276 233.328C148.609 240.849 142.908 252.499 142.908 252.499C142.908 252.499 144.002 262.816 139.873 269.373C139.925 273.327 139.66 275.981 139.336 277.709C139.291 276.44 134.793 276.784 128.988 277.12C122.271 277.508 113.794 277.89 108.462 275.741C112.564 251.994 117.981 229.257 125.196 207.872C128.684 197.522 139.918 192.008 150.24 195.574C167.777 201.639 187.851 208.415 200.994 214.551Z" fill="#7D56FF"/>
<path d="M189.682 226.085L154.284 216.111C154.284 216.111 152.848 217.787 148.337 217.697C148.098 221.58 146.454 229.891 142.817 232.078C143.089 238.907 140.358 248.007 137.084 250.738C140.268 257.929 134.534 268.033 134.534 268.033C134.534 268.033 134.897 273.042 134.534 274.499" stroke="#ADA2EB" stroke-width="0.7" stroke-linecap="round" stroke-linejoin="round"/>
<path d="M149.256 229.334C152.556 221.632 151.767 213.936 151.767 213.936" stroke="#5647C1" stroke-width="0.7" stroke-linecap="round" stroke-linejoin="round"/>
<path d="M159.41 219.975C159.41 219.975 156.621 224.771 151.217 227.198" stroke="#5647C1" stroke-width="0.7" stroke-linecap="round" stroke-linejoin="round"/>
<path d="M109.245 271.288C108.98 272.771 108.714 274.253 108.456 275.735C113.788 277.884 122.265 277.502 128.982 277.114C134.787 276.777 139.285 276.434 139.33 277.703C139.55 276.538 139.738 274.932 139.822 272.803C132.664 270.583 116.473 273.884 109.239 271.282L109.245 271.288Z" fill="white"/>
<path d="M131.473 297.476H95.4738C94.3122 297.476 93.3706 298.418 93.3706 299.579C93.3706 300.741 94.3122 301.683 95.4738 301.683H131.473C132.635 301.683 133.576 300.741 133.576 299.579C133.576 298.418 132.635 297.476 131.473 297.476Z" fill="#F8F6FF"/>
<path d="M120.311 301.676C120.311 301.676 124.316 291.191 113.898 287.243C111.51 286.337 108.863 286.44 106.501 287.418L92.5165 293.217C90.9311 293.877 89.8763 295.398 89.8116 297.113C89.721 299.605 91.7141 301.67 94.1991 301.67H120.311V301.676Z" fill="#F8F6FF"/>
<path d="M200.599 133.665C200.405 133.756 200.204 133.834 200.01 133.905C198.379 134.455 196.749 134.151 195.991 133.147C195.907 133.037 195.836 132.914 195.771 132.785C195.215 131.601 195.862 130.067 197.247 129.057C197.525 128.843 197.829 128.656 198.166 128.5C199.745 127.762 201.421 127.847 202.385 128.623C202.644 128.824 202.851 129.083 202.993 129.381C203.666 130.811 202.592 132.727 200.599 133.665Z" fill="#FFA187"/>
<path d="M184.169 131.335C185.282 132.358 187.424 131.626 188.174 131.083" stroke="#CF553B" stroke-width="0.75" stroke-linecap="round" stroke-linejoin="round"/>
<path d="M196.93 131.465C197.266 130.287 201.285 128.824 201.906 130.468" stroke="#CF553B" stroke-width="0.75" stroke-linecap="round" stroke-linejoin="round"/>
<path d="M199.421 131.685V129.885" stroke="#CF553B" stroke-width="0.75" stroke-linecap="round" stroke-linejoin="round"/>
<path d="M158.012 232.182C169.563 235.574 183.509 238.609 189.398 239.832L200.994 214.545C192.575 210.616 181.309 206.415 169.686 202.318C174.986 212.37 164.593 229.49 158.012 232.176V232.182Z" fill="#5647C1"/>
<path d="M259.818 111.206L250.926 148.765C247.044 165.18 240.993 181.005 232.936 195.82L229.435 202.267V202.279L226.847 207.024C224.686 211.004 220.518 213.483 215.982 213.483H207.148C211.678 213.483 215.852 211.004 218.014 207.024L225.469 193.309C232.619 180.157 237.99 166.112 241.44 151.549L250.991 111.206C253.12 102.216 248.661 94.3259 240.087 91.7563C233.085 89.6657 225.883 88.4489 218.473 88.1059C229.028 87.6205 239.175 88.8373 248.92 91.7563C257.495 94.3259 261.953 102.216 259.824 111.206H259.818Z" fill="#FFB24E"/>
<path d="M190.877 213.692H207.009L215.075 213.154L216.151 209.385H191.415L190.877 213.692Z" fill="#FFB24E"/>
<path d="M194.6 213.483C185.715 213.483 177.866 218.914 174.611 226.952C174.203 227.956 173.867 229.004 173.608 230.091L166.554 259.884C165.557 264.085 168.741 268.117 173.064 268.117H164.231C159.908 268.117 156.724 264.085 157.721 259.884L164.774 230.091C165.033 229.004 165.37 227.956 165.778 226.952C169.033 218.914 176.882 213.483 185.767 213.483H194.6Z" fill="#FFB24E"/>
<path d="M232.662 195.703L229.161 202.15V202.163L226.572 206.907C224.411 210.887 220.243 213.366 215.707 213.366H194.333C185.448 213.366 177.598 218.797 174.343 226.835C173.935 227.839 173.599 228.887 173.34 229.975L166.286 259.767C165.29 263.968 168.474 268 172.796 268H214.277C219.04 268 223.175 264.731 224.269 260.097L232.144 226.835L249.707 153.508L249.5 154C245.617 168.485 239.838 182.519 232.668 195.71L232.662 195.703Z" fill="#F9E0B2"/>
<path d="M211.312 187.846C214.685 186.881 219.146 187.611 221.313 188.076C222.101 188.245 222.673 188.905 222.749 189.708C223.152 193.959 222.966 198.24 222.604 202.471C221.736 212.615 210.773 211 198.943 209.923C198.957 209.902 200.49 207.426 200.556 206.154C200.633 204.683 200.159 202.471 200.159 202.471C201.633 202.059 204.626 199.939 206.961 198.296L205.934 191.615C205.956 191.579 207.573 188.916 211.312 187.846Z" fill="#FFA187"/>
<path d="M191.132 198.351C195.681 198.169 200.185 199.865 200.871 203.69C201.557 207.516 199.732 212.791 190.09 212.111L191.138 198.357L191.132 198.351Z" fill="#FFA187"/>
<path d="M192.083 200.053C192.083 200.053 193.934 200.137 194.548 202.862L191.714 203.923L192.089 200.053H192.083Z" fill="white"/>
<path d="M195.539 202.189C195.539 202.189 194.568 203.309 190.686 204.182" stroke="#CF553B" stroke-width="0.7" stroke-linecap="round" stroke-linejoin="round"/>
<path d="M195.539 204.745C195.539 204.745 194.568 205.865 190.686 206.739" stroke="#CF553B" stroke-width="0.7" stroke-linecap="round" stroke-linejoin="round"/>
<path d="M195.539 207.302C195.539 207.302 194.568 208.422 190.686 209.296" stroke="#CF553B" stroke-width="0.7" stroke-linecap="round" stroke-linejoin="round"/>
<path d="M195.539 209.865C195.539 209.865 194.568 210.985 190.686 211.859" stroke="#CF553B" stroke-width="0.7" stroke-linecap="round" stroke-linejoin="round"/>
<path d="M178.228 196.513H191.65C192.316 196.513 192.853 197.05 192.853 197.716V208.189C192.853 212.564 189.307 216.105 184.939 216.105C180.564 216.105 177.025 212.558 177.025 208.189V197.716C177.025 197.05 177.562 196.513 178.228 196.513Z" fill="white"/>
<path opacity="0.34" d="M191.65 196.513H190.012C190.679 196.513 191.216 197.05 191.216 197.716V208.189C191.216 212.286 188.103 215.658 184.117 216.066C184.389 216.092 184.661 216.111 184.939 216.111C189.314 216.111 192.853 212.564 192.853 208.195V197.723C192.853 197.056 192.316 196.519 191.65 196.519V196.513Z" fill="#ADA2EB"/>
<path d="M207.547 198.077C209.698 195.923 213.82 195.564 215.613 195.923" stroke="#CF553B" stroke-width="0.7" stroke-linecap="round"/>
<path d="M180.428 186.765C180.215 187.373 180.279 188.37 180.428 189.102C180.577 189.833 180.577 190.59 180.292 191.102C180.008 191.613 179.762 192.5 179.943 193.315C180.124 194.131 180.066 194.92 180.066 194.92" stroke="white" stroke-linecap="round" stroke-linejoin="round"/>
<path d="M183.586 186.765C183.373 187.373 183.437 188.37 183.586 189.102C183.735 189.833 183.735 190.59 183.45 191.102C183.166 191.613 182.92 192.5 183.101 193.315C183.282 194.131 183.224 194.92 183.224 194.92" stroke="white" stroke-linecap="round" stroke-linejoin="round"/>
<path d="M186.744 186.765C186.531 187.373 186.595 188.37 186.744 189.102C186.893 189.833 186.893 190.59 186.608 191.102C186.324 191.613 186.078 192.5 186.259 193.315C186.44 194.131 186.382 194.92 186.382 194.92" stroke="white" stroke-linecap="round" stroke-linejoin="round"/>
<path d="M189.902 186.765C189.689 187.373 189.753 188.37 189.902 189.102C190.051 189.833 190.051 190.59 189.766 191.102C189.481 191.613 189.236 192.5 189.417 193.315C189.598 194.131 189.54 194.92 189.54 194.92" stroke="white" stroke-linecap="round" stroke-linejoin="round"/>
<path d="M51.1415 198.901L41.9847 201.91C37.1701 203.49 32.2131 199.904 32.2131 194.836C32.2131 189.768 37.1701 186.176 41.9847 187.762L51.1415 190.771V198.901Z" stroke="#D6D4F6" stroke-width="2.15" stroke-miterlimit="10"/>
<path d="M54.319 185.095H51.6011L50.9669 181.645C50.8504 180.992 51.3487 180.396 52.0088 180.396H53.9049C54.5649 180.396 55.0697 180.998 54.9467 181.645L54.3125 185.095H54.319Z" fill="#D6D4F6"/>
<path opacity="0.34" d="M51.2192 183.005L51.601 185.095H54.319L54.7008 183.005H51.2192Z" fill="#7050D1"/>
<path d="M65.2617 196.868C63.9933 193.166 62.4208 189.471 60.5312 185.768H45.3885C43.4989 189.471 41.9264 193.166 40.658 196.868C39.0467 201.574 42.5606 206.461 47.5305 206.461H58.3892C63.3591 206.461 66.8665 201.574 65.2617 196.868Z" fill="#D6D4F6"/>
<path d="M60.4406 183.678H45.4856C44.9066 183.678 44.4373 184.146 44.4373 184.723C44.4373 185.3 44.9066 185.768 45.4856 185.768H60.4406C61.0196 185.768 61.489 185.3 61.489 184.723C61.489 184.146 61.0196 183.678 60.4406 183.678Z" fill="#D6D4F6"/>
<path opacity="0.34" d="M60.5314 185.768H45.3887C44.4374 187.632 43.5638 189.503 42.7678 191.367C48.8831 185.943 60.5249 185.768 60.5249 185.768H60.5314Z" fill="#7050D1"/>
<path d="M60.5314 201.561C60.5314 198.124 60.5314 200.61 60.5314 199.839C60.5637 199.839 60.6349 199.839 60.6737 199.839C63.9417 199.988 66.9314 197.729 67.928 194.636L70.0182 189.244C70.8012 186.7 72.6844 185.639 75.247 185.956V187.348C73.2474 187.315 72.2573 187.878 71.8237 189.852C71.4548 191.037 70.1606 195.826 69.7205 196.894C68.258 200.59 64.4982 203.153 60.5314 203.276C60.5314 202.512 60.5314 204.991 60.5249 201.561H60.5314Z" fill="#D6D4F6"/>
<path d="M68.329 206.228H36.3287C35.7176 206.228 35.2222 206.723 35.2222 207.334V207.852C35.2222 208.463 35.7176 208.959 36.3287 208.959H68.329C68.9402 208.959 69.4356 208.463 69.4356 207.852V207.334C69.4356 206.723 68.9402 206.228 68.329 206.228Z" fill="#CED3FF"/>
<path d="M3 302L271 302" stroke="#5647C1" stroke-linecap="round" stroke-linejoin="round"/>
<path d="M168.903 106.662C165.273 107.154 164.871 107.556 164.38 111.187C163.888 107.556 163.487 107.154 159.856 106.662C163.487 106.17 163.888 105.769 164.38 102.138C164.871 105.769 165.273 106.17 168.903 106.662Z" fill="white"/>
<path d="M227.992 157.212C224.362 157.704 223.96 158.105 223.468 161.736C222.977 158.105 222.575 157.704 218.945 157.212C222.575 156.72 222.977 156.319 223.468 152.688C223.96 156.319 224.362 156.72 227.992 157.212Z" fill="white"/>
<path d="M9.98894 181.257C6.35857 181.749 5.95735 182.15 5.46554 185.781C4.97372 182.15 4.57251 181.749 0.942139 181.257C4.57251 180.765 4.97372 180.364 5.46554 176.733C5.95735 180.364 6.35857 180.765 9.98894 181.257Z" fill="white"/>
<path d="M28.3088 126.403C24.6784 126.895 24.2772 127.296 23.7854 130.927C23.2935 127.296 22.8923 126.895 19.262 126.403C22.8923 125.911 23.2935 125.51 23.7854 121.879C24.2772 125.51 24.6784 125.911 28.3088 126.403Z" fill="white"/>
<path d="M240.779 272.078C237.149 272.57 236.748 272.971 236.256 276.602C235.764 272.971 235.363 272.57 231.733 272.078C235.363 271.586 235.764 271.185 236.256 267.554C236.748 271.185 237.149 271.586 240.779 272.078Z" fill="white"/>
<path d="M230.181 75.6387C230.644 75.8702 230.849 76.4128 230.669 76.8867L230.628 76.9805L230.395 77.4473L230.344 77.5361C230.072 77.9643 229.516 78.1261 229.053 77.8945C228.59 77.663 228.385 77.1204 228.564 76.6465L228.605 76.5527L228.839 76.0859L228.89 75.9971C229.161 75.569 229.718 75.4071 230.181 75.6387ZM232.514 70.9727C232.977 71.2042 233.181 71.7459 233.002 72.2197L232.961 72.3135L232.494 73.2471L232.444 73.3359C232.173 73.7644 231.616 73.926 231.152 73.6943C230.689 73.4627 230.484 72.9201 230.664 72.4463L230.706 72.3525L231.172 71.4199L231.223 71.3301C231.494 70.9021 232.051 70.7411 232.514 70.9727ZM234.848 66.3057C235.311 66.5373 235.516 67.0799 235.336 67.5537L235.294 67.6475L234.828 68.5801L234.777 68.6699C234.506 69.0979 233.949 69.2589 233.486 69.0273C233.023 68.7958 232.819 68.2541 232.998 67.7803L233.039 67.6865L233.506 66.7529L233.556 66.6641C233.827 66.2356 234.384 66.074 234.848 66.3057ZM236.947 62.1055C237.41 62.337 237.615 62.8796 237.436 63.3535L237.395 63.4473L237.161 63.9141L237.11 64.0029C236.839 64.431 236.282 64.5929 235.819 64.3613C235.356 64.1298 235.151 63.5872 235.331 63.1133L235.372 63.0195L235.605 62.5527L235.656 62.4639C235.928 62.0357 236.484 61.8739 236.947 62.1055Z" fill="#FFBB00"/>
<path d="M267 42C267 53.0457 258.046 62 247 62C235.954 62 227 53.0457 227 42C227 30.9543 235.954 22 247 22C258.046 22 267 30.9543 267 42ZM231 42C231 50.8366 238.163 58 247 58C255.837 58 263 50.8366 263 42C263 33.1634 255.837 26 247 26C238.163 26 231 33.1634 231 42Z" fill="#EFEFF8"/>
<path d="M247 24C247 22.8954 247.898 21.9896 248.997 22.0999C252.189 22.4202 255.268 23.5052 257.967 25.2752C261.226 27.4121 263.789 30.4544 265.343 34.0282C266.896 37.6021 267.371 41.5518 266.71 45.3922C266.049 49.2325 264.281 52.7961 261.622 55.6451C258.964 58.4941 255.531 60.5044 251.745 61.4289C247.96 62.3535 243.987 62.152 240.314 60.8493C236.641 59.5466 233.429 57.1994 231.073 54.0961C229.12 51.5255 227.825 48.5289 227.285 45.3663C227.099 44.2775 227.941 43.3194 229.043 43.2431V43.2431C230.145 43.1668 231.087 44.0026 231.3 45.0864C231.769 47.4714 232.777 49.7273 234.258 51.6769C236.143 54.1595 238.713 56.0373 241.651 57.0795C244.589 58.1216 247.768 58.2828 250.796 57.5431C253.825 56.8035 256.571 55.1953 258.698 52.9161C260.825 50.6369 262.239 47.786 262.768 44.7137C263.297 41.6415 262.917 38.4817 261.674 35.6226C260.432 32.7635 258.381 30.3297 255.774 28.6202C253.727 27.2777 251.406 26.4279 248.995 26.1248C247.899 25.9871 247 25.1046 247 24V24Z" fill="#FFBB00"/>
<path d="M252.642 48H250.59L244.416 38.658V48H242.364V35.472H244.416L250.59 44.796V35.472H252.642V48Z" fill="#FFBB00"/>
<path d="M188 44.4932C188 45.0453 187.552 45.4932 187 45.4932C186.448 45.4932 186 45.0453 186 44.4932V44C186 43.4477 186.448 43 187 43C187.552 43 188 43.4477 188 44V44.4932ZM188 49.4219L187.995 49.5234C187.944 50.0278 187.518 50.4219 187 50.4219C186.482 50.4219 186.056 50.0278 186.005 49.5234L186 49.4219V48.4355C186 47.8833 186.448 47.4355 187 47.4355C187.552 47.4355 188 47.8833 188 48.4355V49.4219ZM188 54.3496L187.995 54.4521C187.944 54.9565 187.518 55.3496 187 55.3496C186.482 55.3496 186.056 54.9565 186.005 54.4521L186 54.3496V53.3643C186 52.812 186.448 52.3643 187 52.3643C187.552 52.3643 188 52.812 188 53.3643V54.3496ZM188 59.2783L187.995 59.3809C187.944 59.8851 187.518 60.2783 187 60.2783C186.482 60.2783 186.056 59.8851 186.005 59.3809L186 59.2783V58.293C186 57.7407 186.448 57.293 187 57.293C187.552 57.293 188 57.7407 188 58.293V59.2783ZM188 64.207C188 64.7593 187.552 65.207 187 65.207C186.448 65.207 186 64.7593 186 64.207V63.2217C186 62.6694 186.448 62.2217 187 62.2217C187.552 62.2217 188 62.6694 188 63.2217V64.207ZM188 69.1357L187.995 69.2383C187.944 69.7424 187.518 70.1357 187 70.1357C186.482 70.1357 186.056 69.7424 186.005 69.2383L186 69.1357V68.1504C186 67.5981 186.448 67.1504 187 67.1504C187.552 67.1504 188 67.5981 188 68.1504V69.1357ZM188 74.0645L187.995 74.167C187.944 74.671 187.518 75.0645 187 75.0645C186.482 75.0645 186.056 74.671 186.005 74.167L186 74.0645V73.0781C186 72.526 186.448 72.0781 187 72.0781C187.552 72.0781 188 72.526 188 73.0781V74.0645ZM188 78.5C188 79.0523 187.552 79.5 187 79.5C186.448 79.5 186 79.0523 186 78.5V78.0068C186 77.4547 186.448 77.0068 187 77.0068C187.552 77.0068 188 77.4547 188 78.0068V78.5Z" fill="#FF754C"/>
<path d="M207 20C207 31.0457 198.046 40 187 40C175.954 40 167 31.0457 167 20C167 8.95431 175.954 0 187 0C198.046 0 207 8.95431 207 20ZM171 20C171 28.8366 178.163 36 187 36C195.837 36 203 28.8366 203 20C203 11.1634 195.837 4 187 4C178.163 4 171 11.1634 171 20Z" fill="#EFEFF8"/>
<path d="M187 2C187 0.895431 187.898 -0.010359 188.997 0.0999159C191.555 0.35658 194.046 1.10476 196.331 2.31001C199.207 3.82712 201.67 6.02266 203.506 8.70642C205.342 11.3902 206.497 14.4812 206.869 17.7117C207.241 20.9421 206.819 24.2146 205.641 27.2455C204.463 30.2764 202.564 32.9744 200.108 35.1056C197.652 37.2369 194.713 38.7371 191.547 39.4764C188.38 40.2156 185.081 40.1715 181.935 39.348C179.436 38.6938 177.093 37.5632 175.033 36.025C174.148 35.3641 174.098 34.0899 174.844 33.2752V33.2752C175.59 32.4606 176.849 32.4167 177.75 33.0553C179.318 34.1663 181.078 34.989 182.948 35.4784C185.465 36.1372 188.104 36.1725 190.637 35.5811C193.171 34.9897 195.522 33.7895 197.486 32.0845C199.451 30.3795 200.971 28.2211 201.913 25.7964C202.856 23.3717 203.193 20.7537 202.895 18.1693C202.597 15.585 201.674 13.1121 200.205 10.9651C198.736 8.81813 196.766 7.06169 194.465 5.84801C192.755 4.94634 190.902 4.36444 188.995 4.12484C187.899 3.98712 187 3.10457 187 2V2Z" fill="#FF754C"/>
<path d="M190.117 23.444H184.879L183.979 26H181.837L186.319 13.472H188.695L193.177 26H191.017L190.117 23.444ZM189.541 21.77L187.507 15.956L185.455 21.77H189.541Z" fill="#FF754C"/>
<path d="M146.114 64.4932C146.361 64.9871 146.161 65.587 145.667 65.834C145.173 66.0809 144.572 65.8815 144.325 65.3877L144.105 64.9473C143.858 64.4533 144.059 63.8525 144.553 63.6055C145.047 63.3585 145.647 63.5588 145.894 64.0527L146.114 64.4932ZM148.314 68.8926C148.561 69.3866 148.361 69.9874 147.867 70.2344C147.373 70.4814 146.772 70.2811 146.525 69.7871L146.086 68.9072C145.839 68.4133 146.039 67.8124 146.533 67.5654C147.027 67.3188 147.627 67.519 147.874 68.0127L148.314 68.8926ZM150.515 73.293C150.761 73.7869 150.561 74.3878 150.067 74.6348C149.573 74.8817 148.973 74.6813 148.726 74.1875L148.285 73.3076C148.038 72.8138 148.239 72.2129 148.732 71.9658C149.226 71.7188 149.827 71.9191 150.074 72.4131L150.515 73.293ZM152.715 77.6924C152.962 78.1862 152.761 78.7871 152.268 79.0342C151.774 79.2812 151.173 79.0809 150.926 78.5869L150.485 77.707C150.238 77.2131 150.439 76.6122 150.933 76.3652C151.426 76.1183 152.027 76.3187 152.274 76.8125L152.715 77.6924ZM154.914 82.0928C155.161 82.5868 154.961 83.1876 154.467 83.4346C153.973 83.6812 153.373 83.481 153.126 82.9873L152.685 82.1074C152.438 81.6135 152.639 81.0126 153.133 80.7656C153.627 80.5186 154.228 80.7189 154.475 81.2129L154.914 82.0928ZM156.894 86.0527C157.141 86.5467 156.941 87.1476 156.447 87.3945C155.953 87.6415 155.352 87.4413 155.105 86.9473L154.886 86.5068C154.639 86.0129 154.839 85.413 155.333 85.166C155.827 84.9191 156.428 85.1185 156.675 85.6123L156.894 86.0527Z" fill="#58C69E"/>
<path d="M156 42C156 53.0457 147.046 62 136 62C124.954 62 116 53.0457 116 42C116 30.9543 124.954 22 136 22C147.046 22 156 30.9543 156 42ZM120 42C120 50.8366 127.163 58 136 58C144.837 58 152 50.8366 152 42C152 33.1634 144.837 26 136 26C127.163 26 120 33.1634 120 42Z" fill="#EFEFF8"/>
<path d="M136 24C136 22.8954 136.898 21.9896 137.997 22.0999C140.911 22.3923 143.734 23.3222 146.262 24.8333C149.364 26.6875 151.905 29.3475 153.616 32.5305C155.327 35.7136 156.144 39.3007 155.979 42.9107C155.845 45.8528 155.063 48.7204 153.7 51.3124C153.185 52.2899 151.935 52.539 151.013 51.9296V51.9296C150.092 51.3203 149.852 50.0837 150.342 49.0936C151.32 47.1149 151.882 44.9482 151.983 42.7286C152.115 39.8406 151.462 36.9709 150.093 34.4244C148.724 31.878 146.691 29.75 144.209 28.2667C142.302 27.1266 140.185 26.4001 137.995 26.1248C136.899 25.9871 136 25.1046 136 24V24Z" fill="#58C69E"/>
<path d="M134.682 37.146V40.818H139.002V42.492H134.682V46.326H139.542V48H132.63V35.472H139.542V37.146H134.682Z" fill="#58C69E"/>
<path d="M99.5635 80.0557C99.9356 80.4 99.9934 80.977 99.6817 81.3906C99.3493 81.8316 98.7223 81.9202 98.2813 81.5879L97.8985 81.2988C97.4575 80.9665 97.3691 80.3395 97.7012 79.8985C98.0335 79.4575 98.6606 79.369 99.1016 79.7012L99.4854 79.9902L99.5635 80.0557ZM103.318 82.8789C103.759 83.2112 103.848 83.8383 103.516 84.2793C103.183 84.7203 102.556 84.8087 102.115 84.4766L101.349 83.8985L101.27 83.833C100.898 83.4886 100.84 82.9116 101.151 82.4981C101.484 82.057 102.111 81.9694 102.552 82.3018L103.318 82.8789ZM105.182 86.7871C104.741 86.4547 104.652 85.8278 104.984 85.3867C105.317 84.9458 105.944 84.8582 106.385 85.1904L105.182 86.7871ZM107.151 85.7676C107.592 86.1 107.681 86.7279 107.349 87.169C107.016 87.6098 106.389 87.6975 105.948 87.3652L105.182 86.7871L106.385 85.1904L107.151 85.7676ZM111.064 88.7227C111.436 89.067 111.493 89.6441 111.182 90.0576C110.849 90.4984 110.222 90.5862 109.781 90.2539L109.015 89.6768L108.937 89.6104C108.565 89.266 108.507 88.6898 108.818 88.2764C109.151 87.8353 109.778 87.7467 110.219 88.0791L110.985 88.6572L111.064 88.7227ZM114.898 91.6113C115.269 91.9557 115.327 92.5329 115.016 92.9463C114.683 93.3874 114.056 93.475 113.615 93.1426L112.849 92.5654C112.408 92.2331 112.319 91.6061 112.651 91.1651C112.984 90.7241 113.611 90.6356 114.052 90.9678L114.818 91.5459L114.898 91.6113ZM118.651 94.4346C119.092 94.7669 119.181 95.3939 118.849 95.835C118.516 96.276 117.889 96.3645 117.448 96.0322L116.682 95.4541L116.603 95.3887C116.231 95.0443 116.173 94.4672 116.484 94.0537C116.817 93.6127 117.444 93.5251 117.885 93.8574L118.651 94.4346ZM122.564 97.3897C122.935 97.734 122.993 98.3102 122.682 98.7236C122.349 99.1647 121.722 99.2533 121.281 98.9209L120.515 98.3428L120.437 98.2774C120.065 97.933 120.007 97.3559 120.318 96.9424C120.651 96.5016 121.278 96.4138 121.719 96.7461L122.485 97.3233L122.564 97.3897ZM126.318 100.213C126.759 100.545 126.848 101.172 126.516 101.613C126.183 102.054 125.556 102.142 125.115 101.81L124.349 101.232C123.908 100.9 123.819 100.272 124.151 99.8311C124.484 99.3903 125.111 99.3025 125.552 99.6348L126.318 100.213ZM130.231 103.167C130.602 103.511 130.66 104.088 130.349 104.502C130.016 104.943 129.389 105.031 128.948 104.698L128.182 104.121C127.741 103.789 127.652 103.162 127.984 102.721C128.317 102.28 128.944 102.191 129.385 102.523L130.151 103.102L130.231 103.167ZM133.602 105.701C134.043 106.034 134.131 106.661 133.799 107.102C133.467 107.543 132.84 107.631 132.398 107.299L132.015 107.01L131.937 106.944C131.564 106.6 131.507 106.023 131.818 105.609C132.151 105.168 132.778 105.08 133.219 105.412L133.602 105.701Z" fill="#817EFF"/>
<path d="M97 65C97 76.0457 88.0457 85 77 85C65.9543 85 57 76.0457 57 65C57 53.9543 65.9543 45 77 45C88.0457 45 97 53.9543 97 65ZM61 65C61 73.8366 68.1634 81 77 81C85.8366 81 93 73.8366 93 65C93 56.1634 85.8366 49 77 49C68.1634 49 61 56.1634 61 65Z" fill="#EFEFF8"/>
<path d="M77 47C77 45.8954 77.8977 44.9896 78.9968 45.0999C82.7998 45.4814 86.4294 46.947 89.4435 49.3424C92.9815 52.1542 95.463 56.0814 96.4835 60.484C97.5039 64.8866 97.0032 69.505 95.063 73.5866C93.1227 77.6682 89.8572 80.9723 85.7988 82.9606C81.7403 84.9488 77.1281 85.5038 72.7138 84.5353C68.2995 83.5668 64.3434 81.1318 61.4901 77.6271C58.6368 74.1223 57.0546 69.7546 57.0014 65.2356C56.956 61.3859 58.0226 57.6197 60.052 54.3808C60.6385 53.4448 61.9044 53.2907 62.7772 53.9677V53.9677C63.65 54.6447 63.7964 55.8958 63.2335 56.8462C61.7453 59.3588 60.9664 62.2431 61.0011 65.1885C61.0437 68.8037 62.3094 72.2979 64.5921 75.1016C66.8747 77.9054 70.0396 79.8534 73.5711 80.6283C77.1025 81.4031 80.7923 80.959 84.039 79.3684C87.2858 77.7779 89.8982 75.1346 91.4504 71.8693C93.0026 68.604 93.4031 64.9093 92.5868 61.3872C91.7704 57.8651 89.7852 54.7234 86.9548 52.4739C84.6487 50.6412 81.8923 49.4889 78.9948 49.1248C77.8989 48.9871 77 48.1046 77 47V47Z" fill="#817EFF"/>
<path d="M70.7051 64.718C70.7051 63.494 70.9871 62.396 71.5511 61.424C72.1271 60.452 72.9011 59.696 73.8731 59.156C74.8571 58.604 75.9311 58.328 77.0951 58.328C78.4271 58.328 79.6091 58.658 80.6411 59.318C81.6851 59.966 82.4411 60.89 82.9091 62.09H80.4431C80.1191 61.43 79.6691 60.938 79.0931 60.614C78.5171 60.29 77.8511 60.128 77.0951 60.128C76.2671 60.128 75.5291 60.314 74.8811 60.686C74.2331 61.058 73.7231 61.592 73.3511 62.288C72.9911 62.984 72.8111 63.794 72.8111 64.718C72.8111 65.642 72.9911 66.452 73.3511 67.148C73.7231 67.844 74.2331 68.384 74.8811 68.768C75.5291 69.14 76.2671 69.326 77.0951 69.326C77.8511 69.326 78.5171 69.164 79.0931 68.84C79.6691 68.516 80.1191 68.024 80.4431 67.364H82.9091C82.4411 68.564 81.6851 69.488 80.6411 70.136C79.6091 70.784 78.4271 71.108 77.0951 71.108C75.9191 71.108 74.8451 70.838 73.8731 70.298C72.9011 69.746 72.1271 68.984 71.5511 68.012C70.9871 67.04 70.7051 65.942 70.7051 64.718Z" fill="#817EFF"/>
<path d="M87.2774 125.634C87.7637 125.777 88.0716 126.269 87.9757 126.778C87.8733 127.321 87.3504 127.677 86.8077 127.575L86.3146 127.482C85.7721 127.38 85.4155 126.857 85.5177 126.314C85.6201 125.772 86.1431 125.415 86.6856 125.518L87.1778 125.61L87.2774 125.634ZM92.2062 126.563C92.6923 126.706 93.0003 127.198 92.9044 127.707C92.802 128.25 92.279 128.606 91.7364 128.504L90.7511 128.318L90.6515 128.294C90.1653 128.15 89.8573 127.659 89.9532 127.15C90.0556 126.608 90.5785 126.25 91.1212 126.353L92.1065 126.539L92.2062 126.563ZM97.0353 127.468C97.5778 127.57 97.9351 128.092 97.8331 128.635C97.7309 129.177 97.2078 129.535 96.6651 129.433L95.6788 129.247C95.1363 129.145 94.7797 128.622 94.8819 128.079C94.9842 127.536 95.5072 127.179 96.0499 127.281L97.0353 127.468ZM100.608 130.176C100.065 130.073 99.7084 129.55 99.8106 129.008C99.9129 128.465 100.435 128.108 100.978 128.21L100.608 130.176ZM101.964 128.396C102.507 128.498 102.864 129.021 102.762 129.563C102.66 130.106 102.136 130.463 101.594 130.361L100.608 130.176L100.978 128.21L101.964 128.396ZM105.536 131.105C104.994 131.002 104.636 130.479 104.738 129.937C104.841 129.394 105.364 129.037 105.906 129.139L105.536 131.105ZM106.893 129.324C107.435 129.427 107.792 129.95 107.69 130.492C107.587 131.035 107.065 131.392 106.523 131.29L105.536 131.105L105.906 129.139L106.893 129.324ZM110.465 132.032C109.922 131.93 109.565 131.408 109.667 130.865C109.769 130.323 110.292 129.965 110.835 130.067L110.465 132.032ZM111.821 130.253C112.364 130.355 112.72 130.878 112.618 131.421C112.516 131.964 111.993 132.321 111.45 132.219L110.465 132.032L110.835 130.067L111.821 130.253ZM116.849 131.206C117.335 131.35 117.643 131.841 117.547 132.35C117.445 132.892 116.922 133.25 116.379 133.147L115.394 132.961L115.294 132.938C114.808 132.794 114.5 132.302 114.596 131.793C114.698 131.25 115.221 130.894 115.764 130.996L116.749 131.182L116.849 131.206ZM121.186 132.018C121.728 132.12 122.085 132.643 121.983 133.186C121.88 133.728 121.357 134.085 120.815 133.982L120.322 133.89L120.223 133.866C119.737 133.723 119.429 133.231 119.525 132.722C119.627 132.179 120.15 131.823 120.692 131.925L121.186 132.018Z" fill="#5DA6FF"/>
<path d="M81 120C81 131.046 72.0457 140 61 140C49.9543 140 41 131.046 41 120C41 108.954 49.9543 100 61 100C72.0457 100 81 108.954 81 120ZM45 120C45 128.837 52.1634 136 61 136C69.8366 136 77 128.837 77 120C77 111.163 69.8366 104 61 104C52.1634 104 45 111.163 45 120Z" fill="#EFEFF8"/>
<path d="M61 102C61 100.895 61.8977 99.9896 62.9967 100.1C66.1313 100.414 69.1573 101.466 71.8224 103.181C75.0499 105.258 77.6118 108.22 79.2021 111.712C80.7925 115.205 81.3442 119.082 80.7915 122.88C80.3351 126.016 79.1416 128.989 77.3207 131.56C76.6822 132.461 75.4096 132.544 74.5765 131.819V131.819C73.7434 131.093 73.6679 129.836 74.2836 128.919C75.6127 126.939 76.4874 124.68 76.8332 122.304C77.2754 119.266 76.834 116.164 75.5617 113.37C74.2894 110.576 72.24 108.206 69.6579 106.545C67.6387 105.246 65.3605 104.422 62.9948 104.125C61.8989 103.987 61 103.105 61 102V102Z" fill="#5DA6FF"/>
<path d="M61.4984 126.126C60.3344 126.126 59.2604 125.856 58.2764 125.316C57.3044 124.764 56.5304 124.002 55.9544 123.03C55.3904 122.046 55.1084 120.942 55.1084 119.718C55.1084 118.494 55.3904 117.396 55.9544 116.424C56.5304 115.452 57.3044 114.696 58.2764 114.156C59.2604 113.604 60.3344 113.328 61.4984 113.328C62.6744 113.328 63.7484 113.604 64.7204 114.156C65.7044 114.696 66.4784 115.452 67.0424 116.424C67.6064 117.396 67.8884 118.494 67.8884 119.718C67.8884 120.942 67.6064 122.046 67.0424 123.03C66.4784 124.002 65.7044 124.764 64.7204 125.316C63.7484 125.856 62.6744 126.126 61.4984 126.126ZM61.4984 124.344C62.3264 124.344 63.0644 124.158 63.7124 123.786C64.3604 123.402 64.8644 122.862 65.2244 122.166C65.5964 121.458 65.7824 120.642 65.7824 119.718C65.7824 118.794 65.5964 117.984 65.2244 117.288C64.8644 116.592 64.3604 116.058 63.7124 115.686C63.0644 115.314 62.3264 115.128 61.4984 115.128C60.6704 115.128 59.9324 115.314 59.2844 115.686C58.6364 116.058 58.1264 116.592 57.7544 117.288C57.3944 117.984 57.2144 118.794 57.2144 119.718C57.2144 120.642 57.3944 121.458 57.7544 122.166C58.1264 122.862 58.6364 123.402 59.2844 123.786C59.9324 124.158 60.6704 124.344 61.4984 124.344Z" fill="#5DA6FF"/>
</svg>
