<svg width="400" height="400" viewBox="0 0 400 400" fill="none" xmlns="http://www.w3.org/2000/svg">
<path d="M372 200C372 105.007 294.993 28 200 28C105.007 28 28 105.007 28 200C28 294.993 105.007 372 200 372V400C89.5431 400 0 310.457 0 200C0 89.5431 89.5431 0 200 0C310.457 0 400 89.5431 400 200C400 310.457 310.457 400 200 400V372C294.993 372 372 294.993 372 200Z" fill="#58CD90"/>
<path d="M279.309 132.985C285.037 127.586 294.096 127.673 299.717 133.245C305.338 138.817 305.426 147.797 299.981 153.476L299.718 153.743L181.994 265.754C179.252 268.473 175.533 270 171.655 270C167.777 270 164.058 268.473 161.316 265.755L99.2825 204.26L99.0191 203.992C93.5739 198.313 93.6617 189.333 99.2825 183.761C104.903 178.189 113.962 178.102 119.69 183.5L119.961 183.761L171.654 235.006L279.039 133.246L279.309 132.985Z" fill="#58CD90"/>
</svg>
